<?xml version="1.0" encoding="UTF-8"?><svg id="Capa_2" xmlns="http://www.w3.org/2000/svg" viewBox="0 0 276.29 333.04"><defs><style>.cls-1{fill:#05B8C1;}.cls-2{fill:none;stroke:#05B8C1;stroke-miterlimit:10;stroke-width:2.61px;}</style></defs><g id="Capa_1-2"><rect class="cls-2" x="1.3" y="1.3" width="273.68" height="330.43" rx="23.76" ry="23.76"/><path class="cls-1" d="M225.88,200.66v.06h.06l-.06-.06Z"/><path class="cls-1" d="M179.72,98.92v-.07h-.06v.07h.06Z"/><path class="cls-1" d="M198.32,117.08v.06h.06l-.06-.06Z"/><path class="cls-1" d="M50.36,172.7v-.06h-.06l.06.06Z"/><path class="cls-1" d="M124.14,237.54h-.06v.06l.06-.06Z"/><path class="cls-1" d="M152.15,246.88h-.06v.06l.06-.06Z"/><path class="cls-1" d="M114.75,89.58h.07v-.06h-.07v.06Z"/><path class="cls-1" d="M124.15,117.08h-.07v.06h.07v-.06Z"/><path class="cls-1" d="M68.45,117.23h.06v-.07s-.06.07-.06.07Z"/><path class="cls-1" d="M216.73,237.61v-18.8h9.15v-18.09h-9.12v-18.79h9.01v-9.36h-36.63v-9.28h9.26v-9.25c3.06,0,6.12,0,9.41,0v9.17h8.85v-18.15h9.13v-9.37h-36.65v-9.29h9.18v-9.26h-9.38v-18.23h-9.22v8.7h-9.4v-8.7h-8.97v8.94h-9.28v9.08h-9.36v-9.01h-18.55v9.16h9.33v9.34c12.28.02,24.55.05,36.83.07,0,3,0,6,0,9.23h-18.05v9.33h9.03v8.81h-27.8v-8.71h9.14v-9.4h-9.15c-.02-3.09-.04-6.18-.06-9.27h-9.27c0,3.09,0,6.18,0,9.27,3.09.02,6.18.04,9.27.06v9.28c-3.12-.02-6.24-.05-9.36-.07l.02-9.2h-18.28v-18.76h-9.11v-9.35h18.06v-18.13h-8.82v9.41h-27.92v8.84h9.03v9.4h-18.54c0,6.15,0,12.29,0,18.51h9.35v-9.14h9.4v9.15h9.15v9.4h-9.15v8.7h-9.4v-8.7h-18.28v8.98h-18.46v9.26h9.25v9.24h9.41v-9.17h8.84v18.51h27.92v-9.25h-18.52v-9.21h27.92v18.46h8.69v36.82h-8.76v-9.06h-9.12v45.95h18.1v-18.14h9.25v-27.93h9.34c0,3.05,0,6.11,0,9.39h18.6v9.26h-9.08v18.61h9.15v-9.26h18.23c0,3.05,0,6.11,0,9.4h9.44v8.65h9.35v-8.78h36.78v-9.27h-9.16ZM189.18,145.26h9.15c0,2.91,0,5.81,0,8.72h-9.15v-8.72ZM114.96,163.22v-18.15h9.04c0,6.01,0,12.02,0,18.15h-9.03ZM142.82,182.04h9.15v9.28h-9.15v-9.28ZM124.27,172.82h18.48v9.16h-9.33v9.34h-9.15v-18.49ZM170.2,218.79h-8.65v-9.24c-9.52,0-18.8,0-28.08,0,0-6.06,0-12.11,0-18.17h9.27v9.16h18.63v-9.02h8.82v27.27ZM152.27,172.52v-9.14h18.04c0,3,0,5.99,0,9.14h-18.04ZM179.54,237.55c-3.06,0-6.11,0-9.16,0v-9.15h9.16v9.15ZM179.54,163.32h-9.16v-18.03h9.16v18.03ZM179.54,126.42c-3.06,0-6.11,0-9.16,0v-9.15h9.16v9.15ZM179.85,209.46v-27.36h27.71v27.36h-27.71ZM207.6,237.43h-18.46v-9.09h9.17v-9.32h9.29v18.4Z"/><path class="cls-1" d="M77.85,135.74v.07h.06v-.07h-.06Z"/><path class="cls-1" d="M96.52,181.98v.07h.06v-.07h-.06Z"/><path class="cls-1" d="M225.88,246.88v.07h.06v-.07h-.06Z"/><path class="cls-1" d="M253.73,24.77h-64.48v64.41h64.48V24.77ZM244.44,80.05h-45.93v-46.06h45.93v46.06Z"/><path class="cls-1" d="M87.11,24.76H22.78v64.46h64.34V24.76ZM77.81,80.08H31.84v-45.98h45.97v45.98Z"/><path class="cls-1" d="M22.79,255.72h64.28v-64.32H22.79v64.32ZM33.63,200.43c14.36.06,28.72.04,43.08.04.29,0,.59.06,1.06.12v46.12H31.92c-.07-.63-.18-1.2-.18-1.76,0-14.14,0-28.28-.03-42.41,0-1.46.29-2.12,1.93-2.11Z"/><path class="cls-1" d="M22.49,99.03v82.87h9.21v-64.75h9.25c0,9.26,0,18.53,0,27.82h9.48v-9.25h9.25v-18.55c3.07,0,5.92,0,8.77,0,0-6.03,0-12.05,0-18.14H22.49ZM50.18,117.08c-3.06,0-6.11,0-9.16,0v-9.15h9.16v9.15Z"/><path class="cls-1" d="M68.45,117.23s.06-.07.06-.07c-.02,0-.04,0-.06,0v.07Z"/><path class="cls-1" d="M133.54,43.47h18.69v18.16h18.17v9.07h9.16v-36.77h-9.32v-9.16h-8.84v9.25h-37.25c.03,6.08.06,12.15.08,18.23,3.05,0,6.1,0,9.3,0v-8.78ZM161.6,43.44h8.64v8.6h-8.64v-8.6Z"/><path class="cls-1" d="M124.24,52.25s-.05,0-.07,0c0,0,.07.06.07.06,0-.02,0-.04,0-.06Z"/><path class="cls-1" d="M124.09,34.02h.06s0-.04,0-.06l-.06.06Z"/><path class="cls-1" d="M105.86,89.52v.06h.07v-.06h-.07Z"/><path class="cls-1" d="M105.87,61.58h.06v-.06l-.06.06Z"/><path class="cls-1" d="M114.75,80.18v-9.15h9.4v9.15h9.34v9.33h9.41v-9.18h9.28v9.03h9.15v-18.55h-27.98v-9.36h-9.18c0-3.16,0-6.16,0-9.16-3.06,0-6.13,0-9.43,0v9.27h-8.81v9.38h-9.22v18.56h9.15v-9.34h8.89Z"/><path class="cls-1" d="M124.17,52.25s0,.04,0,.06c.02,0,.05,0,.07,0,0,0-.07-.06-.07-.06Z"/><path class="cls-1" d="M114.75,80.18v.06h.06v-.06h-.06Z"/><path class="cls-1" d="M253.75,163.26h-9.01v-9.37h9.05v-17.95h-18.59v18.09h-9.12v9.37h9.21v9.37h9.18v18.63h-18.52v9.26c9.28,0,18.56,0,27.8,0v-37.4Z"/><path class="cls-1" d="M225.88,200.66s.06.06.06.06v-.06h-.06Z"/><path class="cls-1" d="M244.55,246.86v-9.26h-9.27v9.34h-9.34v8.69h27.86v-8.77h-9.25Z"/><path class="cls-1" d="M244.55,237.61h.07v-.06h-.07v.06Z"/><path class="cls-1" d="M216.54,107.75v.06h.06l-.06-.06Z"/><path class="cls-1" d="M198.32,117.08s.06.06.06.06v-.06h-.06Z"/><path class="cls-1" d="M207.76,126.28h8.78v-18.46h-8.93v-8.76h-9.23v18.03c3.05,0,6.1,0,9.38,0v9.19Z"/><path class="cls-1" d="M244.62,237.55c3.05,0,6.1,0,9.16,0v-18.49h-18.49v9.15h9.33v9.34Z"/><path class="cls-1" d="M235.29,228.21h-.07v.06h.07v-.06Z"/><path class="cls-1" d="M179.65,80.37h-9.28v18.48h9.28v-18.48Z"/><path class="cls-1" d="M170.38,98.85h-.06v.07h.06v-.07Z"/><path class="cls-1" d="M96.59,200.52h9.28v-18.48h-9.28v18.48Z"/><path class="cls-1" d="M105.86,182.04h.06v-.07h-.06v.07Z"/><path class="cls-1" d="M105.93,24.8v9.15c6.05,0,12.11,0,18.16.01,0-3.05,0-6.11,0-9.16h-18.16Z"/><path class="cls-1" d="M105.93,34v-.06s-.04,0-.06,0l.06.06Z"/><path class="cls-1" d="M124.09,34.02s.06-.06.06-.06c-.02,0-.04,0-.06,0v.06Z"/><path class="cls-1" d="M133.42,126.47h.06v-.06s-.04,0-.06,0c0,.02,0,.04,0,.06Z"/><path class="cls-1" d="M124.15,135.75s-.04,0-.06,0v.07h.06s0-.04,0-.06Z"/><path class="cls-1" d="M244.56,107.81h.06v-.06l-.06.06Z"/><path class="cls-1" d="M253.76,116.96v-9.15h-9.14v9.15h9.14Z"/><path class="cls-1" d="M114.94,117.14v9.28h9.15v-9.28h-9.15Z"/><path class="cls-1" d="M124.09,126.41v.06h.07s0-.04,0-.06h-.07Z"/><path class="cls-1" d="M105.93,34s-.06-.06-.06-.06v.06h.06Z"/><path class="cls-1" d="M96.7,43.15h9.16v-9.15c-3.05,0-6.1,0-9.16,0v9.15Z"/><path class="cls-1" d="M235.13,126.26v-9.06h-9.05v9.06h9.05Z"/><path class="cls-1" d="M133.29,246.77v-9.16h-9.15c0,3.05,0,6.1,0,9.16h9.15Z"/><path class="cls-1" d="M124.14,237.54s-.06.06-.06.06h.06v-.06Z"/><path class="cls-1" d="M41.14,181.85h9.16v-9.15c-3.05,0-6.1,0-9.16,0v9.15Z"/><path class="cls-1" d="M50.36,172.7s-.06-.06-.06-.06v.06h.06Z"/><path class="cls-1" d="M87.19,135.81h-9.27v9.27h9.27v-9.27Z"/><path class="cls-1" d="M77.92,145.08h-.06v.07h.06v-.07Z"/><path class="cls-1" d="M87.19,145.08v.06h.06v-.06h-.06Z"/><path class="cls-1" d="M87.19,135.81h.06v-.06h-.06v.06Z"/><path class="cls-1" d="M133.42,89.58h.06v-.07h-.06v.07Z"/><path class="cls-1" d="M124.15,98.73h9.27v-9.15h-9.27v9.15Z"/><path class="cls-1" d="M114.81,80.24v9.27h9.27v-9.27h-9.27Z"/><path class="cls-1" d="M124.09,89.52v.06h.07v-.06h-.07Z"/><path class="cls-1" d="M124.09,80.24h.06v-.06h-.06v.06Z"/><path class="cls-1" d="M235.22,237.55v.06h.06v-.06h-.06Z"/><path class="cls-1" d="M225.95,237.55h-.06v.07h.06v-.07Z"/><path class="cls-1" d="M235.22,228.27c-3.06,0-6.12,0-9.27,0v9.27h9.27v-9.27Z"/><path class="cls-1" d="M96.72,52.35v9.16h9.15c0-3.05,0-6.1,0-9.16h-9.15Z"/><path class="cls-1" d="M105.87,61.58s.06-.06.06-.06h-.06v.06Z"/><path class="cls-1" d="M216.54,107.75s.06.06.06.06v-.06h-.06Z"/><path class="cls-1" d="M225.77,99.04h-9.16v8.7c3.05,0,6.1,0,9.16,0v-8.7Z"/><path class="cls-1" d="M235.41,99.03v8.72h9.15c0-2.9,0-5.8,0-8.72h-9.15Z"/><path class="cls-1" d="M244.56,107.81s.06-.06.06-.06h-.06v.06Z"/><path class="cls-1" d="M152.15,246.88s-.06.06-.06.06h.06v-.06Z"/><path class="cls-1" d="M161.3,255.66v-8.72h-9.15c0,2.9,0,5.8,0,8.72h9.15Z"/><path class="cls-1" d="M189.06,200.54h9.13v-9.02h-9.13v9.02Z"/><path class="cls-1" d="M235.15,43.29h-27.41v27.46h27.41v-27.46Z"/><path class="cls-1" d="M68.52,43.29h-27.4v27.53h27.4v-27.53Z"/><path class="cls-1" d="M68.55,209.88h-27.4v27.56h27.4v-27.56Z"/><path d="M92.15,292.28v5.45h-1.55v-1.19c-.54.82-1.55,1.29-2.96,1.29-2.04,0-3.34-1.09-3.34-2.66,0-1.45.94-2.64,3.63-2.64h2.59v-.32c0-1.38-.8-2.18-2.42-2.18-1.07,0-2.16.37-2.86.97l-.68-1.23c.94-.75,2.28-1.16,3.73-1.16,2.47,0,3.86,1.19,3.86,3.66ZM90.51,294.97v-1.26h-2.52c-1.62,0-2.08.63-2.08,1.4,0,.9.75,1.46,1.99,1.46s2.2-.56,2.6-1.6Z"/><path d="M103.74,285.1v12.63h-1.57v-1.43c-.73,1.02-1.89,1.53-3.22,1.53-2.64,0-4.56-1.86-4.56-4.61s1.92-4.6,4.56-4.6c1.28,0,2.4.48,3.15,1.45v-4.97h1.63ZM102.12,293.22c0-1.92-1.31-3.17-3.03-3.17s-3.05,1.24-3.05,3.17,1.31,3.18,3.05,3.18,3.03-1.26,3.03-3.18Z"/><path d="M106.01,293.22c0-2.69,1.99-4.6,4.7-4.6s4.68,1.91,4.68,4.6-1.97,4.61-4.68,4.61-4.7-1.92-4.7-4.61ZM113.73,293.22c0-1.92-1.29-3.17-3.03-3.17s-3.05,1.24-3.05,3.17,1.31,3.18,3.05,3.18,3.03-1.26,3.03-3.18Z"/><path d="M127,293.22c0,2.77-1.92,4.61-4.56,4.61-1.28,0-2.4-.49-3.15-1.46v4.66h-1.63v-12.32h1.57v1.43c.73-1,1.89-1.52,3.22-1.52,2.64,0,4.56,1.84,4.56,4.6ZM125.35,293.22c0-1.91-1.31-3.17-3.05-3.17s-3.03,1.26-3.03,3.17,1.31,3.18,3.03,3.18,3.05-1.26,3.05-3.18Z"/><path d="M134.34,297.2c-.49.43-1.24.63-1.97.63-1.82,0-2.86-1-2.86-2.83v-4.95h-1.53v-1.35h1.53v-1.97h1.63v1.97h2.59v1.35h-2.59v4.89c0,.97.51,1.51,1.41,1.51.48,0,.94-.15,1.28-.43l.51,1.17Z"/><path d="M143.46,292.28v5.45h-1.55v-1.19c-.54.82-1.55,1.29-2.96,1.29-2.04,0-3.34-1.09-3.34-2.66,0-1.45.94-2.64,3.63-2.64h2.59v-.32c0-1.38-.8-2.18-2.42-2.18-1.07,0-2.16.37-2.86.97l-.68-1.23c.94-.75,2.28-1.16,3.73-1.16,2.47,0,3.86,1.19,3.86,3.66ZM141.83,294.97v-1.26h-2.52c-1.62,0-2.08.63-2.08,1.4,0,.9.75,1.46,1.99,1.46s2.2-.56,2.6-1.6Z"/><path d="M155.05,285.1v12.63h-1.57v-1.43c-.73,1.02-1.89,1.53-3.22,1.53-2.64,0-4.56-1.86-4.56-4.61s1.92-4.6,4.56-4.6c1.28,0,2.4.48,3.15,1.45v-4.97h1.63ZM153.44,293.22c0-1.92-1.31-3.17-3.03-3.17s-3.05,1.24-3.05,3.17,1.31,3.18,3.05,3.18,3.03-1.26,3.03-3.18Z"/><path d="M157.32,293.22c0-2.69,1.99-4.6,4.7-4.6s4.68,1.91,4.68,4.6-1.97,4.61-4.68,4.61-4.7-1.92-4.7-4.61ZM165.05,293.22c0-1.92-1.29-3.17-3.03-3.17s-3.05,1.24-3.05,3.17,1.31,3.18,3.05,3.18,3.03-1.26,3.03-3.18Z"/><path d="M177.6,288.71v7.8c0,3.18-1.62,4.63-4.68,4.63-1.65,0-3.32-.46-4.31-1.34l.78-1.26c.83.72,2.14,1.17,3.47,1.17,2.13,0,3.1-.99,3.1-3.03v-.72c-.78.94-1.96,1.4-3.25,1.4-2.6,0-4.58-1.77-4.58-4.38s1.97-4.36,4.58-4.36c1.35,0,2.57.49,3.34,1.48v-1.4h1.55ZM176,292.98c0-1.75-1.29-2.93-3.1-2.93s-3.11,1.17-3.11,2.93,1.29,2.94,3.11,2.94,3.1-1.21,3.1-2.94Z"/><path d="M195.69,292.54v5.19h-1.63v-5c0-1.77-.85-2.64-2.33-2.64-1.63,0-2.71,1.04-2.71,3v4.65h-1.63v-5c0-1.77-.85-2.64-2.33-2.64-1.63,0-2.71,1.04-2.71,3v4.65h-1.63v-9.02h1.57v1.35c.65-.92,1.75-1.43,3.11-1.43s2.54.55,3.13,1.67c.68-1.02,1.94-1.67,3.47-1.67,2.2,0,3.69,1.26,3.69,3.92Z"/><path d="M203.78,297.2c-.49.43-1.24.63-1.97.63-1.82,0-2.86-1-2.86-2.83v-4.95h-1.53v-1.35h1.53v-1.97h1.63v1.97h2.59v1.35h-2.59v4.89c0,.97.51,1.51,1.41,1.51.48,0,.94-.15,1.28-.43l.51,1.17Z"/><path d="M213.57,288.71l-4.37,9.92c-.8,1.91-1.84,2.5-3.22,2.5-.87,0-1.75-.29-2.31-.83l.7-1.23c.44.43,1,.66,1.62.66.78,0,1.28-.36,1.72-1.4l.29-.63-3.98-9.01h1.7l3.15,7.22,3.12-7.22h1.6Z"/><path d="M213.78,296.65c0-.68.53-1.16,1.16-1.16s1.12.48,1.12,1.16-.51,1.18-1.12,1.18-1.16-.49-1.16-1.18Z"/><path d="M217.37,293.22c0-2.69,1.99-4.6,4.77-4.6,1.62,0,2.96.66,3.68,1.92l-1.24.8c-.58-.89-1.46-1.29-2.45-1.29-1.77,0-3.1,1.24-3.1,3.17s1.33,3.18,3.1,3.18c.99,0,1.87-.41,2.45-1.29l1.24.78c-.72,1.26-2.06,1.94-3.68,1.94-2.77,0-4.77-1.92-4.77-4.61Z"/><path d="M226.95,293.22c0-2.69,1.99-4.6,4.7-4.6s4.68,1.91,4.68,4.6-1.97,4.61-4.68,4.61-4.7-1.92-4.7-4.61ZM234.68,293.22c0-1.92-1.29-3.17-3.03-3.17s-3.05,1.24-3.05,3.17,1.31,3.18,3.05,3.18,3.03-1.26,3.03-3.18Z"/><path d="M253.58,292.54v5.19h-1.63v-5c0-1.77-.85-2.64-2.33-2.64-1.63,0-2.71,1.04-2.71,3v4.65h-1.63v-5c0-1.77-.85-2.64-2.33-2.64-1.63,0-2.71,1.04-2.71,3v4.65h-1.63v-9.02h1.57v1.35c.65-.92,1.75-1.43,3.11-1.43s2.54.55,3.13,1.67c.68-1.02,1.94-1.67,3.47-1.67,2.2,0,3.69,1.26,3.69,3.92Z"/><path d="M56.36,306.73c-.45,0-.91,0-1.36,0h0c-.46,0-.92,0-1.39,0-.32,0-.6.22-.67.5-.13.5.16.9.69.91.57.01,1.15,0,1.72,0,1.11,0,2.21,0,3.32,0,.31,0,.52-.17.63-.48.09-.26,0-.62-.19-.76-.32-.22-.61-.47-.89-.73-.87-.78-1.6-1.66-1.95-2.79-.19-.6-.2-1.2.04-1.8.41-1.01,1.4-1.64,2.5-1.57.71.05,1.29.37,1.74.91.39.47.55,1.01.6,1.61.04.43.36.71.73.68.42-.03.72-.36.69-.79-.02-.45-.09-.89-.26-1.31-.33-.82-.85-1.47-1.6-1.96-.46-.3-.96-.48-1.49-.55-.79-.09-1.58-.02-2.32.36-1.05.54-1.77,1.35-2.08,2.49-.31,1.15-.1,2.25.46,3.3.33.62.7,1.22,1.2,1.72.05.05.13.12.1.2-.04.1-.15.06-.23.06Z"/><path d="M47.65,279.44c-.37-.04-.68.21-.73.62-.08.68.02,1.34.24,1.99.23.69.6,1.31,1.1,1.83.68.71,1.49,1.21,2.45,1.46.67.17,1.34.04,1.8-.51.75-.9,1.11-1.97,1.15-3.14.04-.26-.04-.51-.11-.75-.14-.49-.44-.87-.85-1.16-.38-.27-.77-.51-1.06-.88-.11-.14-.21-.29-.33-.42-.32-.35-.78-.34-1.1.01-.24.27-.23.62.04.97.43.58.94,1.06,1.56,1.43.27.16.4.4.41.72.01.74-.21,1.41-.61,2.03-.23.35-.29.37-.68.25-1.62-.48-2.69-2-2.6-3.7.02-.41-.25-.72-.67-.76Z"/><path d="M27.01,306.68c.17-.03.3,0,.4.16.08.12.18.22.27.33,1.58,1.66,4.33,1.9,6.04.61.1-.08.2-.08.32-.05.4.11.79.23,1.2.29,1.08.15,2.15.16,3.21-.06.37-.08.56-.35.55-.76-.01-.34-.22-.57-.58-.63-.11-.02-.21,0-.32.01-.47.04-.94.15-1.43.11-.51.04-1.02-.07-1.53-.14-.19-.03-.26-.13-.19-.31.02-.05.03-.1.04-.14.26-1.02,0-1.91-.77-2.62-.64-.6-1.44-.87-2.31-.91-.92-.04-1.77.16-2.57.62-.51.29-.91.7-1.27,1.15-.03.04-.06.11-.13.1-.08-.02-.07-.1-.07-.16-.01-.78.16-1.5.66-2.13.41-.52.94-.89,1.52-1.18.83-.42,1.69-.66,2.63-.51.19.03.38.03.57.01.54-.05,1.09-.08,1.63-.21.85-.2,1.69-.44,2.39-1,.89-.71,1.21-2.05.75-3.09-.22-.5-.51-.97-.78-1.44-.23-.41-.39-.84-.49-1.29-.05-.21.02-.26.23-.19.13.05.26.11.39.16.24.11.48.12.72,0,.29-.14.56-.34.86-.45.38-.14.54-.43.57-.82.01-.2.04-.41.09-.61.05-.22.08-.22.27-.1.48.31.87.73,1.22,1.18.19.24.4.42.71.47.22.04.44.1.66.15.58.12.87.49.88,1.08.01.65-.11,1.28-.27,1.91-.1.4-.24.77-.18,1.22.16,1.09.17,2.2.16,3.31-.02,1.55-.18,3.09-.47,4.61-.11.61-.29,1.2-.43,1.8-.14.58.05.88.52.95.59.08,1.19.09,1.78,0,.3-.05.5-.28.54-.56.04-.29-.11-.59-.37-.73-.19-.11-.4-.13-.62-.1-.14.02-.23,0-.19-.19.18-.93.37-1.85.49-2.79.11-.89.17-1.79.19-2.69.02-1.11,0-2.23-.12-3.34-.04-.34-.07-.66.05-1.01.28-.83.4-1.69.37-2.56-.04-.85-.41-1.54-1.16-1.99-.3-.18-.61-.3-.96-.34-.28-.03-.48-.15-.66-.37-.65-.79-1.46-1.38-2.4-1.78-.43-.18-.98-.03-1.13.54-.12.45-.24.89-.32,1.35-.06.3-.36.47-.64.36-.41-.15-.81-.3-1.24-.37-.58-.1-1.06.28-1.06.87,0,1.18.32,2.27.93,3.28.21.35.44.69.58,1.09.19.53,0,1.14-.46,1.45-.36.25-.76.38-1.17.5-.81.24-1.63.36-2.46.29-.87-.07-1.7.06-2.5.37-1.07.41-2.03.98-2.75,1.91-.49.63-.78,1.34-.89,2.14-.07.56-.08,1.12.06,1.67.04.15,0,.24-.17.24-.78.02-1.6-.37-1.98-1.14-.53-1.07-.24-2.06.35-3,.42-.67,1.07-1.09,1.74-1.46.81-.45,1.31-1.12,1.37-2.07.08-1.22-.98-2.32-2.24-2.33-.92-.01-1.64.49-1.93,1.35-.12.35-.03.65.24.83.41.28.87.15,1.07-.31.08-.17.14-.34.34-.41.49-.18,1.06.21,1.08.73.02.41-.19.68-.51.89-.4.25-.81.47-1.18.76-1.04.82-1.72,1.87-1.95,3.19-.21,1.2.05,2.27.86,3.17.89,1.01,2.05,1.36,3.37,1.14ZM28.69,305.83c.27-.29.51-.61.76-.92.65-.76,1.99-1.13,2.95-.83.39.12.73.28.99.61.25.32.35.87.15,1.24-.27.51-.74.79-1.25,1.02-.38.17-.78.27-1.12.23-1.04.02-1.82-.35-2.48-1.03-.11-.11-.13-.19,0-.32Z"/><path d="M41.13,288.94c.45.21.89.44,1.33.67.6.31,1.22.5,1.9.48.79-.02,1.5-.29,2.17-.68.39-.22.81-.41,1.22-.61.1-.05.21-.06.3.02.09.07.11.18.08.29-.1.43-.18.86-.31,1.28-.26.83-.55,1.64-.83,2.46-.37,1.07-.48,2.16-.32,3.28.19,1.32.75,2.48,1.56,3.52.19.24.3.5.29.82-.02.96,0,1.92,0,2.88h0c0,1.03,0,2.06,0,3.09,0,.25-.04.29-.28.29-.34,0-.68,0-1.02,0-.43,0-.73.29-.74.71,0,.4.3.69.72.7.66,0,1.32,0,1.98,0,.5,0,.78-.26.79-.75.01-1,.01-2,.02-3,0-1.43,0-2.86,0-4.28,0-.21,0-.43-.11-.62-.18-.27-.36-.55-.56-.8-.62-.8-1.05-1.69-1.2-2.69-.14-.9-.06-1.79.25-2.64.44-1.19.81-2.41,1.14-3.64.09-.35.13-.7.07-1.07-.16-.91-1.29-1.66-2.42-1.14-.62.28-1.19.63-1.8.93-.63.31-1.28.33-1.92.06-.52-.22-1.01-.48-1.51-.74-.27-.14-.29-.26-.12-.51.5-.73,1.01-1.46,1.46-2.22.15-.26.21-.51.07-.81-.18-.36-.34-.73-.5-1.11-.21-.5-.16-.96.12-1.42.36-.59.77-1.16,1.16-1.74.61-.91,1.4-1.59,2.41-2.02.69-.29,1.4-.39,2.14-.36.68.03,1.33.2,1.98.38,1.5.41,2.86,1.1,4.13,1.98.51.36.98.77,1.45,1.18.91.8,1.75,1.66,2.54,2.58.6.71,1.14,1.46,1.68,2.22.58.82,1.08,1.69,1.54,2.57.32.6.59,1.22.85,1.85.37.87.68,1.76.95,2.67.37,1.25.63,2.53.81,3.83.09.65.16,1.3.19,1.95.05.94.04,1.88,0,2.83-.02.74-.09,1.49-.19,2.22-.09.66-.19,1.32-.35,1.97-.12.47-.22.94-.33,1.41-.07.29-.05.57.21.77.26.21.57.21.84.07.39-.21.78-.45,1.13-.72.56-.44,1.08-.92,1.56-1.45.73-.79,1.3-1.69,1.76-2.65.68-1.44,1.03-2.96.99-4.56,0-.25-.07-.44-.3-.58-.42-.27-.95-.08-1.09.41-.09.32-.03.65-.06.97-.06.66-.2,1.31-.39,1.94-.21.68-.49,1.34-.87,1.96-.47.78-1.02,1.5-1.7,2.12-.04.04-.09.12-.15.08-.06-.04-.02-.12,0-.18.1-.69.23-1.38.29-2.08.05-.54.11-1.07.13-1.61.02-.65.08-1.31.03-1.96-.05-.8-.05-1.6-.16-2.4-.08-.56-.14-1.12-.23-1.69-.1-.6-.23-1.18-.37-1.77-.09-.4-.18-.8-.3-1.2-.25-.77-.5-1.54-.8-2.29-.41-1.05-.89-2.07-1.42-3.07-.42-.8-.91-1.55-1.41-2.31-.38-.58-.81-1.13-1.24-1.68-.48-.61-1-1.18-1.53-1.74-.85-.9-1.76-1.74-2.73-2.5-.87-.69-1.83-1.25-2.83-1.72-1.22-.58-2.5-.97-3.83-1.18-1.15-.18-2.27-.06-3.37.37-1.02.4-1.91.99-2.6,1.84-.64.79-1.19,1.65-1.72,2.51-.4.66-.59,1.37-.43,2.14.09.42.29.8.47,1.19.09.2.07.35-.04.53-.4.65-.86,1.25-1.27,1.89-.49.77-.17,1.88.66,2.27Z"/></g></svg>