<?xml version="1.0" encoding="UTF-8"?><svg id="Capa_2" xmlns="http://www.w3.org/2000/svg" viewBox="0 0 118.59 123.4"><defs><style>.cls-1{fill:none;stroke:#000;stroke-linecap:round;stroke-miterlimit:10;}.cls-2{fill:#eddcd1;}</style></defs><g id="Capa_1-2"><path class="cls-1" d="M97.72,42.92s10.14-9.69,12.21-28.05c0,0,.79-1.97,1.76-.15s2.31,8.74.18,14.15l1.58-.36s.3,3.4-2.49,6.32.32-.35.32-.35h2.59s1.64,3.02-4.8,6.73l3.16.55s1.15,2.31-5.77,5.4"/><path class="cls-2" d="M37.41,27.97l.71-16.12s-1.74-10.82-14.37-10.12-15.54,6.7-15.08,11.86,5.67,35.18,5.67,35.18l.97,14.05s.39,8.44,6.64,13.4,5.15,3.61,5.15,3.61l-.77,28.74-2.51,6.06s-4.77,6.96.26,7.6,12.31.64,17.4-11.6,5.35-16.97,5.67-28.62c0,0,4.54,3.69,45.75-2.18,0,0,14.65-2.81,17.35-10.4s7.8-24.53-15.7-28.38l-32.74-.1s-12.58.94-16.11-1.97-5.43-4.84-8.27-11Z"/><path class="cls-1" d="M11.11,3.02s-5.44,2.72-6.29,5.06-1.49,3.18.58,6.29,4.21,4.8,4.21,4.8c0,0,2.14,1.75,3.11-1.43s2.33-10.11,2.33-10.11l.19-1.43s.65-5.32-4.15-3.18Z"/><path class="cls-1" d="M31.34.62s-4.54-1.1-3.24,3.37,2.72,8.95,6.29,13.55c0,0,1.94,2.59,3.5,0s3.63-8.36,3.63-8.36c0,0,1.04-2.46.26-4.41S31.34.62,31.34.62Z"/><path d="M20.25,25.47l8.29-.18s.84.55.44,1.69h0c-.26.74-.74,1.39-1.38,1.85l-1.97,1.44c-.69.51-1.63.51-2.33,0l-3.56-2.86s-.92-1.47.51-1.94Z"/><path class="cls-1" d="M12.31,32.16s-3.72,3.98-1.68,6.02,3.39-1.91,3.39-1.91c0,0-2.9,4.92.46,6.71,0,0,2.29.76,3.2-2.97,0,0-.84,4.96,1.83,4.96s3.24-5.19,3.24-5.19c0,0-.38,4.61,2.67,4.5s3.16-4.5,3.16-4.5c0,0,.76,5.22,3.32,4.54s1.26-6.67,1.26-6.67c0,0,2.17,3.39,4.04,2.63s-.57-6.9-.57-6.9c0,0,2.82,2.48,3.93,1.33s-3.13-5.72-3.13-5.72"/><circle cx="18.24" cy="18.85" r=".96"/><circle cx="29.15" cy="18.85" r=".96"/><line class="cls-1" x1="47.74" y1="73.17" x2="47.42" y2="82"/><path class="cls-1" d="M13.81,48.85l-2.17,27.71s-3.8,31.56-8,34.43-5.2,8.23,3.45,7.43c8.65-.8,11.73-8.12,11.73-8.12,0,0,4.99-9.88,7.92-30.22"/><path class="cls-1" d="M2,117.43s-.5-2.54,1.77-3.56"/><path class="cls-1" d="M23.37,121.55s-.5-2.54,1.77-3.56"/><path class="cls-1" d="M26.11,121.9s-.5-2.54,1.77-3.56"/><path class="cls-1" d="M4.96,118.34s-1.05-2.51.91-3.48"/><path class="cls-1" d="M78.55,59.55s.56,11.78,9.72,20.48,11.13,17.77,11.13,22.91-2.62,11.97-4.58,14.03-3.46,6.45,3.83,5.89,10.85-3.27,14.21-13.47c3.37-10.19,10.06-28.91-.41-55.97"/><path class="cls-1" d="M96.02,122.51s-.92-2.94.72-3.92"/><path class="cls-1" d="M99.34,122.65s-.78-2.71.58-3.55"/><path class="cls-1" d="M65.99,81.84s9.26,8.35,8.44,21.96c0,0,.26,5.57-.94,7.02s-5.01,5.65.6,7.49c5.61,1.84,10.66-3.3,10.66-3.3,0,0,4.89-6.97,4.9-23.53,0-1.46-.18-2.92-.54-4.34-.51-1.98-1.18-5.14-.83-7.13"/></g></svg>