<?xml version="1.0" encoding="UTF-8"?><svg id="Capa_2" xmlns="http://www.w3.org/2000/svg" viewBox="0 0 135.33 126.55"><defs><style>.cls-1{fill:none;stroke:#000;stroke-linecap:round;stroke-miterlimit:10;}.cls-2{fill:#d2b196;}</style></defs><g id="Capa_1-2"><path class="cls-2" d="M30.11.1s-5.05-1.02-8.73,3.48-3.68,5.59-14.12,4.77L.79,14.49s-1.36,5.93,2.8,8.73,4.36,2.05,4.36,2.05c0,0-1.7,1.64-.34,2.25s9.82,1.02,12,2.11,6.34,1.91,5.93,9.96-4.1,29.2,3.44,35.86,10.65,7.43,10.65,7.43c0,0,.67,23.52-2.66,32.73,0,0-8.32,9.28-.89,9.52s10.87-1.14,14.2-7.99,8.1-19.95,8.65-32.59c0,0,39.05,3.66,55.47-5.88s13.53-23.3,7.77-30.84-12.31-10.1-27.85-7.88-36.61,3.55-42.71-11.65c0,0-3.66-8.76-4.22-13.53S43.33,1.52,30.11.1Z"/><path d="M7.85,8.54s-3.25-4.69-5.82-1.2-2.6,6.85-.68,8.42,7.36-6.61,6.5-7.22Z"/><path class="cls-1" d="M8.06,25.73s4.86.62,9.07-2.64"/><circle cx="22.15" cy="10.9" r="1.23"/><path class="cls-1" d="M30.82,15.96s2.11,2.25,1.88,6.24.46,7.04-9.33,15.63c0,0-3.16,2.54-3.16,5.16s2.44,3.66,5.54,3.66,3.57-1.27,3.57-2.44-3-3.66-8.45,3.9,1.55,10.09,3.94,10.09,5.54-.23,4.93-3.76-8.14.4-4.77,8.75,8.66,5.05,10.14,3.52,2.7-3.26.92-4.18-3.41,2.52.46,6.13,10.4,5.03,11.62-4.19c0,0,.15-5.5-3.87-4.74,0,0-1.12.66-.76,2.24s3.26,3.47,5.91,3.62,8.21-.31,6.88-7.49-4.94-4.18-4.94-4.18c0,0-3.16,4.54,6.12,4.18s3.06-9.58,3.06-9.58c0,0-7.9-10.35-11.93-5.91,0,0-1.38,1.78,1.73,2.7,2.72.8,9.19,1.84,9.77-2.93.19-1.57-.36-3.14-1.31-4.41-.51-.69-1.19-1.42-2.03-1.97-2.14-1.39-12.14-6.82-14.43-18.61"/><path class="cls-1" d="M116.16,45.25s3.67-8.14,11.1-8.14,7.57,7.14,7.57,7.14c0,0-.5,4.5-4.43,4.5s-4.78-2.43-4.78-2.43c0,0-.5-3.28,2-3.28s2.21,2.5,2.21,2.5c0,0,.36,7.5-10.49,4.78"/><path class="cls-1" d="M25.73,69.29l-2.51,26.16-1.46,12.24s-2.04,7.61-3.68,9.54,4.26,4.04,7.32,2.62,6.76-3.75,9.61-15.69,4.76-21.98,4.76-21.98"/><path class="cls-1" d="M21.37,116.23s-.78,2.83-1.82,3.13"/><path class="cls-1" d="M24.01,117.14s-.78,2.83-1.82,3.13"/><path class="cls-1" d="M107.38,122.01s-.78,2.83-1.82,3.13"/><path class="cls-1" d="M110.02,122.92s-.78,2.83-1.82,3.13"/><path class="cls-1" d="M83.32,115.87s-.39,2.92-1.38,3.35"/><path class="cls-1" d="M86.06,116.41s-.39,2.92-1.38,3.35"/><path class="cls-1" d="M36.36,121.24s-.39,2.92-1.38,3.35"/><path class="cls-1" d="M39.45,121.31s-.39,2.92-1.38,3.35"/><path class="cls-1" d="M63.06,84.85s1.5,4.92,6.5,4.35,7.22-3.96,7.22-3.96c0,0,1.6-1.54,2.08-4.23s-3.27-4.24-4.8-1.77-.62,6.76,4.8,8.18,9.25-2.42,10.09-3.58,1.88-3.56-.15-4.32c-2.28-.85-3.84,3.53,1.32,6.05s9.37-3.63,9.37-3.63"/><path class="cls-1" d="M93.09,65.59s4.73,16.55,10.17,21.6,6.84,21.74,3.32,30.88c0,0-6.46,6.58-.26,7.74s8.31-2.05,10.48-6.2,16.38-35.12,9.46-59.69"/><path class="cls-1" d="M83.54,87.58l-.24,16.75-1.78,7.6c-.3,1.3-.73,2.58-1.36,3.76s-1.15,3.06,1.32,3.58c3.79.79,6.56,1.26,9.09-1.9s7.9-12.05,8.77-34.93"/></g></svg>