<?xml version="1.0" encoding="UTF-8"?><svg id="Capa_2" xmlns="http://www.w3.org/2000/svg" viewBox="0 0 155.31 110.39"><defs><style>.cls-1{fill:#323232;}.cls-2{fill:#ebd3d2;}.cls-3{fill:none;stroke:#000;stroke-linecap:round;stroke-miterlimit:10;}.cls-4{fill:#a39005;}.cls-5{fill:#ede7e2;}</style></defs><g id="Capa_1-2"><path class="cls-3" d="M2.51,13.64l.15-10.12s.04-3.1,2.31-3.02,6.91,7.28,6.91,7.28"/><path class="cls-3" d="M22.34,8.88s3.55-5.11,8.55-5c0,0,1.34-.45,1.31,1.6s.78,8.36-1.75,11.27"/><path class="cls-3" d="M100.23,62.49s9.09,11.73,26.36,11.18,28.57-14.02,28.21-25.69c0,0-1.55-9.65-8.82-2.38,0,0-3.46,4.29-6.91,10.72,0,0-5.12,7.86-17.04,3.93s-28.12-17.37-28.12-17.37"/><path class="cls-3" d="M57.5,74.82l11.61,12.78s3.01,4.19,3.16,5.07.73,2.94-1.91,5.07-4.92,2.94-4.92,2.94c0,0-5.66,2.86.59,5.73s12.93-2.35,12.93-2.35c0,0,5.88-5.51,8.15-17.26"/><path class="cls-1" d="M20.95,77.74l.08,21.56,9.02.39,5.49-20.02s18.03-2.88,21.16-2.88,16.83,6.25,16.83,6.25l21,9.78s2.88.88.48,6.49l9.78.16-2.24-37.42s1.92-10.74-2.32-14.66-13.54-11.62-25.48-12.82-20.35-4.97-27.97-4.41-9.94.24-9.94.24c0,0-4.65-1.12-4.97-5.21s2.88-9.94-5.21-15.07S11.09,5.62,6.04,7.54.84,20.61,1.16,27.02-.1,57.71,11.17,69.57c8.63,9.08,9.78,8.17,9.78,8.17Z"/><path class="cls-5" d="M18.39,13.38s-.51-1.31-.92-1.29c0,0-.53-.21-1.25,1.5S.43,43.27.43,43.27c0,0-2.11,3.65,2.98,1.73,0,0-3.65,6.05-2.21,6.53s3.36,1.06,6.05,0c0,0-1.73,10.18,1.44,10.56,0,0,1.59.02,2.3-1.72,0,0,1.07,11.36,6.7,11.86s6.09-10.65,6.09-10.65c0,0,4.03.96,4.92,0s.28-8.51-.78-9.8c0,0,2.14,2.71,5.52,1.53,0,0,1.67-1.71-1.39-8.51,0,0,1.82.96,4.45.61,0,0,.63-1.38-.65-2.65s-13.29-14.47-14.88-20.32-2.58-9.06-2.58-9.06Z"/><path class="cls-3" d="M16.56,73.74l.57,24.55-4.13,6.55s-2.1,1.78.32,2.61,4.77,1.65,4.77,1.65"/><path class="cls-3" d="M14.17,20.94s.24.8,1.24.82,1.15-1.33,1.15-1.33c0,0,.07,1.37,1,1.37s1.11-1.13,1.11-1.13"/><path class="cls-2" d="M15.24,17.42h2.87c.45,0,.72.51.47.88l-1.54,2.26c-.23.34-.74.32-.95-.03l-1.33-2.26c-.22-.38.05-.85.49-.85Z"/><path class="cls-5" d="M30.14,99.3s-8.65-1.81-9.08-.47c-1.33,4.07-8.29,8.39-2.23,10.83,4.18,1.69,8.51-.88,9.11-2.51.78-2.11,2.2-7.85,2.2-7.85Z"/><path class="cls-5" d="M94.2,101.34s-5.56,4.8-3.6,6.95,7.02,2.66,9.17,1.45c1.16-.65,2.44-1.38,3.38-1.93.85-.49,1.38-1.38,1.41-2.36l.21-6.01-9.78-.16-.8,2.04Z"/><path class="cls-4" d="M9.01,12.77s.81-.56,2.55-.56c0,0,.7-.15,2.34.75,0,0-.63,1.15-2.37,1.07s-2.52-1.26-2.52-1.26Z"/><path class="cls-4" d="M20.91,13.66s.85-.49,2.59-.34c0,0,.71-.09,2.26.95,0,0-.73,1.09-2.45.86s-2.4-1.47-2.4-1.47Z"/><polygon class="cls-1" points="11.54 12.29 10.99 14.07 11.25 14.21 12.15 14.18 11.54 12.29"/><polygon class="cls-1" points="23.47 13.37 22.92 15.15 23.17 15.29 24.08 15.26 23.47 13.37"/></g></svg>