<svg width="287" height="216" viewBox="0 0 287 216" fill="none" xmlns="http://www.w3.org/2000/svg">
<path fill-rule="evenodd" clip-rule="evenodd" d="M121.585 53.3884C123.458 54.2814 125.303 55.2209 127.144 56.179C129.628 57.4766 132.242 58.2673 135.066 58.1928C138.346 58.1091 141.301 56.9836 144.124 55.3744C145.291 54.7096 146.506 54.1272 147.721 53.5452L147.722 53.5449C148.216 53.3085 148.709 53.0721 149.199 52.8303C149.623 52.621 150.07 52.6024 150.457 52.9094C150.844 53.221 150.904 53.6721 150.802 54.1233C150.689 54.6103 150.582 55.0994 150.475 55.5885C150.19 56.893 149.905 58.1974 149.502 59.4626C148.65 62.1429 147.728 64.8035 146.805 67.4641C146.546 68.2105 146.288 68.957 146.03 69.704C144.502 74.1456 144.013 78.6896 144.698 83.3359C145.504 88.8148 147.81 93.6518 151.203 98.0004C151.986 99.005 152.438 100.061 152.414 101.41C152.357 104.274 152.368 107.141 152.378 110.007V110.009V110.009V110.01V110.01V110.011V110.011V110.012V110.012C152.382 111.137 152.386 112.262 152.386 113.386H152.377C152.377 114.812 152.378 116.24 152.378 117.667V117.668V117.668V117.669V117.669V117.67V117.67C152.379 120.527 152.38 123.385 152.377 126.241C152.377 127.274 152.214 127.432 151.189 127.441C150.478 127.448 149.766 127.448 149.055 127.448C148.343 127.448 147.631 127.448 146.92 127.455C145.117 127.469 143.873 128.678 143.849 130.427C143.831 132.097 145.089 133.315 146.874 133.32C149.628 133.329 152.386 133.334 155.14 133.32C157.223 133.306 158.388 132.241 158.416 130.18C158.466 126.749 158.472 123.314 158.477 119.881L158.479 118.618L158.481 117.674C158.488 113.718 158.486 109.762 158.483 105.807V105.786V105.785V105.784V105.783V105.782V105.781V105.78C158.482 103.802 158.481 101.824 158.481 99.8469L158.482 99.6952C158.483 98.8548 158.485 97.9982 158.006 97.2656C157.26 96.1261 156.501 94.9959 155.672 93.9169C153.095 90.5775 151.305 86.8753 150.658 82.6988C150.075 78.9594 150.392 75.2572 151.701 71.6946C153.523 66.7227 155.094 61.6718 156.45 56.5557C156.836 55.1 157.014 53.6582 156.739 52.1047C156.077 48.3235 151.37 45.2074 146.664 47.3561C145.208 48.0205 143.805 48.7762 142.403 49.5315L142.403 49.5315C141.331 50.1085 140.26 50.6853 139.166 51.2211C136.524 52.514 133.831 52.5884 131.17 51.4676C129.213 50.6433 127.322 49.6615 125.437 48.6828L125.434 48.681L125.237 48.5792L124.87 48.3886C123.733 47.8026 123.663 47.3235 124.376 46.2771C124.701 45.8008 125.027 45.3253 125.354 44.8497C127.118 42.2784 128.882 39.7063 130.471 37.0217C131.1 35.9519 131.338 34.8822 130.751 33.6637C130.019 32.1475 129.325 30.6126 128.668 29.0592C127.782 26.9663 127.983 25.0687 129.162 23.1525C130.189 21.4816 131.296 19.8618 132.402 18.2426L132.403 18.2422C132.931 17.4683 133.46 16.6946 133.98 15.9156C136.515 12.1111 139.828 9.28332 144.05 7.52061C146.911 6.32531 149.898 5.89742 152.992 6.02765C155.83 6.14857 158.537 6.86947 161.254 7.61828C167.494 9.33448 173.179 12.1902 178.467 15.8598C180.445 17.2284 182.256 18.8108 184.064 20.3914L184.068 20.3948C184.219 20.5266 184.37 20.6582 184.521 20.7898C188.314 24.1013 191.837 27.6825 195.094 31.5149C197.601 34.4636 199.861 37.6077 202.093 40.775C204.497 44.1934 206.576 47.8072 208.519 51.4862C209.838 53.9837 210.979 56.579 212.079 59.1975C213.607 62.8345 214.917 66.532 216.026 70.304C217.559 75.5223 218.668 80.8337 219.418 86.2288C219.796 88.9264 220.066 91.6379 220.22 94.3355C220.439 98.2469 220.383 102.177 220.252 106.098C220.15 109.191 219.87 112.284 219.442 115.358C219.059 118.107 218.659 120.855 217.964 123.553C217.598 124.985 217.272 126.424 216.945 127.866L216.945 127.866L216.945 127.867L216.945 127.867L216.945 127.868L216.945 127.868L216.945 127.869L216.944 127.869L216.942 127.881C216.825 128.396 216.708 128.912 216.59 129.427C216.305 130.655 216.403 131.794 217.466 132.65C218.57 133.534 219.842 133.534 220.984 132.92C222.62 132.041 224.236 131.064 225.7 129.925C228.025 128.106 230.182 126.097 232.2 123.911C235.243 120.604 237.62 116.888 239.521 112.87C242.359 106.879 243.822 100.558 243.631 93.8936C243.603 92.8332 243.328 92.0798 242.373 91.4612C240.63 90.3356 238.43 91.1403 237.839 93.1634C237.595 93.9983 237.606 94.8369 237.616 95.6745V95.6746V95.6747V95.6748V95.675V95.6751V95.6752V95.6753C237.622 96.1859 237.629 96.6962 237.578 97.2051C237.307 99.9538 236.753 102.647 235.947 105.27C235.066 108.121 233.882 110.86 232.326 113.432C230.355 116.688 228.062 119.674 225.257 122.255L225.246 122.266L225.23 122.281L225.217 122.295L225.208 122.304L225.194 122.32C225.174 122.341 225.155 122.363 225.135 122.386L225.135 122.386C224.991 122.552 224.835 122.731 224.614 122.59C224.42 122.467 224.482 122.246 224.54 122.039C224.559 121.972 224.577 121.906 224.586 121.846C224.691 121.139 224.801 120.433 224.911 119.727L224.912 119.723C225.25 117.555 225.588 115.386 225.788 113.19C225.84 112.615 225.896 112.04 225.952 111.464V111.464L225.953 111.464C226.115 109.806 226.277 108.148 226.329 106.484C226.351 105.749 226.385 105.014 226.419 104.28C226.511 102.298 226.602 100.317 226.473 98.3353C226.401 97.2335 226.354 96.1297 226.307 95.0256C226.212 92.7971 226.117 90.5671 225.812 88.3497C225.711 87.6209 225.616 86.8917 225.52 86.1626L225.52 86.162L225.52 86.1613L225.52 86.1607L225.52 86.1601L225.52 86.1595L225.52 86.1589L225.519 86.1583C225.308 84.5483 225.097 82.9388 224.838 81.336C224.491 79.1925 224.012 77.0767 223.533 74.9617L223.533 74.9611L223.448 74.5824C223.401 74.3779 223.355 74.1734 223.309 73.9689L223.236 73.6448L223.236 73.6445C222.883 72.082 222.53 70.5148 222.042 68.9924C221.007 65.7879 219.949 62.5973 218.724 59.4533C217.009 55.0674 215.001 50.8304 212.783 46.6817C211.012 43.3702 208.999 40.2076 206.921 37.0821C205.313 34.6636 203.547 32.3707 201.757 30.1057C199.763 27.5849 197.596 25.1989 195.387 22.8502C191.846 19.0969 188.067 15.6179 184.022 12.4274C180.387 9.56238 176.389 7.2462 172.205 5.26489C167.116 2.85569 161.781 1.22785 156.217 0.344172C151.403 -0.423237 146.734 0.0976708 142.181 1.86504C137.917 3.51613 134.227 5.99974 131.356 9.52517C128.682 12.8041 126.394 16.3714 124.176 19.9759C122.489 22.7153 121.729 25.6594 122.391 28.8825C122.703 30.3927 123.359 31.7724 124.014 33.1486L124.014 33.1491L124.014 33.1496L124.014 33.1501L124.015 33.1507L124.015 33.1512C124.122 33.3762 124.229 33.6011 124.334 33.8265C124.716 34.645 124.637 35.2822 124.162 36.045C123.256 37.4998 122.281 38.907 121.306 40.3144L121.306 40.3144L121.306 40.3145L121.306 40.3145L121.306 40.3146L121.306 40.3146L121.306 40.3147L121.306 40.3148C120.479 41.5078 119.653 42.7011 118.868 43.9237C116.813 47.1282 118.169 51.7559 121.608 53.3931L121.585 53.3884ZM145.76 16.3853C145.97 14.7156 147.256 13.6738 148.808 13.8227H148.803C150.55 13.9901 151.687 15.2738 151.599 16.9853C151.235 24.0315 155.699 30.3615 162.452 32.3754C164.11 32.8684 164.353 32.78 165.303 31.3335C166.99 28.7755 167.908 25.9896 167.848 22.9013C167.82 21.5712 167.256 20.5526 166.133 19.8875C163.547 18.3573 161.422 16.3388 159.637 13.9389C158.551 12.4739 158.491 11.0181 159.493 9.88795C160.802 8.41359 162.731 8.38103 164.073 9.84144C164.43 10.2278 164.747 10.6522 165.064 11.0773L165.064 11.0782L165.065 11.0788L165.065 11.0792L165.065 11.0794L165.065 11.0796L165.065 11.0797L165.065 11.0798C165.19 11.2475 165.316 11.4153 165.443 11.5809C166.437 12.8617 167.741 13.7608 169.048 14.6623L169.048 14.6624C169.321 14.851 169.595 15.0396 169.865 15.2319C171.566 16.4412 172.815 18.0178 173.412 20.0689L173.446 20.1859L173.446 20.186C173.738 21.1736 174.026 22.1479 173.882 23.2083C173.71 28.0732 172.228 32.4916 169.083 36.2589C167.163 38.5518 164.348 39.0867 161.571 38.3797C157.559 37.3565 154.152 35.2729 151.333 32.3009C149.264 30.115 147.731 27.5477 146.762 24.6734C145.853 21.9804 145.406 19.2224 145.76 16.3853ZM180.566 127.446C182.083 127.447 183.6 127.448 185.117 127.436L185.108 127.432C185.178 127.432 185.254 127.439 185.331 127.446C185.619 127.473 185.93 127.502 186.058 127.176C186.173 126.883 185.926 126.646 185.712 126.442L185.712 126.442C185.692 126.423 185.673 126.404 185.654 126.386L185.625 126.357C183.523 124.274 181.99 121.799 180.611 119.209C178.3 114.865 177.405 110.284 178.714 105.493C180.005 100.782 183.011 97.4098 187.377 95.1494C190.471 93.5495 193.747 93.2611 197.06 93.6425C199.236 93.8936 201.347 94.6703 203.253 95.9121C206.357 97.9307 208.556 100.647 209.917 104.061C210.611 105.809 210.881 107.656 210.979 109.521C211.072 111.316 209.838 112.674 208.085 112.814C206.538 112.939 205.206 111.777 205.057 109.991C204.852 107.512 204.213 105.233 202.573 103.293C200.662 101.038 198.249 99.7027 195.304 99.5027C190.728 99.1911 186.59 101.819 184.884 106.033C183.887 108.498 183.947 111.014 184.73 113.507C186.212 118.227 189.25 121.883 192.871 125.12C194.064 126.185 195.271 127.227 196.59 128.139C197.424 128.715 197.755 130.213 197.382 131.311C196.939 132.622 196.072 133.32 194.772 133.32C191.315 133.327 187.854 133.326 184.393 133.325H184.393H184.393H184.393H184.392H184.392H184.392H184.392H184.391H184.391H184.391H184.391H184.39H184.39H184.39H184.39H184.39H184.389H184.389H184.389H184.389H184.388H184.388H184.388H184.388H184.388H184.387H184.387H184.387C183.232 133.325 182.078 133.324 180.923 133.324C180.193 133.324 179.462 133.328 178.732 133.331C177.063 133.337 175.394 133.344 173.728 133.315C171.548 133.273 170.322 131.613 170.863 129.525C171.166 128.362 172.335 127.474 173.649 127.46C174.996 127.447 176.346 127.45 177.695 127.452H177.695H177.696H177.696H177.697H177.697H177.698H177.698H177.699C178.275 127.454 178.851 127.455 179.427 127.455V127.446C179.807 127.446 180.187 127.446 180.566 127.446ZM185.122 177.118C185.718 178.36 186.156 179.695 186.492 181.048V181.043C186.669 181.76 186.394 182.201 185.765 182.453C184.278 183.039 182.731 182.894 181.203 182.722C180.499 182.643 180.117 182.015 179.884 181.392C179.357 179.98 178.627 178.676 177.895 177.366L177.895 177.366L177.893 177.363L177.751 177.108L177.624 176.881C177.209 176.137 176.673 175.816 175.839 175.853C174.748 175.9 173.655 175.899 172.561 175.898C170.873 175.896 169.184 175.894 167.498 176.071C166.88 176.136 166.264 176.064 165.646 175.992L165.646 175.992C165.142 175.934 164.638 175.875 164.129 175.89C163.309 175.913 162.885 176.234 162.666 177.006C162.352 178.127 161.901 179.199 161.451 180.271C161.374 180.454 161.298 180.637 161.221 180.82C160.648 182.201 159.744 182.997 158.169 182.862C157.886 182.837 157.604 182.844 157.321 182.851C157.189 182.854 157.057 182.857 156.925 182.857V182.843C156.728 182.843 156.53 182.846 156.333 182.848C155.939 182.854 155.544 182.859 155.15 182.843C154.222 182.811 153.961 182.485 154.05 181.546C154.134 180.657 154.306 179.788 154.679 178.974C155.449 177.302 156.042 175.563 156.634 173.824C156.966 172.85 157.298 171.876 157.661 170.914C158.251 169.35 158.759 167.756 159.266 166.161C159.744 164.659 160.222 163.157 160.769 161.681C161.346 160.128 161.882 158.562 162.418 156.995L162.418 156.994L162.418 156.994L162.418 156.993L162.419 156.992L162.419 156.991L162.419 156.991L162.419 156.99L162.419 156.989L162.42 156.989L162.42 156.988L162.42 156.987L162.42 156.987L162.421 156.986L162.421 156.985L162.421 156.985L162.421 156.984L162.422 156.983L162.422 156.983L162.422 156.982L162.422 156.981L162.422 156.98L162.423 156.98L162.423 156.979L162.423 156.978L162.423 156.978L162.424 156.977L162.424 156.976L162.424 156.976L162.424 156.975L162.424 156.974L162.425 156.974L162.425 156.973C162.888 155.619 163.351 154.265 163.84 152.919C164.114 152.163 164.376 151.403 164.637 150.642L164.637 150.642L164.638 150.641L164.638 150.641L164.638 150.641L164.638 150.64L164.638 150.64L164.638 150.639L164.638 150.639L164.639 150.639L164.639 150.638L164.639 150.638L164.639 150.638L164.639 150.637L164.639 150.637L164.639 150.637L164.639 150.636L164.64 150.636L164.64 150.635L164.64 150.635L164.64 150.635L164.64 150.634L164.64 150.634L164.64 150.634L164.641 150.633L164.641 150.633L164.641 150.633L164.641 150.632L164.641 150.632L164.641 150.631L164.641 150.631L164.642 150.631L164.642 150.63L164.642 150.63C165.224 148.936 165.806 147.242 166.529 145.598C167.009 144.51 167.722 143.845 168.924 143.812C169.143 143.806 169.362 143.788 169.581 143.769C170.037 143.73 170.494 143.69 170.96 143.766C171.878 143.919 172.428 144.426 172.741 145.287C173.703 147.963 174.81 150.581 175.919 153.201L175.919 153.201L175.919 153.202L175.919 153.202L175.919 153.202L175.919 153.202L175.919 153.202L175.919 153.202L175.919 153.203L175.919 153.203L175.92 153.203L175.92 153.203L175.92 153.203L175.92 153.204L175.92 153.204L175.92 153.204L175.92 153.204L175.92 153.204L175.92 153.204L175.92 153.205L175.92 153.205L175.921 153.205L175.921 153.205L175.921 153.205L175.921 153.206L175.921 153.206L175.921 153.206L175.921 153.206L175.921 153.206L175.921 153.206L175.921 153.207L175.921 153.207L175.922 153.208L176.217 153.905C176.375 154.286 176.52 154.677 176.618 155.077C176.988 156.613 177.589 158.061 178.191 159.509L178.191 159.51L178.191 159.51L178.191 159.511L178.191 159.511L178.191 159.511L178.191 159.512L178.192 159.512L178.192 159.512L178.192 159.513L178.192 159.513L178.192 159.514L178.192 159.514L178.192 159.514L178.193 159.515L178.193 159.515L178.193 159.515L178.193 159.516L178.193 159.516L178.193 159.516L178.193 159.517L178.193 159.517L178.194 159.518L178.194 159.518L178.194 159.518L178.194 159.519L178.194 159.519L178.194 159.519L178.194 159.52L178.195 159.52L178.195 159.52L178.195 159.521L178.195 159.521C178.554 160.385 178.913 161.249 179.222 162.133C179.807 163.792 180.429 165.438 181.051 167.083L181.051 167.084L181.051 167.084L181.051 167.084L181.051 167.084L181.051 167.084L181.051 167.085L181.051 167.085L181.051 167.085L181.051 167.085L181.051 167.085L181.051 167.085L181.051 167.086L181.051 167.086L181.051 167.086L181.051 167.086L181.051 167.086L181.051 167.087L181.051 167.087L181.051 167.087L181.051 167.087L181.052 167.087L181.052 167.088L181.052 167.088L181.052 167.088L181.052 167.088L181.052 167.088L181.052 167.088L181.052 167.089L181.052 167.089L181.052 167.089L181.052 167.089L181.052 167.089C181.316 167.789 181.58 168.488 181.841 169.188C181.849 169.209 181.856 169.232 181.863 169.255L181.863 169.255C181.883 169.316 181.904 169.38 181.934 169.435C182.707 170.8 183.237 172.267 183.768 173.735L183.768 173.735C184.181 174.878 184.594 176.021 185.122 177.118ZM171.318 169.179C172.252 169.184 173.185 169.189 174.12 169.169C175.103 169.151 175.136 169.021 174.819 168.132C174.428 167.028 173.975 165.952 173.522 164.875L173.521 164.875C173.358 164.487 173.195 164.099 173.034 163.709C172.214 161.719 171.375 159.737 170.248 157.896C170.218 157.849 170.191 157.797 170.163 157.745C170.051 157.533 169.932 157.31 169.637 157.333C169.43 157.347 169.363 157.522 169.297 157.695C169.275 157.751 169.253 157.808 169.227 157.858C169.043 158.207 168.961 158.591 168.879 158.973C168.806 159.315 168.734 159.655 168.589 159.965C167.756 161.76 167.074 163.615 166.393 165.47C166.068 166.355 165.743 167.24 165.401 168.118C165.033 169.062 165.089 169.169 166.142 169.174C167.009 169.177 167.876 169.176 168.742 169.175C169.176 169.175 169.609 169.174 170.042 169.174C170.468 169.174 170.893 169.176 171.318 169.179ZM175.856 201.623C175.961 201.56 176.069 201.495 176.184 201.442V201.447C178.733 200.28 181.235 201.624 181.818 203.852C182.312 205.749 182.466 207.656 181.711 209.503C180.751 211.856 178.3 212.721 176.058 211.591C175.196 211.158 175.136 211.186 175.122 212.13C175.114 212.655 175.113 213.181 175.113 213.707C175.112 214.128 175.112 214.548 175.108 214.967C175.103 215.586 174.847 215.977 174.166 216.005C173.477 216.033 173.295 215.591 173.281 215.042C173.265 214.369 173.269 213.696 173.273 213.023C173.275 212.724 173.276 212.425 173.276 212.126C173.295 210.622 173.263 209.119 173.232 207.616L173.231 207.614C173.199 206.076 173.167 204.538 173.188 203.001L173.189 202.935C173.193 202.631 173.197 202.324 173.258 202.029C173.393 201.368 174.199 200.959 174.581 201.442C175.092 202.082 175.45 201.867 175.856 201.623ZM175.592 209.791C176.809 210.958 179.059 210.716 179.782 209.205H179.777C180.62 207.452 180.583 205.596 179.777 203.824C179.339 202.856 177.955 202.373 176.869 202.661C175.686 202.982 175.131 203.708 175.126 204.968V206.559V208.238C175.126 208.8 175.131 209.349 175.592 209.791ZM158.943 197.703C158.989 197.126 158.808 196.736 158.118 196.712C157.414 196.689 157.167 197.019 157.172 197.675C157.181 198.829 157.172 199.982 157.158 201.136C157.153 201.759 157 202.042 156.315 201.629C154.143 200.326 151.687 201.122 150.564 203.382C150.035 204.446 150.002 205.568 149.969 206.685C149.966 206.798 149.962 206.911 149.959 207.024C149.884 209.377 151.263 211.358 153.267 211.944C154.376 212.27 155.359 211.879 156.333 211.409C156.393 211.381 156.454 211.339 156.517 211.295C156.73 211.149 156.959 210.992 157.167 211.326C157.517 211.884 158.015 211.842 158.495 211.693C158.971 211.547 158.954 211.131 158.939 210.749C158.936 210.682 158.933 210.617 158.933 210.554C158.943 209.046 158.941 207.537 158.94 206.093V206.092V206.092V206.091V206.09V206.089C158.939 205.525 158.938 204.972 158.938 204.433C158.964 203.435 158.936 202.469 158.909 201.52C158.872 200.224 158.836 198.961 158.938 197.698L158.943 197.703ZM157.163 207.768C157.149 209.312 156.426 210.205 155.005 210.442C153.705 210.661 152.358 209.87 152.014 208.507C151.664 207.121 151.645 205.689 152.139 204.312C152.507 203.284 153.244 202.647 154.357 202.508C155.462 202.373 156.207 202.973 156.855 203.754C157.097 204.042 157.153 204.391 157.158 204.754C157.161 205.126 157.16 205.498 157.159 205.869V205.872V205.879V205.88C157.159 206.066 157.158 206.252 157.158 206.438H157.163V207.768ZM153.26 153.893C153.264 154.1 153.267 154.307 153.267 154.514H153.244C153.239 156.263 152.68 156.947 150.909 157.082C149.953 157.152 148.99 157.139 148.028 157.125C147.598 157.119 147.168 157.113 146.739 157.114C146.62 157.115 146.501 157.115 146.383 157.115C146.087 157.115 145.791 157.114 145.494 157.137C144.311 157.226 143.812 157.7 143.845 158.891C143.882 160.28 143.873 161.667 143.863 163.054C143.847 165.5 143.831 167.946 144.068 170.397C144.264 172.369 144.269 174.397 144.068 176.411C144.001 177.116 144.049 177.832 144.098 178.549C144.13 179.014 144.162 179.481 144.162 179.946C144.166 182.071 143.812 182.429 141.687 182.69C140.713 182.811 139.749 182.885 138.775 182.676C138.099 182.532 137.68 182.169 137.475 181.499C137.293 180.895 137.237 180.285 137.237 179.662V169.732H137.232C137.232 168.601 137.234 167.47 137.236 166.338V166.337V166.329C137.239 164.066 137.242 161.802 137.232 159.537C137.228 157.951 136.934 157.7 135.41 157.342C134.539 157.138 133.658 157.118 132.777 157.098C132.032 157.082 131.288 157.065 130.55 156.937C128.565 156.593 128.183 156.198 128.174 154.147L128.173 154.022C128.168 153.12 128.163 152.223 128.528 151.356C128.84 150.621 129.353 150.198 130.15 150.198C130.717 150.196 131.285 150.187 131.853 150.179H131.853H131.853H131.853H131.854H131.854H131.854H131.854C133.655 150.151 135.456 150.124 137.251 150.301C137.831 150.356 138.406 150.318 138.981 150.28C139.465 150.249 139.949 150.217 140.438 150.24C142.462 150.331 144.486 150.377 146.51 150.422C147.883 150.453 149.256 150.483 150.63 150.528C152.61 150.594 153.258 151.305 153.253 153.272C153.253 153.479 153.257 153.686 153.26 153.893ZM168.314 201.54C166.636 200.717 164.982 200.782 163.425 201.815C161.193 203.294 160.532 207.177 162.055 209.675C163.281 211.679 165.336 212.521 167.438 211.879C169.74 211.172 170.891 209.382 170.877 206.507C170.877 206.404 170.88 206.3 170.883 206.196C170.89 205.973 170.897 205.75 170.872 205.531C170.667 203.796 169.982 202.354 168.323 201.545L168.314 201.54ZM168.444 209.196C167.13 211.093 164.544 210.944 163.575 208.851C162.852 207.298 162.88 205.67 163.64 204.135C164.665 202.056 167.121 201.959 168.449 203.875C169.022 204.703 169.124 205.624 169.083 206.619C169.157 207.521 169.003 208.391 168.449 209.196H168.444ZM197.181 202.191C197.181 201.517 196.939 201.136 196.198 201.136C195.448 201.136 195.234 201.545 195.234 202.205C195.243 205.066 195.243 207.926 195.234 210.786C195.234 211.423 195.462 211.777 196.161 211.786C196.883 211.796 197.181 211.479 197.172 210.777C197.163 209.814 197.166 208.851 197.169 207.888V207.884L197.171 207.228C197.172 206.964 197.172 206.701 197.172 206.438C197.172 205.965 197.172 205.492 197.171 205.02V205.019V205.019V205.018V205.018V205.017C197.17 204.074 197.169 203.131 197.172 202.187L197.181 202.191ZM195.248 198.359C195.248 197.759 195.574 197.419 196.175 197.405H196.18C196.795 197.391 197.228 197.689 197.251 198.326C197.275 198.964 196.869 199.275 196.277 199.331C195.611 199.317 195.248 199.01 195.248 198.359ZM147.554 206.633C147.591 205.773 147.521 204.833 147.391 203.894C147.256 202.921 146.776 202.187 145.965 201.652C144.143 200.443 140.979 201.038 139.739 202.828C139.483 203.201 139.176 203.647 139.684 203.987C140.122 204.275 140.657 204.238 141.068 203.824C141.153 203.736 141.221 203.631 141.289 203.525C141.351 203.43 141.412 203.335 141.487 203.252C142.577 202.019 144.884 202.349 145.522 203.824C145.988 204.903 145.69 205.386 144.516 205.382C143.23 205.377 141.976 205.503 140.802 206.079C139.353 206.796 138.696 208.484 139.292 209.986C140.075 211.958 142.736 212.642 144.809 211.377L144.849 211.353C145.274 211.091 145.567 210.911 145.956 211.498C146.265 211.968 146.859 211.821 147.346 211.701L147.358 211.698C147.671 211.623 147.712 211.326 147.652 211.042C147.449 210.094 147.49 209.141 147.531 208.163C147.553 207.659 147.574 207.149 147.563 206.628L147.554 206.633ZM145.383 209.247C144.735 210.01 143.924 210.428 143.011 210.358C141.701 210.358 140.988 209.814 140.886 208.833C140.793 207.907 141.548 207.028 142.633 206.838C143.127 206.754 143.626 206.679 144.124 206.67C144.234 206.668 144.35 206.656 144.469 206.645L144.469 206.644C144.931 206.598 145.421 206.548 145.625 207.07C145.9 207.782 145.942 208.582 145.383 209.242V209.247ZM188.598 202.559C189.828 202.438 190.625 202.931 191.263 204.28C191.585 204.963 192.149 204.968 192.685 204.754C193.247 204.533 193.043 204.039 192.872 203.624L192.866 203.61C191.743 200.852 188.104 200.075 185.797 202.112C184.502 203.261 184.087 204.759 184.208 206.549C184.106 207.647 184.274 208.8 184.893 209.865C185.83 211.465 187.317 212.154 189.073 212.061C190.686 211.977 192.009 211.191 192.778 209.679L192.798 209.64C192.939 209.365 193.097 209.056 192.862 208.768C192.667 208.526 192.38 208.549 192.103 208.571C192.049 208.575 191.996 208.579 191.944 208.582C191.538 208.596 191.315 208.851 191.142 209.186C190.616 210.21 189.73 210.586 188.635 210.489C187.503 210.391 186.692 209.81 186.301 208.721C185.844 207.461 185.839 206.149 186.124 204.875C186.445 203.433 187.326 202.689 188.593 202.563L188.598 202.559ZM84.7952 208.982C84.8092 210.154 84.9956 210.344 86.1606 210.47L86.1699 210.475C86.4681 210.507 86.6918 210.582 86.7384 210.907C86.7943 211.316 86.7011 211.656 86.2957 211.875C85.4756 212.316 83.9984 211.884 83.4672 211.037C83.0711 210.41 82.9872 209.717 82.9872 208.996V206.517H83.0105C83.0105 206.215 83.0092 205.914 83.008 205.612C83.0051 204.909 83.0021 204.206 83.0152 203.503C83.0245 202.838 82.7449 202.517 82.0646 202.535C81.6079 202.545 81.1279 202.522 81.114 201.889C81.1 201.229 81.5706 201.229 82.0413 201.266C82.7309 201.322 83.0152 200.973 83.0058 200.317C83.0033 200.203 83.0079 200.088 83.0125 199.973V199.973V199.972L83.0153 199.9L83.0175 199.837C83.0189 199.79 83.0198 199.744 83.0198 199.698C83.0058 199.098 83.1503 198.661 83.8912 198.652C84.688 198.643 84.8185 199.117 84.7999 199.75C84.7972 199.867 84.8007 199.985 84.8041 200.104V200.104V200.104V200.104C84.8066 200.193 84.8092 200.281 84.8092 200.368C84.7999 200.936 85.0189 201.27 85.648 201.233C85.8204 201.224 86.0021 201.256 86.1699 201.308C86.524 201.41 86.7058 201.666 86.6778 202.038C86.6498 202.41 86.3563 202.48 86.0487 202.535C85.2131 202.684 84.7952 203.179 84.7952 204.019C84.7952 204.569 84.7932 205.119 84.7911 205.669L84.7911 205.674C84.7869 206.776 84.7828 207.878 84.7952 208.982ZM66.9853 201.661C65.3404 200.694 63.4345 200.787 61.9154 202.019C60.1493 203.447 59.7346 205.466 59.9722 207.549C60.4895 212.037 64.8744 212.898 67.5072 211.261C67.553 211.232 67.6016 211.203 67.6518 211.172C68.1488 210.872 68.8022 210.478 68.3832 209.777C67.9448 209.049 67.4849 209.429 67.0632 209.777C66.965 209.858 66.8689 209.937 66.7756 210C64.8977 211.275 62.2882 210.196 61.8595 207.963C61.7383 207.326 61.9154 206.991 62.6004 206.996C63.1936 206.999 63.7847 206.998 64.3765 206.997L64.6504 206.996C64.8554 206.996 65.0605 206.996 65.2658 206.996V206.982H68.1083C68.579 206.982 68.8819 206.8 68.9564 206.279C69.1754 204.768 68.1596 202.354 66.9806 201.661H66.9853ZM66.2956 205.54H64.5202V205.531C64.3026 205.531 64.0855 205.532 63.8685 205.534H63.868H63.8675H63.867H63.8665H63.866H63.8655H63.8649H63.8644H63.8639H63.8634H63.8629H63.8624H63.8619H63.8613H63.8608H63.8603H63.8598H63.8593H63.8588H63.8582C63.4283 205.537 62.9991 205.54 62.5678 205.531C62.0831 205.517 61.8874 205.275 61.9853 204.773C62.2136 203.596 63.2854 202.596 64.4131 202.54C65.7784 202.47 66.6638 203.159 67.0505 204.535C67.2462 205.233 67.0039 205.549 66.291 205.549L66.2956 205.54ZM124.823 210.81C122.507 208.582 122.75 203.894 125.28 201.912H125.275C127.754 199.973 131.394 201.27 132.046 204.349C132.172 204.926 132.218 205.521 132.26 206.107C132.302 206.689 132.004 206.986 131.412 206.986C130.494 206.982 129.576 206.986 128.658 206.991C128.403 206.991 128.148 206.989 127.893 206.988C127.319 206.984 126.744 206.98 126.17 206.996C125.257 207.019 125.024 207.349 125.229 208.242C125.751 210.493 128.64 211.284 130.522 209.656C130.988 209.251 131.314 209.2 131.692 209.679C132.038 210.115 131.75 210.425 131.474 210.722L131.445 210.754C129.884 212.456 126.561 212.484 124.823 210.81ZM128.39 205.534C128.84 205.538 129.291 205.542 129.739 205.526C130.261 205.507 130.452 205.224 130.35 204.694C130.098 203.363 129.208 202.549 127.941 202.531C126.617 202.512 125.546 203.387 125.271 204.67C125.145 205.252 125.369 205.517 125.932 205.531C126.346 205.537 126.759 205.535 127.172 205.533C127.378 205.532 127.585 205.531 127.792 205.531C127.991 205.531 128.19 205.532 128.39 205.534ZM53.2574 198.857C54.7346 199.001 55.6945 199.824 56.0673 201.284C56.1092 201.456 56.1605 201.633 56.2583 201.777C56.6125 202.294 57.1437 202.21 57.6237 202.089C58.1408 201.963 58.0331 201.552 57.9369 201.185L57.9265 201.145C57.6936 200.247 57.3254 199.396 56.6591 198.74C53.9517 196.052 48.742 197.364 47.6096 201.005C46.934 203.177 46.934 205.387 47.372 207.577C47.8986 210.228 50.0281 212.102 52.6143 212.028C55.3869 211.949 56.9806 211.061 57.8334 208.475C58.1549 207.507 57.9126 207.233 56.9014 207.326C56.3469 207.377 56.1605 207.721 56.0347 208.182C55.6525 209.619 54.6693 210.34 53.2248 210.47C51.7895 210.6 50.6152 210.186 49.8184 208.889C49.0123 207.577 48.9936 206.145 49.0356 204.754L49.0337 204.644C49.0106 203.284 48.9884 201.983 49.66 200.801C50.4475 199.41 51.6451 198.694 53.2527 198.852L53.2574 198.857ZM73.7095 201.824C74.6041 201.159 75.6247 200.875 76.7197 201.019V201.029C78.4206 201.252 79.455 202.489 79.5343 204.484C79.5902 205.898 79.5964 207.316 79.6026 208.734V208.734C79.6057 209.443 79.6088 210.152 79.6181 210.861C79.6228 211.475 79.3665 211.777 78.7188 211.796C78.0711 211.819 77.8194 211.582 77.8288 210.921C77.8521 209 77.8521 207.079 77.8288 205.159C77.8148 204.182 77.633 203.233 76.6172 202.782C75.4849 202.28 74.483 202.596 73.5976 203.405C73.085 203.875 72.8893 204.456 72.894 205.149C72.9033 206.371 72.9002 207.593 72.8971 208.814L72.8971 208.823C72.8955 209.431 72.894 210.039 72.894 210.647C72.8986 211.256 72.8334 211.768 72.0226 211.782C71.2164 211.791 71.1232 211.298 71.1232 210.675C71.1264 209.729 71.1253 208.783 71.1243 207.838C71.1238 207.365 71.1232 206.892 71.1232 206.419H71.1326C71.1326 206.025 71.1318 205.632 71.1311 205.239L71.131 205.228V205.227V205.227V205.226V205.226V205.225V205.225V205.224V205.224V205.223V205.223V205.222V205.222V205.221V205.221V205.22V205.22V205.219V205.219C71.1291 204.23 71.1272 203.242 71.1372 202.252C71.1374 202.236 71.1374 202.22 71.1373 202.203C71.1371 202.188 71.1368 202.172 71.1364 202.156C71.1358 202.13 71.135 202.104 71.1342 202.078V202.077C71.1235 201.743 71.1118 201.373 71.5426 201.294C72.0226 201.205 72.6004 201.136 72.852 201.735C73.0894 202.302 73.3268 202.119 73.6202 201.892C73.6494 201.87 73.6791 201.847 73.7095 201.824ZM93.141 201.005C92.4747 200.977 91.9528 201.308 91.4495 201.68L91.4146 201.705C91.1301 201.915 90.8697 202.107 90.5921 201.633C90.3125 201.159 89.8186 201.256 89.3898 201.354C88.9052 201.461 88.9052 201.894 88.9052 202.284C88.9021 203.227 88.9031 204.167 88.9042 205.108V205.109V205.109V205.109V205.11V205.11V205.111V205.111V205.112V205.117C88.9047 205.59 88.9052 206.062 88.9052 206.535C88.9052 206.997 88.9057 207.459 88.9062 207.922C88.9073 208.848 88.9083 209.774 88.9052 210.698C88.9052 211.335 89.0404 211.8 89.8279 211.786C90.5734 211.772 90.6853 211.312 90.6853 210.721V205.675C90.6853 203.568 91.1326 203.047 93.2529 202.745C93.7887 202.67 94.0544 202.442 94.0404 201.894C94.0264 201.308 93.7188 201.038 93.155 201.015L93.141 201.005ZM118.966 197.736C118.919 197.043 119.208 196.815 119.898 196.801H119.903C120.588 196.787 120.904 196.978 120.881 197.685C120.865 198.216 120.869 198.747 120.873 199.278C120.875 199.514 120.876 199.751 120.876 199.987C120.783 201.379 120.812 202.771 120.84 204.163C120.87 205.631 120.9 207.1 120.788 208.568C120.753 209.02 120.788 209.477 120.823 209.935C120.845 210.216 120.866 210.497 120.872 210.777C120.881 211.163 120.853 211.591 120.382 211.712C119.954 211.823 119.464 211.893 119.176 211.442C118.933 211.065 118.728 211.093 118.383 211.298C115.112 213.242 112.335 210.907 111.967 208.07C111.743 206.373 111.734 204.731 112.605 203.168C113.798 201.024 115.993 200.336 118.09 201.591C118.849 202.042 118.929 201.842 118.975 201.094C119.04 199.973 119.04 198.852 118.966 197.736ZM118.974 206.783C118.977 206.625 118.98 206.466 118.98 206.307H118.938C118.952 205.954 118.966 205.6 118.985 205.247C119.054 203.903 118.425 202.973 117.214 202.638C115.974 202.298 114.66 202.815 114.148 203.973C113.411 205.633 113.327 207.354 114.064 209.047C114.562 210.2 115.839 210.698 117.228 210.354C118.5 210.037 119.073 209.191 118.985 207.814C118.962 207.471 118.968 207.127 118.974 206.783ZM125.723 164.588C126.543 162.653 126.757 160.649 126.58 158.598C126.328 155.751 125.238 153.375 122.661 151.826C121.058 150.862 119.294 150.645 117.515 150.426L117.515 150.426C117.329 150.403 117.143 150.38 116.957 150.356C115.422 150.157 113.879 150.146 112.336 150.135C111.365 150.129 110.393 150.122 109.423 150.068C107.428 149.956 105.401 150.114 103.407 150.31C101.776 150.468 101.515 150.877 101.51 152.496C101.507 154.8 101.508 157.106 101.509 159.411V159.412C101.51 160.564 101.51 161.716 101.51 162.867H101.496C101.496 163.21 101.499 163.553 101.502 163.896V163.897V163.897V163.898V163.898V163.899V163.899V163.9V163.901V163.901V163.901V163.901V163.901V163.901V163.901V163.902V163.902V163.902V163.902V163.902V163.902V163.902V163.903V163.903C101.509 164.592 101.515 165.282 101.496 165.97C101.429 168.143 101.496 170.315 101.562 172.488C101.643 175.122 101.724 177.757 101.566 180.392C101.482 181.783 102.102 182.639 103.281 182.778C104.576 182.932 105.881 182.89 107.162 182.574C107.847 182.406 108.141 182.001 108.118 181.304C108.084 180.175 108.093 179.045 108.103 177.915V177.915C108.118 176.062 108.133 174.208 107.959 172.355C107.81 170.774 108.071 170.481 109.693 170.435C110.962 170.397 112.231 170.34 113.499 170.283L113.499 170.283C115.066 170.213 116.631 170.142 118.197 170.109C121.473 170.035 124.567 167.332 125.732 164.588H125.723ZM110.392 164.212H109.325C108.02 164.212 107.847 164.012 107.847 162.737C107.847 161.871 107.826 161.006 107.805 160.14L107.805 160.139C107.787 159.382 107.768 158.625 107.764 157.868C107.754 156.705 107.899 156.565 109.026 156.565C109.747 156.565 110.468 156.541 111.189 156.516C112.98 156.455 114.769 156.395 116.557 156.71C117.447 156.868 118.272 157.17 119.045 157.616C120.238 158.305 120.434 159.463 120.392 160.691C120.35 161.872 119.791 162.742 118.724 163.314C117.745 163.835 116.687 163.951 115.629 163.993C114.993 164.017 114.357 164.052 113.721 164.088C112.614 164.15 111.506 164.212 110.396 164.212H110.392ZM95.4989 204.652C95.909 202.54 98.0478 200.903 100.229 200.996C102.596 201.098 104.618 202.996 104.861 205.345C104.883 205.545 104.89 205.745 104.9 206.02C104.904 206.147 104.909 206.29 104.916 206.456C104.898 206.596 104.882 206.753 104.864 206.923C104.817 207.371 104.761 207.904 104.646 208.424C104.166 210.591 102.116 212.228 99.8978 212.056C97.6657 211.884 95.8344 210.498 95.4243 208.084C95.2286 206.926 95.2799 205.786 95.4989 204.652ZM97.9174 209.535C99.4598 211.233 101.967 210.749 102.764 208.591V208.596C103.011 207.926 103.094 207.219 103.113 206.507C103.118 205.698 103.006 204.912 102.638 204.187C101.641 202.215 99.3293 201.94 97.8801 203.61C96.7804 204.875 96.8037 208.307 97.9174 209.535ZM91.9388 178.769C94.8605 175.118 96.4635 170.96 96.1606 166.184C96.3843 162.802 95.4197 159.668 94.1149 156.584C92.9127 153.752 90.9229 151.728 88.0431 150.738C84.4271 149.491 80.7179 149.045 76.9667 150.235C76.7517 150.304 76.5363 150.37 76.321 150.437C74.4504 151.016 72.591 151.592 71.1326 153.077C69.4969 154.738 68.3273 156.593 67.7355 158.872L67.662 159.155L67.588 159.437L67.5866 159.443L67.5852 159.448C67.0564 161.466 66.5256 163.493 66.5426 165.57C66.5659 168.453 66.8595 171.304 67.9173 174.086C69.469 178.174 72.1997 180.941 76.2258 182.527C78.9658 183.606 81.7523 183.536 84.6135 183.071C87.6517 182.583 90.0842 181.095 91.9434 178.769H91.9388ZM76.9294 175.258C75.853 174.16 75.154 172.839 74.702 171.374C73.5277 167.597 73.4532 163.844 74.6694 160.044C75.2938 158.1 76.743 156.998 78.4019 156.24C81.9853 154.607 85.5734 156.142 87.223 159.193C88.374 161.319 88.9285 163.477 89.0031 167.309C88.7328 169.965 88.0851 173.058 85.5501 175.453C83.0571 177.806 78.6769 177.044 76.9248 175.258H76.9294ZM224.209 156.691C224.726 155.444 225.648 154.421 226.627 153.449V153.454C229.758 150.347 233.715 149.445 237.848 149.552C241.529 149.649 245.164 150.417 247.899 153.305C248.519 153.956 249.059 154.663 249.442 155.463C250.569 157.812 251.557 160.188 251.869 162.83C252.005 163.974 252.116 165.109 252.135 166.258C252.196 171.5 250.443 176.062 246.809 179.839C245.793 180.89 244.577 181.848 243.169 182.332C237.871 184.164 232.773 183.932 228.155 180.443C226.31 179.048 225.038 177.16 224.064 175.058C222.596 171.895 222.168 168.532 222.303 165.123C222.419 162.226 223.09 159.379 224.209 156.691ZM243.552 172.22C245.243 168.211 245.01 164.156 243.463 160.142C242.443 157.491 239.129 154.714 235.304 155.9C233.141 156.57 231.427 157.737 230.602 159.956C229.903 161.84 229.693 163.793 229.693 165.793C229.782 168.714 230.215 171.551 231.874 174.062C233.211 176.095 235.145 176.978 237.54 176.881C240.644 176.76 242.447 174.844 243.552 172.22ZM250.332 205.042C250.154 205.042 249.977 205.041 249.8 205.04H249.799H249.799H249.798H249.798C249.386 205.037 248.974 205.034 248.561 205.047C248.151 205.061 247.904 205.284 247.899 205.717C247.89 206.14 248.104 206.41 248.524 206.419C249.675 206.438 250.821 206.438 251.972 206.419C252.382 206.414 252.629 206.186 252.638 205.754C252.648 205.275 252.368 205.056 251.925 205.042C251.571 205.03 251.217 205.034 250.863 205.038L250.859 205.038C250.683 205.04 250.507 205.042 250.332 205.042ZM36.0062 174.598L36.0064 174.473L36.0066 174.058V174.048C36.009 172.734 36.0043 171.42 35.9996 170.106V170.105V170.104V170.103V170.101V170.1V170.099V170.098V170.097V170.096V170.095C35.995 168.785 35.9903 167.477 35.9927 166.17C35.997 164.916 35.9678 163.663 35.9385 162.408C35.8741 159.645 35.8096 156.881 36.1045 154.124C36.3468 151.868 37.8193 150.5 40.1166 150.44C41.1249 150.411 42.1354 150.418 43.1451 150.425C43.5866 150.428 44.028 150.431 44.4689 150.431C47.5491 150.328 50.6339 150.361 53.6768 150.914C55.564 151.259 57.0365 152.366 58.2667 153.756C62.2276 158.23 62.8054 163.621 62.4559 169.281C62.3115 171.686 61.4308 173.853 60.4336 175.941C59.3991 178.109 57.6143 179.699 55.4475 180.825C52.4559 182.378 49.2779 182.941 45.9274 182.848C45.4205 182.835 44.9136 182.825 44.4068 182.816C42.426 182.78 40.4476 182.744 38.481 182.467C36.8407 182.239 36.454 181.885 36.2443 180.243C36.0018 178.371 36.004 176.486 36.0062 174.598ZM42.3138 162.792C42.3149 163.711 42.3161 164.675 42.3161 165.709H42.3114C42.35 166.567 42.3328 167.514 42.3147 168.515C42.2868 170.054 42.2567 171.719 42.4232 173.379C42.4488 173.622 42.4307 173.88 42.4126 174.138C42.3746 174.679 42.3368 175.217 42.7028 175.611C43.0973 176.037 43.6612 176.005 44.2269 175.973C44.4899 175.958 44.7532 175.943 45.0001 175.974C47.3627 176.271 49.6926 176.016 51.8361 174.965C53.4018 174.197 54.646 173.044 55.1819 171.258C56.0673 168.3 56.0999 165.295 55.4056 162.342C54.865 160.026 53.0104 158.723 50.9741 157.668C48.7373 156.51 46.3608 156.296 43.9051 156.393C42.6516 156.444 42.3254 156.696 42.3161 157.965C42.31 159.522 42.3118 161.078 42.3138 162.792ZM267.07 183.104C269.116 183.643 271.143 183.727 273.291 183.48C275.914 183.178 278.221 182.253 280.434 180.997C281.66 180.304 282.797 179.369 283.673 178.257C286.222 175.025 287.2 171.281 286.967 167.207C286.879 165.625 285.695 164.374 284.185 164.393C282.454 164.413 280.725 164.313 278.996 164.212C276.35 164.059 273.704 163.905 271.049 164.184C270.173 164.277 269.67 164.598 269.456 165.416C269.381 165.7 269.302 165.988 269.218 166.272C268.514 168.709 269.763 170.397 272.303 170.407C273.138 170.409 273.97 170.472 274.802 170.536C276.008 170.629 277.213 170.722 278.426 170.625C279.116 170.569 279.4 170.914 279.251 171.616C278.855 173.481 278.039 175.02 276.301 176.044C274.423 177.151 272.41 177.541 270.322 177.262C268.281 176.988 266.306 176.197 265.234 174.355C263.496 171.379 262.424 168.146 262.82 164.616C263.1 162.128 263.957 159.835 265.621 157.937C268.3 154.882 273.44 155.049 276.119 156.723C277.349 157.491 278.598 158.23 279.847 158.965C280.672 159.449 281.534 159.537 282.363 158.975C283.342 158.319 284.097 157.444 284.609 156.393C285.038 155.51 284.978 154.579 284.213 153.952L284.121 153.875C282.739 152.732 281.329 151.566 279.637 150.942C277.275 150.068 274.833 149.408 272.256 149.645C272.167 149.645 272.078 149.644 271.989 149.643C271.899 149.641 271.809 149.64 271.72 149.638L271.718 149.638C271.334 149.631 270.951 149.624 270.569 149.649C267.839 149.826 265.206 150.51 262.876 151.886C259.954 153.612 257.839 156.012 257.019 159.519C255.732 165.002 255.332 170.374 257.783 175.648C259.647 179.657 262.862 181.997 267.065 183.104H267.07ZM64.3758 127.86C63.9611 127.199 63.4298 127.097 62.7076 127.213L62.7169 127.222C57.1856 128.12 52.3767 126.646 48.6441 122.46C45.303 118.711 44.2033 114.246 45.0794 109.251C46.0486 103.726 48.8818 99.3678 53.2201 95.954C54.2919 95.11 55.4744 94.3994 56.6556 93.6896C57.1537 93.3903 57.6516 93.0911 58.1409 92.7821C59.5062 91.917 60.3637 90.7961 60.2891 89.0752C60.1912 86.8986 57.8147 85.2707 55.7644 86.0196C54.975 86.306 54.6821 86.976 54.3829 87.6603L54.3478 87.7404C53.5044 89.652 51.5892 90.1961 49.865 89.0241C48.7327 88.2567 48.3785 87.0102 48.8725 85.5545C50.0887 81.9732 53.085 79.8803 56.934 79.9314C62.2043 79.9966 66.6125 84.5731 66.277 89.638C66.016 93.5913 63.9378 96.3865 60.5687 98.2655C57.7448 99.8376 55.0654 101.577 53.304 104.358C50.8249 108.265 49.618 112.414 51.8408 116.846C53.4438 120.046 56.8455 121.674 60.098 121.599C60.7877 121.585 60.9741 121.213 60.8203 120.599C60.2472 118.302 60.2705 115.99 60.5827 113.651C61.0207 110.344 62.2416 107.395 64.2826 104.758C67.2649 100.903 71.277 98.5306 75.7411 96.8284C79.0962 95.5494 82.5492 95.0006 86.1745 95.3029C89.6508 95.5959 93.0804 95.0843 96.4402 94.0936C98.1504 93.5913 99.8186 93.0472 101.3 92.0286C103.206 90.717 104.022 88.2009 103.234 85.9777C102.744 84.5941 101.977 83.3541 101.212 82.119C101.075 81.8969 100.937 81.6749 100.802 81.4523C98.2482 77.2571 96.9202 72.7178 96.9155 67.8157C96.9155 65.3832 98.9379 63.7833 101.347 64.2019C103.06 64.5002 104.687 65.0882 106.315 65.6764L106.315 65.6765L106.533 65.7553C107.712 66.1785 108.975 65.4902 109.208 64.2437C109.558 62.3555 110.047 60.4997 110.541 58.644C111.179 56.2394 113.453 55.6209 115.247 56.3836C119.199 58.0673 122.568 60.4997 125.275 63.8019C126.035 64.7274 126.883 65.2204 128.029 65.346C129.465 65.5042 130.783 66.0018 132.018 66.7506C135.145 68.6436 136.715 71.5085 136.864 75.0433C137.013 78.6617 136.52 82.2616 135.336 85.6986C134.848 87.1125 134.992 88.4538 135.139 89.83L135.145 89.8845C135.643 94.5076 135.718 99.1492 135.643 103.786C135.583 107.526 135.322 111.251 134.861 114.972C134.42 118.559 133.716 122.096 133.012 125.632L132.912 126.136L132.824 126.576C132.671 127.371 133.029 127.469 133.63 127.385C134.539 127.255 135.396 127.357 136.207 127.813C137.302 128.427 137.917 129.646 137.745 130.864C137.587 132.018 136.743 132.976 135.48 133.18C133.011 133.571 130.504 133.529 128.053 133.18C126.086 132.897 125.299 131.622 125.881 129.218C126.077 128.409 126.286 127.602 126.494 126.796L126.495 126.795L126.495 126.795C126.93 125.113 127.365 123.43 127.689 121.72C128.891 115.381 129.567 108.991 129.646 102.53C129.702 97.9121 129.665 93.2937 128.985 88.7357C128.751 87.1631 129.124 85.8316 129.506 84.4685C129.58 84.2029 129.655 83.9362 129.725 83.6662C130.41 81.057 130.918 78.4292 130.872 75.713C130.83 73.248 129.618 71.7178 127.2 71.2016C126.852 71.1263 126.506 71.0417 126.16 70.9571C125.587 70.8171 125.013 70.6769 124.432 70.5784C123.141 70.3598 122.26 69.5877 121.487 68.6063C120.014 66.7413 118.402 65.0158 116.389 63.7042C115.615 63.1973 115.476 63.2066 115.266 64.1089C115.075 64.9414 114.944 65.7972 114.889 66.6483C114.781 68.2761 114.106 69.49 112.531 70.0714C111.782 70.3474 111.102 70.7463 110.421 71.1451C109.932 71.4318 109.443 71.7185 108.929 71.9597C107.922 72.4294 106.92 72.3736 105.918 71.9364C105.373 71.6992 104.828 71.4667 104.273 71.2621C103.407 70.9458 103.122 71.1504 103.332 72.0434C103.77 73.9224 104.418 75.727 105.378 77.4153C105.614 77.83 105.854 78.2432 106.094 78.6564L106.096 78.6585C106.999 80.2138 107.903 81.7703 108.635 83.4197C110.555 87.7544 109.222 93.3216 105.518 96.2935C102.596 98.6376 99.101 99.6329 95.5362 100.461C93.6319 100.9 91.7006 101.07 89.7682 101.24L89.7659 101.24L89.7635 101.24C89.4277 101.27 89.0919 101.3 88.7561 101.331C87.9639 101.4 87.1438 101.405 86.3609 101.279C82.442 100.661 78.8399 101.665 75.387 103.391C72.9546 104.609 70.7644 106.13 69.0449 108.293C66.9667 110.912 66.2444 113.911 66.305 117.167C66.3055 117.195 66.3054 117.224 66.3054 117.253C66.3049 117.489 66.3044 117.762 66.5985 117.837C66.8212 117.896 66.9374 117.722 67.0462 117.56C67.074 117.518 67.1013 117.477 67.1297 117.441C68.6302 115.558 70.3031 113.883 72.428 112.66C75.7598 110.744 79.3199 109.916 83.1503 110.098C86.799 110.27 90.1121 111.386 92.7915 113.874C95.9695 116.828 97.0739 120.511 95.9928 124.771L95.9928 124.772C95.9415 124.972 95.8903 125.171 95.8204 125.367C95.5315 126.148 95.8344 126.553 96.6219 126.669C96.9975 126.725 97.3725 126.786 97.7471 126.846C99.5058 127.129 101.256 127.411 103.015 127.269C104.462 127.384 105.865 127.199 107.259 127.015H107.259H107.26H107.26H107.26H107.26H107.26H107.26H107.26C107.837 126.939 108.412 126.863 108.989 126.808C109.088 126.799 109.186 126.788 109.285 126.776C109.628 126.735 109.97 126.695 110.317 126.753C111.799 126.995 112.689 127.957 112.736 129.367C112.787 131.087 111.985 132.222 110.434 132.538C105.979 133.441 101.51 133.404 97.0273 132.771C95.6968 132.583 94.4114 132.226 93.125 131.868C92.758 131.766 92.3909 131.665 92.0227 131.566C91.5194 131.436 91.1186 131.441 90.6946 131.762C83.5837 137.129 72.1018 136.143 65.5128 129.218L65.4746 129.177C65.0812 128.762 64.6782 128.337 64.3758 127.86ZM71.6297 121.408C71.0077 122.175 70.3863 122.94 69.7253 123.669L69.7299 123.674C69.2407 124.213 69.3059 124.53 69.7626 124.995C72.5026 127.799 75.7691 129.348 80.1028 129.269C81.5054 129.436 83.1643 129.013 84.7579 128.325C86.8828 127.404 88.8167 126.227 89.963 124.097C90.7878 122.567 90.401 120.255 89.3386 118.93C88.2342 117.553 86.8176 116.902 85.196 116.395C81.2258 115.158 75.6153 116.679 72.908 119.86C72.4731 120.369 72.0513 120.889 71.6297 121.408ZM37.471 206.43C37.1254 206.432 36.7795 206.435 36.4353 206.424C36.0346 206.414 35.7597 206.224 35.741 205.782C35.727 205.303 35.988 205.056 36.44 205.052C37.5304 205.033 38.6255 205.038 39.7159 205.052C40.1446 205.061 40.4614 205.256 40.4614 205.745C40.4614 206.238 40.1446 206.414 39.7112 206.428C39.3571 206.438 39.0029 206.435 38.6488 206.431C38.4717 206.43 38.2946 206.428 38.1175 206.428C37.903 206.427 37.6877 206.428 37.4723 206.43H37.4721H37.4719H37.4716H37.4714H37.4712H37.471ZM1.14631 182.811C1.6792 182.833 2.21209 182.832 2.74498 182.83C3.21862 182.829 3.69226 182.828 4.16589 182.843C5.59647 182.89 6.5331 182.234 7.04568 180.932C7.15055 180.665 7.25559 180.398 7.36061 180.131C7.79689 179.022 8.23268 177.915 8.65333 176.802C8.86302 176.248 9.17523 175.899 9.81363 175.904C12.591 175.91 15.3662 175.908 18.1422 175.906H18.1427H18.1432H18.1437H18.1443H18.1601C19.5513 175.905 20.9427 175.904 22.3346 175.904C22.8146 175.904 23.1874 176.071 23.425 176.523C23.6554 176.962 23.8982 177.395 24.1409 177.828L24.1411 177.829C24.7918 178.99 25.4422 180.15 25.8528 181.434C26.0439 182.029 26.4306 182.513 27.0784 182.597L27.2449 182.619C28.448 182.78 29.6557 182.942 30.8761 182.657C32.2741 182.332 32.6515 181.801 32.2415 180.457C31.8873 179.299 31.5239 178.132 31.0113 177.039C30.2415 175.394 29.5954 173.7 28.9496 172.006L28.9496 172.006C28.4812 170.778 28.0129 169.55 27.4977 168.342C26.7658 166.628 26.1275 164.877 25.4893 163.126C24.9532 161.656 24.4172 160.185 23.8258 158.737C23.4786 157.884 23.178 157.015 22.8776 156.147L22.8775 156.147C22.541 155.174 22.2047 154.202 21.8034 153.254C20.7876 150.859 19.8137 148.449 18.9003 146.017C18.2014 144.161 17.7773 143.794 15.6617 143.803C14.4036 143.687 13.2386 144.105 12.5909 145.394C12.0783 146.422 11.6682 147.505 11.2861 148.594C10.8191 149.934 10.3674 151.279 9.91563 152.625L9.91547 152.625C9.14575 154.918 8.37596 157.211 7.5303 159.477C6.88503 161.206 6.29678 162.953 5.7085 164.7L5.70837 164.7L5.70828 164.7C5.26006 166.031 4.81182 167.362 4.33831 168.686C3.95358 169.759 3.57665 170.836 3.19961 171.912L3.19949 171.913L3.19942 171.913C2.48509 173.953 1.77042 175.994 1.00186 178.016L0.98464 178.061C0.561606 179.181 0.138165 180.302 0.0186312 181.504C-0.0699059 182.411 0.232984 182.774 1.15097 182.815L1.14631 182.811ZM11.2815 168.202C11.7098 167.15 12.0985 166.083 12.4872 165.017C13.0882 163.368 13.6892 161.719 14.4362 160.123C14.6677 159.628 14.808 159.093 14.9485 158.556C15.0258 158.261 15.1031 157.966 15.1958 157.677L15.2108 157.631C15.2768 157.428 15.3565 157.184 15.6291 157.179C15.8612 157.179 15.9489 157.356 16.0348 157.53C16.0559 157.572 16.0768 157.614 16.0998 157.654C17.7549 160.482 18.9618 163.513 20.1685 166.543L20.1694 166.545L20.1696 166.545C20.4132 167.157 20.6568 167.769 20.9041 168.379C21.165 169.021 20.8155 169.183 20.2796 169.183C19.3323 169.187 18.3871 169.185 17.4411 169.184C16.9679 169.184 16.4945 169.183 16.0205 169.183C15.567 169.183 15.1134 169.182 14.6599 169.181H14.6549C13.7494 169.179 12.844 169.177 11.9385 169.183C11.1836 169.193 10.9972 168.9 11.2815 168.197V168.202ZM237.774 205.728L237.774 205.728C238.24 205.836 238.706 205.944 239.153 206.117H239.143C240.085 206.479 240.919 206.959 241.306 207.954C241.762 209.131 241.329 210.456 240.243 211.256C238.617 212.451 235.579 212.275 234.106 210.898C233.78 210.591 233.505 210.237 233.342 209.819C233.327 209.781 233.312 209.743 233.296 209.704C233.144 209.326 232.968 208.89 233.5 208.675C233.994 208.475 234.539 208.456 234.917 209.024C235.826 210.4 237.06 210.842 238.542 210.358C239.115 210.168 239.539 209.833 239.642 209.205C239.744 208.563 239.409 208.126 238.915 207.791C238.452 207.478 237.925 207.348 237.397 207.217C237.149 207.156 236.901 207.095 236.66 207.014C236.496 206.96 236.33 206.912 236.164 206.865L236.164 206.865L236.164 206.864L236.163 206.864C235.873 206.781 235.584 206.697 235.308 206.582C234.325 206.168 233.589 205.526 233.477 204.387C233.356 203.163 233.915 202.261 234.912 201.633C235.593 201.205 236.357 200.945 237.359 200.963C238.668 201.005 240.024 201.368 240.895 202.68L240.926 202.725L240.97 202.789L240.971 202.79C241.253 203.203 241.594 203.7 241.082 204.182C240.662 204.577 239.763 204.247 239.358 203.628C238.64 202.531 237.084 202.177 235.989 202.866C235.532 203.154 235.271 203.573 235.299 204.121C235.327 204.647 235.625 204.987 236.091 205.21C236.628 205.464 237.201 205.596 237.774 205.728ZM205.173 201.01C203.304 200.722 201.454 201.582 200.471 203.177C199.302 205.075 199.376 207.103 200.057 209.07C200.839 211.33 203.169 212.451 205.518 211.935C207.885 211.414 209.288 209.4 209.283 206.428C209.32 205.833 209.204 205.159 209.05 204.498C208.64 202.782 206.958 201.289 205.173 201.01ZM207.093 208.61C206.683 209.772 205.849 210.391 204.651 210.498C203.426 210.605 202.554 210.033 201.962 208.982C201.538 208.233 201.445 207.419 201.464 206.526C201.436 205.861 201.543 205.163 201.799 204.494C202.27 203.247 203.179 202.563 204.386 202.545C205.62 202.522 206.51 203.121 207.042 204.377C207.633 205.777 207.596 207.191 207.098 208.614L207.093 208.61ZM223.044 203.368C223.971 201.624 225.909 200.703 227.815 201.075C229.716 201.447 230.942 202.852 231.17 204.917C231.323 206.306 230.704 207 229.316 207C228.785 207 228.249 207 227.717 207.005C227.452 207.005 227.186 207.003 226.92 207.001C226.387 206.997 225.854 206.993 225.322 207.005C224.306 207.033 224.022 207.47 224.358 208.442C225.005 210.312 227.247 211.117 228.943 210.079C229.143 209.958 229.334 209.814 229.521 209.67C229.917 209.368 230.313 209.233 230.69 209.675C231.084 210.135 230.773 210.458 230.471 210.771L230.434 210.81C229.078 212.209 226.427 212.502 224.67 211.419C223.463 210.67 222.643 209.637 222.401 208.191C222.116 206.512 222.233 204.894 223.044 203.368ZM227.354 205.543C227.707 205.546 228.062 205.549 228.416 205.54V205.531C229.381 205.512 229.605 205.159 229.264 204.242C228.831 203.075 227.932 202.461 226.762 202.535C225.653 202.605 224.605 203.563 224.367 204.689C224.255 205.219 224.451 205.498 224.973 205.517C225.398 205.533 225.826 205.529 226.254 205.525H226.255H226.255C226.348 205.524 226.44 205.523 226.533 205.523C226.631 205.522 226.729 205.521 226.827 205.521V205.54C227.002 205.54 227.178 205.542 227.353 205.543H227.354ZM214.921 201.349C214.662 201.487 214.414 201.641 214.167 201.795C214.063 201.859 213.959 201.923 213.854 201.987C213.64 202.117 213.44 202.135 213.379 201.842C213.23 201.122 212.717 201.07 212.154 201.191C211.578 201.319 211.584 201.785 211.589 202.22V202.22C211.589 202.261 211.59 202.301 211.59 202.34C211.583 203.245 211.586 204.153 211.588 205.061C211.589 205.515 211.59 205.969 211.59 206.424V210.507L211.59 210.553C211.589 211.183 211.589 211.791 212.508 211.782C213.376 211.768 213.375 211.189 213.374 210.602L213.374 210.549C213.374 210.098 213.374 209.647 213.373 209.196V209.192C213.371 207.84 213.37 206.488 213.384 205.135C213.402 203.624 214.567 202.526 216.072 202.559C217.442 202.587 218.146 203.428 218.16 205.084C218.174 207.005 218.174 208.931 218.169 210.851C218.169 211.465 218.421 211.782 219.073 211.782C219.73 211.782 219.963 211.442 219.963 210.837C219.96 210.117 219.966 209.396 219.971 208.675V208.675C219.982 207.148 219.993 205.62 219.926 204.094C219.814 201.554 217.186 200.154 214.921 201.349ZM214.386 176.523C212.349 179.56 209.493 181.234 206.166 182.271H206.17C204.945 182.653 203.607 182.755 202.317 182.815C199.595 182.941 196.874 182.913 194.157 182.676C191.902 182.476 190.648 181.141 190.597 178.89C190.579 178.098 190.528 177.306 190.477 176.514C190.396 175.247 190.314 173.981 190.369 172.718C190.433 171.311 190.369 169.908 190.305 168.507C190.234 166.957 190.163 165.409 190.266 163.858C190.388 162.023 190.345 160.19 190.301 158.322C190.269 156.971 190.237 155.601 190.266 154.198C190.241 153.238 190.29 152.242 190.34 151.226C190.401 149.996 190.463 148.736 190.397 147.473C190.364 146.849 190.518 146.24 190.714 145.645C191.226 144.082 192.647 143.924 193.901 143.868C194.431 143.845 194.962 143.812 195.492 143.779C196.905 143.692 198.319 143.604 199.749 143.705C200.528 143.759 201.309 143.77 202.092 143.78C203.135 143.793 204.18 143.807 205.229 143.924C207.811 144.212 210.257 144.798 212.27 146.496C214.25 148.166 216.049 150.003 216.58 152.7C216.669 153.16 216.835 153.596 217.001 154.034C217.139 154.398 217.277 154.762 217.373 155.142C218.258 158.672 218.649 162.235 218.151 165.849C217.624 169.653 216.58 173.248 214.386 176.523ZM197.256 174.788C197.237 175.476 197.769 175.634 198.342 175.709L198.337 175.713C200.746 176.025 203.137 175.974 205.448 175.183C207.335 174.541 208.808 173.355 209.735 171.56C211.131 168.859 211.256 165.945 211.379 163.066C211.404 162.484 211.429 161.904 211.464 161.328C211.436 161.034 211.412 160.741 211.389 160.45C211.29 159.234 211.194 158.05 210.807 156.905C210.786 156.842 210.765 156.78 210.744 156.718C210.035 154.608 209.331 152.513 207.158 151.356C205.807 150.635 204.348 150.319 202.866 150.003C202.113 149.844 201.375 149.92 200.637 149.995C200.056 150.055 199.474 150.114 198.887 150.059C197.438 149.924 197.023 150.356 196.99 151.803C196.974 152.503 197.032 153.199 197.09 153.895C197.147 154.581 197.205 155.268 197.191 155.961C197.153 157.841 197.15 159.72 197.147 161.6C197.142 164.316 197.138 167.031 197.028 169.746C196.995 170.597 197.068 171.445 197.141 172.293C197.212 173.122 197.284 173.953 197.256 174.788Z" fill="white"/>
</svg>
