<svg width="233" height="61" viewBox="0 0 233 61" fill="none" xmlns="http://www.w3.org/2000/svg">
<g clip-path="url(#clip0_5_76)">
<path d="M149.98 30.05C149.71 28.96 149.36 27.89 148.88 26.89C147.91 24.88 147.43 22.67 146.32 20.71C146.29 20.65 146.27 20.58 146.24 20.51C145.54 18.62 144.81 16.74 144.14 14.84C143.47 12.94 142.53 11.14 142.05 9.17C141.97 8.85 141.86 8.53 141.73 8.23C140.76 5.94 139.78 3.65 138.94 1.3C138.69 0.610004 138.25 0.200004 137.51 0.080004C136.96 -0.00999603 136.42 0.100004 135.88 0.120004C134.91 0.150004 134.34 0.680004 133.96 1.55C133.12 3.47 132.51 5.47 131.8 7.43C130.95 9.77 130.2 12.14 129.34 14.47C128.43 16.92 127.77 19.45 126.85 21.89C126.04 24.04 125.42 26.27 124.46 28.37C124.16 29.02 124.02 29.72 123.96 30.44C123.89 31.19 124.1 31.46 124.84 31.48C125.31 31.5 125.79 31.48 126.27 31.48C126.27 31.48 126.27 31.48 126.27 31.49C126.6 31.49 126.94 31.47 127.27 31.49C128.53 31.6 129.26 30.96 129.72 29.85C130.14 28.84 130.58 27.84 130.88 26.79C131.05 26.17 131.4 25.91 132.05 25.89C132.96 25.86 133.85 26.13 134.75 26.03C136.98 25.79 139.21 25.95 141.44 25.85C142.11 25.82 142.54 26.08 142.87 26.68C143.53 27.86 144.21 29.03 144.68 30.31C144.87 30.81 145.17 31.32 145.74 31.38C146.96 31.52 148.21 31.63 149.4 31.16C149.91 30.96 150.13 30.6 149.98 30.03V30.05ZM140.05 20.5C138.96 20.52 137.87 20.5 136.78 20.5C135.74 20.5 134.69 20.5 133.65 20.5C132.8 20.5 132.76 20.41 133.06 19.65C133.91 17.46 134.63 15.23 135.62 13.1C135.87 12.57 135.85 11.94 136.13 11.41C136.22 11.25 136.24 11 136.46 10.99C136.75 10.97 136.83 11.25 136.95 11.44C137.86 12.92 138.53 14.51 139.18 16.11C139.67 17.29 140.18 18.46 140.61 19.66C140.86 20.37 140.84 20.48 140.05 20.49V20.5Z" fill="white"/>
<path d="M150.28 45.12C149.68 45.39 149.25 45.98 148.57 45.12C148.16 44.6 147.3 45.04 147.15 45.75C147.08 46.09 147.08 46.44 147.08 46.79C147.04 50.05 147.21 53.31 147.18 56.57C147.18 57.61 147.16 58.66 147.18 59.7C147.19 60.29 147.39 60.76 148.13 60.73C148.86 60.7 149.13 60.28 149.14 59.62C149.14 58.61 149.14 57.59 149.16 56.58C149.18 55.57 149.24 55.54 150.16 56C152.56 57.21 155.18 56.28 156.21 53.76C157.02 51.78 156.86 49.74 156.32 47.7C155.7 45.31 153.02 43.87 150.29 45.12H150.28ZM154.13 53.45C153.36 55.07 150.95 55.33 149.65 54.08C149.16 53.6 149.15 53.02 149.15 52.42C149.15 51.82 149.15 51.22 149.15 50.62C149.15 50.05 149.15 49.48 149.15 48.91C149.15 47.56 149.75 46.78 151.02 46.44C152.18 46.13 153.66 46.65 154.13 47.69C154.99 49.59 155.03 51.58 154.13 53.46V53.45Z" fill="white"/>
<path d="M131.83 41.11C131.88 40.49 131.68 40.07 130.95 40.05C130.2 40.03 129.93 40.38 129.94 41.08C129.95 42.32 129.94 43.55 129.93 44.79C129.93 45.46 129.76 45.76 129.03 45.32C126.71 43.92 124.08 44.78 122.88 47.2C122.26 48.45 122.27 49.79 122.23 51.1C122.15 53.62 123.62 55.75 125.77 56.38C126.96 56.73 128.01 56.31 129.05 55.8C129.33 55.66 129.65 55.25 129.94 55.71C130.31 56.31 130.85 56.27 131.36 56.11C131.96 55.92 131.83 55.34 131.83 54.89C131.84 52.64 131.83 50.39 131.83 48.33C131.9 45.8 131.64 43.46 131.83 41.11ZM129.93 51.9C129.92 53.56 129.14 54.51 127.62 54.76C126.23 54.99 124.79 54.15 124.42 52.68C124.05 51.2 124.02 49.66 124.55 48.18C124.95 47.08 125.73 46.39 126.92 46.25C128.1 46.1 128.9 46.75 129.59 47.59C129.85 47.9 129.91 48.27 129.91 48.66C129.91 49.26 129.91 49.86 129.91 50.47C129.91 50.95 129.91 51.42 129.91 51.9H129.93Z" fill="white"/>
<path d="M123.32 8.72C123.32 8.39 123.31 8.05 123.32 7.72C123.32 6.13999 122.8 5.57 121.21 5.51C118.49 5.42 115.76 5.4 113.04 5.28C112.18 5.24 111.34 5.41 110.48 5.33C108.58 5.14 106.68 5.24 104.78 5.25C104.14 5.25 103.73 5.59 103.48 6.18C103.17 6.91 103.19 7.66 103.2 8.42C103.2 10.07 103.52 10.39 105.11 10.66C106.4 10.88 107.72 10.68 109.01 10.98C110.23 11.27 110.47 11.47 110.47 12.74C110.48 15.47 110.47 18.2 110.47 20.94C110.47 23.6 110.47 26.26 110.47 28.92C110.47 29.42 110.51 29.91 110.66 30.4C110.82 30.94 111.16 31.23 111.7 31.34C112.48 31.51 113.26 31.45 114.04 31.35C115.74 31.14 116.03 30.85 116.03 29.14C116.03 28.19 115.86 27.23 115.96 26.3C116.12 24.68 116.12 23.05 115.96 21.47C115.66 18.38 115.86 15.3 115.78 12.22C115.76 11.26 116.16 10.88 117.1 10.81C117.43 10.78 117.76 10.79 118.1 10.79C119.22 10.79 120.34 10.85 121.44 10.76C122.86 10.65 123.31 10.1 123.31 8.7L123.32 8.72Z" fill="white"/>
<path d="M141.86 45.23C140.06 44.35 138.3 44.42 136.63 45.52C134.24 47.1 133.53 51.27 135.16 53.94C136.47 56.09 138.67 56.99 140.92 56.3C143.38 55.54 144.61 53.62 144.6 50.54C144.6 50.19 144.63 49.84 144.6 49.49C144.38 47.63 143.65 46.09 141.87 45.22L141.86 45.23ZM142 53.43C140.6 55.46 137.83 55.31 136.79 53.06C136.02 51.39 136.05 49.65 136.86 48.01C137.96 45.78 140.58 45.68 142 47.73C142.61 48.62 142.72 49.6 142.68 50.67C142.76 51.64 142.6 52.57 142 53.43Z" fill="white"/>
<path d="M172.75 45.93C172.75 45.21 172.49 44.8 171.7 44.8C170.9 44.8 170.67 45.24 170.67 45.95C170.67 49.02 170.67 52.08 170.67 55.15C170.67 55.83 170.91 56.21 171.66 56.22C172.43 56.23 172.75 55.89 172.74 55.14C172.72 53.59 172.74 52.04 172.74 50.49C172.74 48.97 172.74 47.45 172.74 45.93H172.75Z" fill="white"/>
<path d="M171.67 40.79C171.03 40.8 170.68 41.17 170.68 41.81C170.68 42.51 171.07 42.84 171.78 42.85C172.41 42.79 172.85 42.46 172.82 41.77C172.79 41.08 172.33 40.77 171.67 40.78V40.79Z" fill="white"/>
<path d="M119.64 50.69C119.68 49.77 119.6 48.76 119.47 47.75C119.33 46.71 118.81 45.92 117.94 45.35C115.99 44.05 112.6 44.69 111.28 46.61C111.01 47.01 110.68 47.49 111.22 47.85C111.69 48.16 112.26 48.12 112.7 47.67C112.88 47.49 112.98 47.25 113.15 47.06C114.31 45.74 116.79 46.09 117.47 47.67C117.97 48.83 117.65 49.34 116.39 49.34C115.01 49.34 113.67 49.47 112.42 50.09C110.87 50.86 110.17 52.67 110.81 54.28C111.65 56.39 114.49 57.13 116.71 55.77C117.19 55.48 117.51 55.25 117.94 55.9C118.27 56.41 118.92 56.24 119.44 56.12C119.78 56.04 119.82 55.72 119.76 55.42C119.43 53.88 119.7 52.33 119.66 50.69H119.64ZM117.32 53.49C116.63 54.31 115.76 54.76 114.78 54.68C113.38 54.68 112.61 54.1 112.51 53.05C112.41 52.06 113.22 51.11 114.38 50.91C114.91 50.82 115.44 50.74 115.98 50.73C116.55 50.72 117.31 50.46 117.58 51.16C117.87 51.92 117.92 52.78 117.32 53.49Z" fill="white"/>
<path d="M163.56 46.32C164.88 46.19 165.73 46.72 166.41 48.17C166.76 48.9 167.36 48.91 167.93 48.68C168.54 48.44 168.31 47.9 168.13 47.45C166.93 44.49 163.03 43.66 160.57 45.85C159.18 47.08 158.74 48.69 158.87 50.61C158.76 51.79 158.94 53.02 159.6 54.16C160.6 55.87 162.19 56.61 164.07 56.51C165.8 56.42 167.21 55.58 168.03 53.96C168.19 53.65 168.39 53.3 168.12 52.98C167.87 52.67 167.48 52.76 167.14 52.78C166.71 52.8 166.47 53.07 166.28 53.43C165.72 54.53 164.77 54.93 163.6 54.83C162.39 54.72 161.52 54.1 161.1 52.93C160.61 51.58 160.6 50.17 160.91 48.8C161.26 47.25 162.2 46.46 163.55 46.32H163.56Z" fill="white"/>
<path d="M53.95 54.8C52.7 54.67 52.5 54.46 52.49 53.2C52.47 51.43 52.49 49.65 52.49 47.88C52.49 46.98 52.9367 46.45 53.83 46.29C54.16 46.23 54.47 46.16 54.5 45.75C54.53 45.35 54.34 45.08 53.95 44.97C53.77 44.92 53.57 44.88 53.39 44.89C52.72 44.93 52.48 44.57 52.49 43.96C52.49 43.74 52.48 43.52 52.49 43.3C52.51 42.62 52.37 42.11 51.52 42.12C50.73 42.12 50.57 42.6 50.59 43.24C50.59 43.46 50.57 43.68 50.58 43.9C50.59 44.6 50.29 44.98 49.55 44.92C49.05 44.88 48.54 44.88 48.56 45.59C48.57 46.27 49.09 46.29 49.58 46.28C50.31 46.26 50.61 46.6 50.6 47.32C50.58 48.4 50.6 49.47 50.6 50.55H50.58C50.58 51.44 50.58 52.32 50.58 53.21C50.58 53.98 50.67 54.72 51.09 55.4C51.66 56.31 53.24 56.77 54.12 56.3C54.56 56.07 54.65 55.7 54.59 55.26C54.54 54.91 54.3 54.83 53.98 54.8H53.95Z" fill="white"/>
<path d="M33.43 45.36C31.67 44.33 29.63 44.42 28 45.74C26.11 47.27 25.67 49.44 25.92 51.67C26.47 56.48 31.16 57.4 33.98 55.65C34.51 55.32 35.41 54.89 34.92 54.06C34.34 53.1 33.73 53.94 33.2 54.3C31.19 55.67 28.4 54.51 27.94 52.11C27.81 51.43 28 51.07 28.73 51.07C29.68 51.07 30.63 51.07 31.58 51.07V51.05C32.59 51.05 33.61 51.05 34.62 51.05C35.12 51.05 35.45 50.86 35.53 50.3C35.77 48.68 34.68 46.09 33.41 45.35L33.43 45.36ZM32.69 49.52C32.06 49.52 31.42 49.52 30.79 49.52C30.79 49.52 30.79 49.52 30.79 49.51C30.09 49.51 29.4 49.52 28.7 49.51C28.18 49.5 27.97 49.24 28.08 48.7C28.32 47.44 29.47 46.36 30.68 46.3C32.14 46.23 33.09 46.96 33.5 48.44C33.71 49.19 33.45 49.53 32.69 49.52Z" fill="white"/>
<path d="M95.81 45.63C93.1 47.76 92.84 52.78 95.32 55.17C97.18 56.96 100.73 56.94 102.41 55.11C102.71 54.78 103.06 54.44 102.67 53.96C102.27 53.45 101.92 53.5 101.42 53.94C99.4 55.69 96.32 54.84 95.76 52.43C95.54 51.47 95.79 51.12 96.77 51.09C97.66 51.07 98.55 51.09 99.43 51.09C100.41 51.09 101.4 51.09 102.38 51.09C103.01 51.09 103.33 50.77 103.29 50.15C103.24 49.52 103.19 48.88 103.06 48.27C102.36 44.97 98.47 43.58 95.82 45.66L95.81 45.63ZM100.58 49.5C99.89 49.53 99.19 49.5 98.5 49.5C97.84 49.5 97.17 49.51 96.51 49.5C95.91 49.49 95.67 49.2 95.8 48.58C96.09 47.2 97.24 46.27 98.66 46.29C100.02 46.31 100.97 47.18 101.24 48.61C101.35 49.18 101.14 49.48 100.59 49.5H100.58Z" fill="white"/>
<path d="M18.74 42.35C20.32 42.51 21.35 43.39 21.75 44.96C21.8 45.14 21.85 45.34 21.96 45.49C22.34 46.04 22.91 45.95 23.42 45.82C23.99 45.68 23.85 45.21 23.74 44.81C23.49 43.85 23.09 42.94 22.39 42.23C19.49 39.35 13.92 40.76 12.71 44.66C11.99 46.99 11.99 49.36 12.45 51.71C13.01 54.55 15.29 56.56 18.06 56.48C21.03 56.39 22.73 55.44 23.65 52.67C23.99 51.63 23.73 51.34 22.66 51.44C22.07 51.5 21.87 51.87 21.73 52.36C21.32 53.9 20.27 54.67 18.72 54.81C17.18 54.95 15.93 54.51 15.07 53.12C14.21 51.72 14.19 50.18 14.23 48.69C14.2 47.19 14.16 45.75 14.9 44.45C15.74 42.96 17.02 42.19 18.74 42.36V42.35Z" fill="white"/>
<path d="M43.85 44.67C42.68 44.52 41.58 44.82 40.63 45.53C40.27 45.8 39.99 46.1 39.71 45.44C39.44 44.8 38.82 44.87 38.31 44.97C37.76 45.07 37.88 45.6 37.88 45.99C37.87 47.48 37.88 48.97 37.88 50.46C37.88 51.98 37.88 53.5 37.88 55.02C37.88 55.69 37.98 56.22 38.84 56.2C39.71 56.19 39.78 55.64 39.77 54.98C39.77 53.02 39.78 51.05 39.77 49.09C39.77 48.35 39.97 47.73 40.52 47.22C41.47 46.35 42.54 46.01 43.75 46.55C44.84 47.03 45.03 48.05 45.05 49.1C45.07 51.16 45.08 53.22 45.05 55.28C45.04 55.99 45.31 56.24 46 56.22C46.69 56.2 46.97 55.87 46.96 55.22C46.93 52.94 46.96 50.66 46.87 48.38C46.78 46.24 45.68 44.92 43.86 44.68L43.85 44.67Z" fill="white"/>
<path d="M61.42 44.65C60.71 44.62 60.15 44.97 59.61 45.37C59.29 45.6 59 45.85 58.69 45.32C58.39 44.81 57.86 44.92 57.4 45.02C56.88 45.13 56.88 45.6 56.88 46.01C56.88 47.53 56.88 49.05 56.88 50.57C56.88 52.06 56.88 53.54 56.88 55.03C56.88 55.71 57.02 56.21 57.87 56.2C58.67 56.18 58.79 55.69 58.79 55.06C58.79 53.26 58.79 51.45 58.79 49.65C58.79 47.39 59.27 46.83 61.54 46.51C62.11 46.43 62.4 46.18 62.39 45.6C62.38 44.97 62.04 44.68 61.44 44.66L61.42 44.65Z" fill="white"/>
<path d="M90.05 40.14C89.31 40.16 89.01 40.4 89.05 41.14C89.13 42.34 89.13 43.54 89.05 44.74C89 45.54 88.91 45.76 88.1 45.27C85.86 43.93 83.51 44.66 82.23 46.96C81.3 48.64 81.31 50.39 81.55 52.22C81.94 55.26 84.92 57.76 88.41 55.68C88.78 55.46 89 55.43 89.26 55.84C89.57 56.33 90.09 56.25 90.55 56.13C91.05 56 91.08 55.54 91.07 55.13C91.05 54.34 90.92 53.54 90.98 52.76C91.22 49.69 90.87 46.63 91.07 43.56C91.07 42.74 91.05 41.91 91.07 41.09C91.09 40.33 90.75 40.13 90.02 40.14H90.05ZM89.07 50.34C89.07 50.88 89.04 51.42 89.07 51.95C89.16 53.43 88.55 54.33 87.19 54.67C85.7 55.04 84.34 54.51 83.8 53.27C83.01 51.46 83.1 49.61 83.89 47.83C84.44 46.59 85.85 46.03 87.17 46.4C88.47 46.76 89.14 47.75 89.07 49.2C89.05 49.58 89.04 49.96 89.02 50.34C89.03 50.34 89.05 50.34 89.06 50.34H89.07Z" fill="white"/>
<path d="M101.23 16.82C101.89 15.27 102.06 13.65 101.92 12.01C101.72 9.71999 100.84 7.80999 98.78 6.56999C97.36 5.71999 95.78 5.58999 94.2 5.38999C92.19 5.12999 90.17 5.26999 88.16 5.15999C86.56 5.06999 84.94 5.19999 83.33 5.34999C82.02 5.47999 81.81 5.79999 81.81 7.10999C81.81 9.88999 81.81 12.67 81.81 15.45C81.81 15.45 81.81 15.45 81.8 15.45C81.8 16.28 81.82 17.11 81.8 17.94C81.68 21.8 82.09 25.67 81.86 29.53C81.79 30.65 82.29 31.34 83.24 31.45C84.28 31.57 85.33 31.54 86.36 31.29C86.91 31.15 87.14 30.83 87.13 30.27C87.06 27.87 87.23 25.47 87 23.08C86.88 21.81 87.09 21.57 88.39 21.53C90.67 21.46 92.94 21.32 95.21 21.27C97.84 21.21 100.32 19.04 101.25 16.83L101.23 16.82ZM88.93 16.54C88.93 16.54 88.93 16.54 88.93 16.52C88.64 16.52 88.36 16.52 88.07 16.52C87.02 16.52 86.89 16.36 86.89 15.34C86.89 14.04 86.83 12.73 86.82 11.43C86.82 10.5 86.93 10.38 87.83 10.38C89.84 10.38 91.86 10.14 93.87 10.5C94.59 10.63 95.25 10.87 95.87 11.23C96.83 11.78 96.99 12.71 96.95 13.7C96.92 14.65 96.47 15.35 95.61 15.81C94.83 16.23 93.98 16.32 93.13 16.36C91.73 16.41 90.33 16.54 88.93 16.54Z" fill="white"/>
<path d="M69.01 44.64C66.68 44.54 64.39 46.3 63.95 48.56C63.71 49.78 63.66 51 63.87 52.24C64.31 54.83 66.27 56.31 68.65 56.5C71.02 56.68 73.22 54.93 73.73 52.61C73.9 51.84 73.95 51.05 74.02 50.5C73.99 49.94 73.99 49.62 73.96 49.31C73.7 46.79 71.54 44.76 69.01 44.65V44.64ZM71.71 52.78C70.86 55.09 68.17 55.61 66.52 53.79C65.33 52.47 65.3 48.8 66.48 47.44C68.03 45.65 70.5 45.94 71.57 48.06C71.97 48.84 72.09 49.68 72.08 50.55C72.06 51.31 71.97 52.07 71.7 52.79L71.71 52.78Z" fill="white"/>
<path d="M74.12 28.22C76.46 25.29 77.75 21.94 77.51 18.1C77.69 15.38 76.92 12.86 75.87 10.38C74.91 8.09999 73.31 6.47999 71 5.67999C68.1 4.67999 65.13 4.31999 62.11 5.27999C60.44 5.80999 58.74 6.22999 57.43 7.55999C56.12 8.89999 55.18 10.39 54.7 12.22C54.24 14 53.73 15.77 53.74 17.6C53.76 19.92 54 22.21 54.84 24.44C56.08 27.73 58.27 29.95 61.5 31.22C63.7 32.09 65.93 32.03 68.23 31.66C70.67 31.27 72.62 30.07 74.11 28.2L74.12 28.22ZM62.09 25.39C61.23 24.51 60.67 23.44 60.3 22.27C59.36 19.24 59.3 16.22 60.28 13.16C60.78 11.6 61.94 10.71 63.27 10.1C66.14 8.78999 69.02 10.02 70.35 12.47C71.27 14.18 71.72 15.91 71.78 18.99C71.56 21.13 71.04 23.61 69.01 25.53C67.01 27.42 63.5 26.81 62.09 25.37V25.39Z" fill="white"/>
<path d="M182.18 7.86C181.39 8.64 180.65 9.46 180.24 10.46C179.34 12.62 178.8 14.91 178.71 17.24C178.6 19.98 178.95 22.68 180.12 25.23C180.9 26.92 181.92 28.44 183.4 29.56C187.11 32.36 191.19 32.55 195.44 31.08C196.57 30.69 197.55 29.92 198.36 29.08C201.27 26.05 202.68 22.38 202.63 18.16C202.62 17.24 202.53 16.32 202.42 15.4C202.17 13.28 201.38 11.36 200.47 9.48C200.16 8.84 199.73 8.27 199.23 7.74C197.03 5.42 194.12 4.8 191.17 4.72C187.85 4.63 184.68 5.36 182.17 7.86H182.18ZM195.68 13.24C196.92 16.47 197.11 19.73 195.75 22.95C194.86 25.06 193.42 26.6 190.93 26.7C189.01 26.78 187.46 26.07 186.38 24.43C185.05 22.41 184.7 20.13 184.63 17.78C184.63 16.17 184.8 14.6 185.36 13.09C186.02 11.31 187.4 10.37 189.13 9.83C192.2 8.88 194.86 11.11 195.68 13.24Z" fill="white"/>
<path d="M229.62 48.98C228.99 48.98 228.36 48.96 227.73 48.98C227.29 49 227.03 49.23 227.02 49.7C227.02 50.15 227.24 50.44 227.69 50.45C228.92 50.47 230.15 50.47 231.38 50.45C231.82 50.45 232.08 50.2 232.09 49.74C232.09 49.22 231.8 48.99 231.33 48.97C230.76 48.95 230.19 48.97 229.63 48.97L229.62 48.98Z" fill="white"/>
<path d="M29.25 24.43C29.25 26.09 29.23 27.75 29.44 29.4C29.61 30.72 29.92 31 31.24 31.19C33.22 31.47 35.22 31.44 37.21 31.5C39.9 31.57 42.45 31.12 44.85 29.87C46.59 28.97 48.02 27.69 48.85 25.94C49.65 24.26 50.36 22.52 50.47 20.59C50.75 16.04 50.29 11.71 47.11 8.11001C46.12 6.99001 44.94 6.10001 43.43 5.83001C40.99 5.38001 38.52 5.36001 36.04 5.44001C34.88 5.44001 33.71 5.41001 32.55 5.44001C30.71 5.49001 29.52 6.59001 29.33 8.40001C28.99 11.62 29.25 14.86 29.24 18.08C29.24 20.19 29.25 22.3 29.24 24.41L29.25 24.43ZM34.32 17.72C34.32 15.34 34.32 13.42 34.32 11.49C34.32 10.47 34.59 10.27 35.59 10.23C37.56 10.15 39.47 10.32 41.26 11.26C42.89 12.11 44.38 13.16 44.82 15.02C45.38 17.39 45.35 19.81 44.64 22.19C44.21 23.62 43.21 24.55 41.96 25.17C40.24 26.01 38.37 26.22 36.48 25.98C35.86 25.9 35.1 26.19 34.64 25.69C34.2 25.22 34.48 24.5 34.42 23.9C34.2 21.7 34.41 19.49 34.33 17.74L34.32 17.72Z" fill="white"/>
<path d="M214.62 31.7C216.26 32.13 217.89 32.2 219.61 32C221.72 31.76 223.57 31.01 225.34 30C226.32 29.44 227.24 28.69 227.94 27.8C229.98 25.2 230.77 22.19 230.58 18.92C230.51 17.65 229.56 16.64 228.35 16.66C224.84 16.7 221.33 16.12 217.81 16.49C217.11 16.56 216.7 16.82 216.53 17.48C216.47 17.71 216.41 17.94 216.34 18.17C215.78 20.13 216.78 21.49 218.82 21.49C220.46 21.49 222.09 21.8 223.73 21.67C224.28 21.63 224.51 21.9 224.39 22.47C224.07 23.97 223.42 25.2 222.03 26.03C220.52 26.92 218.91 27.23 217.23 27.01C215.59 26.79 214.01 26.16 213.15 24.68C211.76 22.29 210.9 19.69 211.21 16.85C211.43 14.85 212.12 13.01 213.46 11.48C215.61 9.01999 219.73 9.15999 221.88 10.5C222.87 11.12 223.87 11.71 224.87 12.3C225.53 12.69 226.22 12.76 226.89 12.3C227.67 11.77 228.28 11.07 228.69 10.22C229.04 9.50999 228.99 8.75999 228.37 8.25999C227.24 7.31999 226.09 6.35999 224.7 5.83999C222.8 5.13999 220.85 4.60999 218.78 4.79999C218.33 4.79999 217.88 4.77999 217.43 4.79999C215.24 4.93999 213.13 5.48999 211.26 6.59999C208.92 7.98999 207.22 9.90999 206.56 12.73C205.53 17.14 205.21 21.45 207.17 25.69C208.67 28.91 211.25 30.79 214.62 31.68V31.7Z" fill="white"/>
<path d="M0.74 50.46C1.34 50.48 1.94 50.46 2.54 50.46C3.11 50.46 3.68 50.47 4.25 50.46C4.71 50.45 5.05 50.25 5.05 49.73C5.05 49.2 4.71 49 4.25 48.99C3.08 48.97 1.91 48.97 0.74 48.99C0.26 48.99 -0.0199996 49.26 -0.00999959 49.77C0.0100004 50.24 0.3 50.45 0.73 50.46H0.74Z" fill="white"/>
<path d="M1.29 31.47C2.1 31.5 2.91 31.47 3.71 31.5C4.86 31.54 5.61 31.01 6.02 29.96C6.45 28.85 6.89 27.75 7.31 26.64C7.48 26.2 7.73 25.92 8.24 25.92C11.59 25.92 14.94 25.92 18.28 25.92C18.66 25.92 18.96 26.06 19.15 26.42C19.83 27.72 20.65 28.95 21.1 30.37C21.25 30.85 21.56 31.24 22.08 31.31C23.09 31.44 24.1 31.6 25.13 31.36C26.25 31.1 26.55 30.67 26.22 29.59C25.94 28.66 25.64 27.72 25.23 26.84C24.16 24.56 23.4 22.16 22.41 19.85C21.33 17.31 20.5 14.68 19.47 12.13C18.88 10.68 18.46 9.16999 17.85 7.71999C17.04 5.79999 16.25 3.85999 15.52 1.89999C14.96 0.409992 14.62 0.109992 12.92 0.119992C11.91 0.0299915 10.98 0.359992 10.46 1.39999C10.05 2.21999 9.72 3.09999 9.42 3.96999C8.41 6.87999 7.48 9.82999 6.41 12.72C5.5 15.17 4.73 17.66 3.85 20.12C2.96 22.62 2.12 25.14 1.18 27.62C0.83 28.53 0.49 29.45 0.39 30.43C0.32 31.16 0.56 31.45 1.3 31.48L1.29 31.47ZM9.42 19.72C10.29 17.57 10.97 15.34 11.95 13.23C12.24 12.61 12.35 11.92 12.56 11.26C12.61 11.09 12.67 10.86 12.91 10.86C13.14 10.86 13.19 11.08 13.29 11.24C14.89 13.97 15.96 16.94 17.14 19.86C17.35 20.37 17.07 20.5 16.64 20.51C15.5 20.51 14.36 20.51 13.22 20.51C12.13 20.51 11.04 20.51 9.95 20.51C9.35 20.51 9.19 20.28 9.42 19.72Z" fill="white"/>
<path d="M217.66 50.13C216.59 49.72 215.43 49.65 214.38 49.16C213.88 48.92 213.56 48.56 213.53 47.99C213.5 47.4 213.78 46.95 214.27 46.64C215.44 45.9 217.11 46.28 217.88 47.46C218.31 48.12 219.28 48.48 219.73 48.05C220.33 47.49 219.84 46.9 219.53 46.44C218.6 45.04 217.15 44.65 215.75 44.6C214.68 44.58 213.86 44.86 213.13 45.32C212.06 45.99 211.47 46.96 211.59 48.27C211.71 49.49 212.5 50.18 213.55 50.62C214.02 50.81 214.51 50.93 215 51.09C215.81 51.36 216.69 51.43 217.41 51.92C217.94 52.28 218.3 52.75 218.19 53.43C218.08 54.1 217.62 54.46 217.01 54.67C215.42 55.19 214.1 54.71 213.13 53.24C212.73 52.63 212.14 52.65 211.61 52.87C210.98 53.12 211.28 53.67 211.44 54.1C211.61 54.55 211.91 54.93 212.26 55.26C213.84 56.73 217.09 56.92 218.83 55.64C219.99 54.78 220.46 53.36 219.97 52.1C219.56 51.03 218.66 50.52 217.66 50.13Z" fill="white"/>
<path d="M181.3 44.66C179.3 44.35 177.32 45.27 176.27 46.98C175.02 49.01 175.1 51.19 175.83 53.3C176.67 55.72 179.16 56.92 181.67 56.37C184.2 55.81 185.7 53.65 185.7 50.47C185.74 49.83 185.62 49.11 185.45 48.4C185.01 46.56 183.21 44.96 181.3 44.66ZM183.35 52.81C182.91 54.05 182.02 54.72 180.74 54.83C179.43 54.95 178.49 54.33 177.86 53.2C177.41 52.4 177.31 51.53 177.33 50.57C177.3 49.86 177.42 49.11 177.69 48.39C178.2 47.05 179.17 46.32 180.46 46.3C181.78 46.28 182.73 46.92 183.3 48.26C183.93 49.76 183.89 51.28 183.36 52.8L183.35 52.81Z" fill="white"/>
<path d="M205.53 44.73C203.49 44.33 201.42 45.32 200.43 47.19C199.56 48.82 199.44 50.56 199.74 52.36C200 53.91 200.88 55.02 202.17 55.82C204.05 56.98 206.89 56.67 208.34 55.17C208.68 54.82 209.05 54.47 208.61 53.95C208.21 53.48 207.78 53.62 207.36 53.95C207.16 54.1 206.96 54.26 206.74 54.39C204.93 55.5 202.53 54.64 201.83 52.64C201.47 51.6 201.77 51.13 202.86 51.1C203.71 51.08 204.57 51.1 205.42 51.1C205.99 51.1 206.56 51.1 207.13 51.1C208.617 51.1 209.277 50.3567 209.11 48.87C208.87 46.66 207.56 45.15 205.52 44.75L205.53 44.73ZM206.17 49.51C205.6 49.52 205.03 49.51 204.47 49.51V49.49C203.81 49.49 203.15 49.51 202.48 49.49C201.92 49.47 201.71 49.17 201.83 48.6C202.09 47.39 203.21 46.37 204.4 46.29C205.65 46.21 206.61 46.87 207.08 48.12C207.45 49.1 207.2 49.48 206.17 49.5V49.51Z" fill="white"/>
<path d="M191.73 45.02C191.34 45.23 190.97 45.47 190.59 45.7C190.36 45.84 190.15 45.86 190.08 45.55C189.92 44.78 189.37 44.72 188.77 44.85C188.1 45 188.17 45.58 188.16 46.08C188.15 47.54 188.16 49 188.16 50.46C188.16 51.92 188.16 53.38 188.16 54.84C188.16 55.53 188.13 56.22 189.14 56.2C190.1 56.19 190.07 55.53 190.07 54.88C190.07 52.95 190.06 51.01 190.08 49.08C190.1 47.46 191.35 46.28 192.96 46.32C194.42 46.35 195.18 47.25 195.19 49.03C195.21 51.09 195.2 53.15 195.2 55.21C195.2 55.87 195.47 56.21 196.16 56.21C196.86 56.21 197.11 55.85 197.11 55.2C197.11 52.79 197.18 50.38 197.07 47.97C196.95 45.25 194.14 43.75 191.72 45.03L191.73 45.02Z" fill="white"/>
<path d="M165.76 31.03C168.43 30.2 170.72 28.85 172.36 26.41C174.12 23.78 174.96 20.89 175.38 17.83C175.78 14.93 175.47 12.06 174.76 9.22999C174.59 8.55999 174.26 7.93999 174.12 7.26999C173.69 5.09999 172.25 3.61999 170.66 2.27999C169.05 0.91999 167.08 0.439991 165.01 0.209991C163.54 0.0499906 162.07 0.139991 160.61 0.0299906C159.03 -0.0800094 157.48 0.0899906 155.92 0.159991C154.92 0.199991 153.78 0.329991 153.36 1.58999C153.2 2.06999 153.08 2.55999 153.1 3.05999C153.2 4.90999 152.95 6.75999 153 8.45999C152.95 11.15 153.17 13.68 153 16.22C152.84 18.59 153.19 20.96 153.08 23.34C153.01 24.99 153.23 26.65 153.26 28.3C153.3 30.11 154.31 31.18 156.12 31.34C158.3 31.53 160.48 31.55 162.66 31.45C163.7 31.4 164.77 31.32 165.75 31.01L165.76 31.03ZM159.49 25.75C159.03 25.69 158.6 25.56 158.62 25.01C158.66 23.65 158.38 22.31 158.44 20.96C158.59 17.27 158.5 13.57 158.57 9.87999C158.59 8.75999 158.38 7.65999 158.41 6.53999C158.44 5.37999 158.77 5.02999 159.93 5.13999C161 5.23999 162.04 4.86999 163.12 5.09999C164.31 5.34999 165.48 5.60999 166.56 6.18999C168.35 7.14999 168.9 8.89999 169.49 10.65C169.87 11.79 169.9 12.98 170.02 14.2C169.85 16.96 169.98 19.81 168.63 22.42C167.89 23.86 166.7 24.82 165.19 25.33C163.33 25.96 161.42 26.01 159.49 25.76V25.75Z" fill="white"/>
</g>
<defs>
<clipPath id="clip0_5_76">
<rect width="232.09" height="60.73" fill="white"/>
</clipPath>
</defs>
</svg>
