<svg width="500" height="375" viewBox="0 0 500 375" fill="none" xmlns="http://www.w3.org/2000/svg">
<path fill-rule="evenodd" clip-rule="evenodd" d="M211.816 92.6854C215.079 94.2357 218.294 95.8667 221.501 97.53C225.828 99.7828 230.382 101.155 235.302 101.026C241.017 100.881 246.164 98.9269 251.084 96.1331C253.115 94.9794 255.233 93.9685 257.349 92.9582L257.35 92.9577L257.351 92.9575L257.352 92.957C258.212 92.5466 259.071 92.1362 259.925 91.7165C260.663 91.3531 261.443 91.3208 262.117 91.8537C262.79 92.3947 262.896 93.1779 262.717 93.9611C262.52 94.8067 262.334 95.656 262.148 96.5052C261.651 98.7697 261.155 101.034 260.452 103.231C258.969 107.884 257.362 112.503 255.754 117.121C255.303 118.417 254.852 119.713 254.404 121.01C251.741 128.721 250.889 136.61 252.082 144.676C253.487 154.188 257.505 162.585 263.416 170.135C264.779 171.879 265.567 173.712 265.526 176.053C265.427 181.026 265.445 186.003 265.463 190.979V190.982V190.983C265.47 192.937 265.478 194.891 265.478 196.845H265.461C265.461 199.241 265.462 201.639 265.463 204.037V204.038V204.039V204.04V204.041V204.042L265.463 204.283C265.465 209.243 265.467 214.204 265.461 219.162C265.461 220.955 265.177 221.229 263.391 221.246C262.153 221.258 260.913 221.258 259.674 221.258C258.433 221.258 257.193 221.258 255.955 221.27C252.813 221.294 250.645 223.393 250.605 226.429C250.572 229.328 252.764 231.444 255.874 231.452C260.672 231.468 265.478 231.476 270.275 231.452C273.904 231.427 275.934 229.578 275.983 226.001C276.07 220.047 276.079 214.087 276.089 208.131V208.13V208.128V208.127V208.126V208.124V208.123V208.122C276.091 206.844 276.093 205.567 276.096 204.289C276.107 197.423 276.103 190.557 276.1 183.694V183.652C276.098 180.214 276.096 176.777 276.096 173.34L276.096 173.187L276.097 173.077C276.1 171.618 276.103 170.131 275.268 168.859C273.969 166.881 272.646 164.919 271.201 163.045C266.712 157.248 263.594 150.821 262.466 143.57C261.451 137.078 262.003 130.651 264.284 124.466C267.458 115.835 270.194 107.066 272.557 98.184C273.231 95.6567 273.539 93.1537 273.06 90.4568C271.907 83.8924 263.708 78.4826 255.508 82.2129C252.972 83.3664 250.528 84.6781 248.085 85.9893L248.084 85.9894C246.218 86.9911 244.352 87.9925 242.446 88.9227C237.843 91.1674 233.15 91.2966 228.515 89.3507C225.106 87.9197 221.812 86.2153 218.527 84.5163C218.198 84.3459 217.868 84.1755 217.539 84.0054C215.558 82.9881 215.436 82.1564 216.678 80.3397C217.245 79.5129 217.813 78.6874 218.382 77.8618L218.382 77.8614C221.455 73.3976 224.529 68.9324 227.297 64.2717C228.393 62.4145 228.807 60.5574 227.784 58.442C226.51 55.8097 225.3 53.1452 224.155 50.4483C222.613 46.8149 222.962 43.5205 225.016 40.1939C226.807 37.2928 228.735 34.4804 230.663 31.6692C231.584 30.3258 232.505 28.9826 233.41 27.6301C237.827 21.0253 243.599 16.1161 250.954 13.0559C255.939 10.9808 261.142 10.2379 266.533 10.464C271.477 10.6739 276.194 11.9255 280.927 13.2255C291.797 16.2049 301.701 21.1626 310.916 27.5332C314.361 29.9093 317.515 32.6565 320.667 35.4007L320.682 35.4142L320.821 35.5347L321.204 35.8682L321.461 36.0921C328.07 41.841 334.207 48.0583 339.882 54.7116C344.249 59.8307 348.187 65.289 352.075 70.7877C356.264 76.7223 359.885 82.9961 363.271 89.383C365.568 93.7189 367.557 98.2244 369.473 102.77C372.136 109.084 374.417 115.504 376.349 122.052C379.02 131.111 380.952 140.332 382.259 149.699C382.917 154.382 383.388 159.089 383.656 163.772C384.037 170.563 383.94 177.386 383.712 184.192C383.534 189.562 383.047 194.931 382.3 200.268C381.634 205.04 380.936 209.812 379.726 214.495C379.088 216.983 378.519 219.483 377.95 221.987L377.95 221.988L377.95 221.988L377.95 221.988L377.95 221.988L377.95 221.989L377.95 221.989L377.949 221.989C377.745 222.89 377.54 223.792 377.331 224.693C376.836 226.825 377.007 228.803 378.858 230.289C380.782 231.823 382.998 231.823 384.987 230.757C387.836 229.231 390.654 227.536 393.203 225.557C397.254 222.4 401.012 218.912 404.528 215.117C409.829 209.376 413.969 202.925 417.281 195.949C422.226 185.549 424.775 174.576 424.442 163.005C424.393 161.164 423.914 159.856 422.25 158.782C419.214 156.828 415.382 158.225 414.351 161.737C413.927 163.187 413.945 164.642 413.963 166.097V166.097C413.974 166.984 413.985 167.87 413.896 168.754C413.425 173.526 412.459 178.201 411.055 182.755C409.52 187.705 407.458 192.46 404.747 196.926C401.313 202.578 397.319 207.761 392.431 212.243C392.361 212.307 392.291 212.387 392.219 212.47C391.968 212.757 391.696 213.069 391.311 212.824C390.974 212.61 391.081 212.226 391.182 211.867C391.215 211.75 391.246 211.637 391.262 211.532C391.446 210.305 391.637 209.079 391.829 207.854L391.83 207.848C392.419 204.083 393.008 200.317 393.357 196.506C393.447 195.507 393.545 194.508 393.643 193.508C393.926 190.631 394.208 187.751 394.299 184.862C394.338 183.587 394.397 182.311 394.456 181.036C394.616 177.596 394.775 174.156 394.55 170.716C394.424 168.803 394.342 166.887 394.26 164.97L394.26 164.969V164.968C394.095 161.1 393.929 157.229 393.397 153.38C393.223 152.116 393.056 150.85 392.89 149.584C392.522 146.786 392.154 143.99 391.701 141.204C391.097 137.484 390.263 133.812 389.43 130.142L389.429 130.141L389.429 130.141L389.429 130.141L389.429 130.141L389.429 130.14L389.429 130.14L389.428 130.137L389.425 130.124L389.424 130.117L389.381 129.93C389.267 129.425 389.152 128.92 389.038 128.414L388.911 127.853C388.297 125.14 387.68 122.419 386.83 119.775C385.028 114.212 383.185 108.673 381.05 103.214C378.062 95.6002 374.563 88.2445 370.699 81.0421C367.614 75.2932 364.107 69.8026 360.486 64.3766C357.685 60.1779 354.608 56.1973 351.491 52.2651C348.016 47.8887 344.241 43.7466 340.393 39.669C334.223 33.153 327.639 27.1134 320.593 21.5744C314.26 16.6005 307.295 12.5795 300.005 9.13982C291.139 4.95729 281.844 2.13126 272.151 0.597128C263.765 -0.735144 255.63 0.169186 247.698 3.23745C240.27 6.10385 233.841 10.4156 228.84 16.5359C224.18 22.2284 220.194 28.4214 216.329 34.6791C213.391 39.4349 212.067 44.546 213.22 50.1415C213.764 52.7633 214.907 55.1587 216.047 57.5478C216.234 57.9399 216.421 58.3318 216.605 58.7246C217.271 60.1456 217.133 61.2518 216.305 62.576C214.728 65.1012 213.03 67.5437 211.331 69.9865L211.331 69.9868L211.331 69.9871L211.331 69.9874L211.331 69.9877L211.33 69.988L211.33 69.9883L211.33 69.9886C209.89 72.0599 208.45 74.1315 207.083 76.254C203.502 81.8173 205.865 89.8513 211.856 92.6935L211.816 92.6854ZM253.933 28.4456C254.299 25.5469 256.539 23.7383 259.243 23.9967H259.235C262.279 24.2873 264.26 26.5159 264.106 29.4872C263.472 41.7199 271.25 52.7091 283.013 56.2054C285.903 57.0612 286.325 56.9078 287.981 54.3967C290.92 49.9558 292.52 45.1192 292.414 39.7579C292.365 37.4486 291.383 35.6803 289.426 34.5257C284.921 31.8692 281.219 28.3649 278.11 24.1985C276.218 21.6551 276.112 19.1278 277.858 17.1657C280.139 14.6062 283.5 14.5496 285.838 17.085C286.46 17.7556 287.011 18.4925 287.563 19.2304C287.782 19.523 288.001 19.8159 288.225 20.1048C289.957 22.3284 292.228 23.8893 294.504 25.4544C294.981 25.7818 295.457 26.1093 295.929 26.4432C298.892 28.5425 301.068 31.2798 302.107 34.8406L302.167 35.0437C302.676 36.7583 303.177 38.4498 302.927 40.2908C302.627 48.7366 300.045 56.4072 294.565 62.9475C291.221 66.9281 286.317 67.8567 281.479 66.6294C274.489 64.853 268.554 61.2357 263.643 56.0762C260.038 52.2812 257.367 47.8242 255.679 42.8342C254.096 38.1591 253.316 33.371 253.933 28.4456ZM314.572 221.254C317.215 221.256 319.858 221.257 322.5 221.237L322.484 221.229C322.606 221.229 322.738 221.242 322.873 221.254C323.375 221.301 323.916 221.352 324.14 220.785C324.339 220.276 323.909 219.866 323.538 219.511L323.492 219.468C323.455 219.433 323.419 219.398 323.385 219.364C319.724 215.747 317.053 211.451 314.65 206.954C310.623 199.412 309.065 191.459 311.346 183.143C313.595 174.963 318.831 169.109 326.438 165.185C331.828 162.408 337.535 161.907 343.308 162.569C347.099 163.005 350.776 164.354 354.097 166.509C359.504 170.014 363.335 174.729 365.706 180.656C366.916 183.692 367.386 186.897 367.557 190.135C367.719 193.252 365.568 195.609 362.515 195.852C359.82 196.07 357.498 194.051 357.239 190.951C356.881 186.647 355.769 182.69 352.912 179.323C349.583 175.407 345.378 173.09 340.247 172.743C332.275 172.202 325.066 176.764 322.095 184.079C320.357 188.359 320.463 192.727 321.827 197.055C324.408 205.25 329.701 211.597 336.009 217.216C338.088 219.065 340.19 220.874 342.488 222.457C343.941 223.458 344.517 226.058 343.868 227.963C343.097 230.24 341.587 231.452 339.322 231.452C333.295 231.464 327.265 231.462 321.233 231.461H321.232H321.232H321.232H321.231H321.231H321.23H321.23H321.23H321.229H321.229H321.229H321.228H321.228H321.228H321.227H321.227H321.226H321.226H321.226H321.225H321.225H321.225H321.224H321.224H321.224H321.223H321.223H321.222C319.213 231.46 317.203 231.46 315.194 231.46C313.921 231.46 312.649 231.465 311.376 231.47C308.468 231.482 305.562 231.494 302.659 231.444C298.86 231.371 296.725 228.488 297.667 224.863C298.194 222.844 300.232 221.302 302.521 221.278C304.867 221.255 307.217 221.26 309.566 221.265H309.569H309.57H309.57L310.387 221.267L311.086 221.268L311.456 221.269L312.074 221.27L312.588 221.27V221.254L313.249 221.254L314.572 221.254ZM322.509 307.488C323.548 309.644 324.311 311.961 324.895 314.311V314.303C325.204 315.546 324.725 316.313 323.629 316.749C321.039 317.767 318.344 317.516 315.681 317.218C314.455 317.08 313.789 315.99 313.384 314.908C312.466 312.458 311.194 310.192 309.919 307.919C309.761 307.638 309.603 307.358 309.446 307.076C308.724 305.784 307.79 305.227 306.337 305.292C304.435 305.374 302.531 305.372 300.626 305.37C297.685 305.366 294.742 305.362 291.805 305.671C290.727 305.782 289.655 305.658 288.579 305.534L288.578 305.534C287.701 305.433 286.822 305.331 285.936 305.356C284.507 305.397 283.768 305.954 283.386 307.294C282.839 309.239 282.054 311.101 281.27 312.961L281.27 312.962L281.263 312.98L281.082 313.409C281.011 313.577 280.94 313.746 280.87 313.915C279.871 316.313 278.296 317.694 275.552 317.46C275.06 317.416 274.567 317.428 274.074 317.44C274.01 317.442 273.945 317.444 273.88 317.445L273.761 317.448C273.712 317.449 273.663 317.449 273.613 317.45L273.527 317.451C273.48 317.452 273.432 317.452 273.385 317.452V317.428C273.041 317.428 272.697 317.432 272.354 317.436C271.666 317.445 270.979 317.454 270.292 317.428C268.676 317.371 268.222 316.806 268.376 315.175C268.522 313.633 268.822 312.123 269.472 310.71C270.814 307.807 271.846 304.788 272.878 301.771L272.878 301.77C273.456 300.078 274.035 298.387 274.667 296.717C275.696 294.002 276.58 291.234 277.463 288.467C278.296 285.859 279.129 283.251 280.082 280.689C281.09 277.981 282.028 275.249 282.966 272.517L282.967 272.515L282.967 272.512C283.774 270.163 284.581 267.813 285.432 265.477C285.909 264.167 286.364 262.848 286.819 261.528L286.821 261.524L286.821 261.523C287.838 258.576 288.855 255.628 290.117 252.768C290.953 250.879 292.195 249.724 294.289 249.667C294.671 249.657 295.052 249.624 295.434 249.592C296.228 249.524 297.025 249.456 297.837 249.587C299.436 249.853 300.394 250.733 300.938 252.227C302.616 256.877 304.547 261.425 306.48 265.977L306.799 266.727L306.994 267.189C307.271 267.851 307.522 268.529 307.693 269.223C308.337 271.889 309.385 274.403 310.433 276.918L310.433 276.918C311.061 278.425 311.689 279.932 312.231 281.472C313.245 284.341 314.323 287.185 315.401 290.028L315.401 290.03L315.402 290.031L315.402 290.033L315.403 290.034L315.404 290.036L315.404 290.037L315.405 290.039L315.405 290.04L315.406 290.042L315.406 290.044L315.407 290.045L315.407 290.047L315.408 290.048L315.409 290.05L315.409 290.051L315.41 290.053L315.41 290.054L315.411 290.056L315.411 290.058L315.412 290.059L315.412 290.061L315.413 290.062L315.413 290.064L315.414 290.065L315.415 290.067L315.415 290.068L315.416 290.07L315.416 290.072L315.417 290.073L315.417 290.075L315.418 290.076L315.418 290.078C315.878 291.292 316.338 292.506 316.793 293.721C316.806 293.758 316.819 293.797 316.832 293.837C316.866 293.944 316.902 294.055 316.956 294.149C318.302 296.519 319.226 299.066 320.15 301.615L320.15 301.615C320.869 303.599 321.588 305.584 322.509 307.488ZM298.459 293.705C300.086 293.714 301.712 293.722 303.341 293.689C305.054 293.657 305.111 293.43 304.559 291.888C303.879 289.972 303.089 288.103 302.299 286.234L302.299 286.234C302.014 285.56 301.729 284.886 301.45 284.21C300.021 280.754 298.56 277.314 296.595 274.117C296.544 274.035 296.496 273.946 296.448 273.855C296.252 273.488 296.046 273.101 295.531 273.14C295.171 273.164 295.054 273.468 294.939 273.768L294.938 273.769C294.923 273.807 294.909 273.846 294.893 273.884C294.87 273.942 294.845 273.999 294.817 274.052C294.496 274.657 294.353 275.324 294.212 275.987L294.211 275.987C294.084 276.581 293.958 277.172 293.705 277.71C292.254 280.826 291.067 284.045 289.88 287.266C289.314 288.802 288.747 290.338 288.152 291.864C287.511 293.503 287.608 293.689 289.443 293.697C290.953 293.702 292.463 293.701 293.973 293.699L294.578 293.698L295.189 293.697C295.539 293.697 295.888 293.697 296.238 293.697C296.979 293.697 297.719 293.701 298.459 293.705ZM306.366 350.031C306.549 349.921 306.737 349.808 306.938 349.717V349.725C311.378 347.698 315.738 350.032 316.753 353.899C317.613 357.194 317.881 360.504 316.566 363.71C314.894 367.796 310.623 369.297 306.718 367.335C305.217 366.584 305.111 366.633 305.087 368.272C305.073 369.182 305.072 370.096 305.071 371.008C305.07 371.739 305.07 372.469 305.062 373.197C305.054 374.271 304.608 374.949 303.422 374.998C302.221 375.046 301.904 374.279 301.88 373.326C301.852 372.159 301.859 370.992 301.866 369.825V369.822C301.869 369.302 301.872 368.783 301.872 368.264C301.904 365.653 301.849 363.042 301.794 360.432C301.737 357.762 301.681 355.092 301.718 352.422L301.719 352.308C301.726 351.78 301.733 351.246 301.839 350.734C302.075 349.588 303.479 348.877 304.145 349.717C305.035 350.827 305.658 350.454 306.366 350.031ZM305.907 364.21C308.026 366.237 311.947 365.817 313.205 363.193H313.197C314.666 360.149 314.601 356.927 313.197 353.851C312.434 352.172 310.023 351.332 308.131 351.832C306.069 352.39 305.103 353.649 305.095 355.837V358.599V361.514C305.095 362.491 305.103 363.443 305.907 364.21ZM276.9 343.225C276.981 342.224 276.665 341.546 275.463 341.505C274.237 341.465 273.807 342.038 273.815 343.177C273.831 345.179 273.815 347.182 273.791 349.184C273.783 350.266 273.515 350.759 272.321 350.04C268.538 347.779 264.26 349.16 262.303 353.084C261.382 354.932 261.324 356.88 261.266 358.818L261.259 359.062C261.255 359.177 261.252 359.292 261.248 359.406C261.118 363.492 263.521 366.932 267.012 367.949C268.944 368.514 270.657 367.836 272.354 367.02C272.457 366.971 272.565 366.897 272.674 366.822C273.046 366.567 273.443 366.295 273.807 366.875C274.416 367.844 275.284 367.771 276.121 367.513C276.95 367.259 276.92 366.536 276.893 365.874C276.888 365.758 276.884 365.644 276.884 365.535C276.901 362.914 276.898 360.29 276.894 357.782C276.893 356.804 276.892 355.844 276.892 354.909C276.936 353.182 276.888 351.51 276.841 349.869V349.868V349.867V349.867V349.866V349.866V349.865V349.864V349.864V349.863V349.862V349.862V349.861V349.861V349.86V349.86V349.859V349.859V349.858V349.858V349.857V349.857V349.856V349.856V349.855V349.855V349.855V349.854V349.854V349.853V349.853V349.852C276.777 347.601 276.714 345.409 276.892 343.217L276.9 343.225ZM273.799 360.698C273.774 363.379 272.516 364.929 270.04 365.341C267.775 365.72 265.429 364.348 264.828 361.982C264.219 359.576 264.187 357.089 265.047 354.699C265.689 352.914 266.971 351.808 268.912 351.566C270.836 351.332 272.135 352.373 273.263 353.73C273.685 354.231 273.783 354.836 273.791 355.466C273.796 356.118 273.794 356.77 273.792 357.419L273.792 357.452V357.454C273.792 357.634 273.791 357.813 273.791 357.991C273.791 358.124 273.791 358.256 273.791 358.389H273.799V360.698ZM267 267.169C267.006 267.528 267.012 267.887 267.012 268.247H266.971C266.963 271.283 265.989 272.469 262.904 272.704C261.238 272.826 259.561 272.803 257.886 272.779H257.884H257.883C257.134 272.768 256.385 272.758 255.638 272.76C255.432 272.762 255.225 272.762 255.019 272.762C254.503 272.761 253.987 272.76 253.471 272.8C251.409 272.954 250.54 273.777 250.597 275.845C250.661 278.255 250.645 280.664 250.629 283.072C250.6 287.319 250.572 291.565 250.986 295.821C251.327 299.244 251.335 302.764 250.986 306.261C250.868 307.485 250.953 308.727 251.038 309.972L251.038 309.973C251.093 310.781 251.149 311.59 251.149 312.397C251.157 316.087 250.54 316.709 246.838 317.161C245.141 317.371 243.461 317.5 241.764 317.137C240.587 316.887 239.856 316.257 239.499 315.094C239.182 314.044 239.085 312.987 239.085 311.905V294.666H239.077C239.077 292.702 239.08 290.737 239.082 288.771C239.088 284.838 239.093 280.902 239.077 276.967C239.069 274.213 238.557 273.777 235.903 273.156C234.384 272.801 232.849 272.767 231.314 272.733H231.313C230.017 272.704 228.721 272.675 227.435 272.453C223.977 271.856 223.311 271.169 223.295 267.609L223.294 267.392C223.285 265.826 223.276 264.269 223.912 262.764C224.456 261.488 225.349 260.754 226.737 260.754C227.726 260.75 228.716 260.735 229.706 260.72H229.706H229.707H229.707H229.708H229.708H229.708H229.708H229.709H229.709H229.709H229.709H229.71H229.71H229.71H229.711H229.711H229.711H229.711H229.712H229.712H229.712H229.712H229.713H229.713H229.713H229.714H229.714H229.714H229.714H229.715H229.715H229.715C232.849 260.672 235.984 260.624 239.109 260.931C240.12 261.028 241.121 260.962 242.124 260.896C242.966 260.841 243.81 260.786 244.662 260.826C248.188 260.985 251.714 261.063 255.239 261.142C257.632 261.195 260.024 261.248 262.417 261.327C265.867 261.44 266.996 262.675 266.988 266.091C266.988 266.45 266.994 266.809 267 267.169ZM293.226 349.887C290.303 348.457 287.421 348.57 284.71 350.363C280.821 352.931 279.668 359.673 282.323 364.009C284.458 367.489 288.038 368.95 291.7 367.836C295.71 366.609 297.715 363.5 297.691 358.51C297.691 358.33 297.697 358.15 297.702 357.969C297.715 357.582 297.727 357.194 297.683 356.814C297.326 353.803 296.132 351.3 293.242 349.895L293.226 349.887ZM293.453 363.177C291.164 366.471 286.658 366.213 284.97 362.579C283.711 359.883 283.76 357.057 285.083 354.392C286.869 350.783 291.148 350.613 293.461 353.94C294.46 355.377 294.638 356.976 294.565 358.704C294.695 360.27 294.427 361.78 293.461 363.177H293.453ZM343.519 351.017C343.519 349.846 343.097 349.184 341.806 349.184C340.499 349.184 340.125 349.895 340.125 351.041C340.141 356.007 340.141 360.973 340.125 365.938C340.125 367.045 340.523 367.658 341.741 367.674C342.999 367.69 343.519 367.141 343.502 365.922C343.486 364.248 343.492 362.574 343.497 360.9C343.5 360.063 343.502 359.226 343.502 358.389C343.502 357.594 343.502 356.8 343.501 356.006L343.501 355.927V355.926V355.926V355.925V355.924V355.923V355.922V355.921V355.92V355.919V355.918V355.917V355.916V355.915V355.915V355.914V355.913V355.912C343.499 354.278 343.497 352.645 343.502 351.009L343.519 351.017ZM340.15 344.364C340.15 343.322 340.718 342.733 341.765 342.708H341.773C342.845 342.684 343.6 343.201 343.64 344.307C343.681 345.413 342.975 345.954 341.944 346.051C340.783 346.027 340.15 345.494 340.15 344.364ZM257.059 358.728C257.124 357.234 257.002 355.603 256.775 353.972C256.539 352.285 255.703 351.009 254.291 350.08C251.116 347.981 245.604 349.014 243.444 352.123C242.998 352.769 242.462 353.544 243.347 354.134C244.11 354.634 245.044 354.57 245.758 353.851C245.908 353.698 246.026 353.516 246.145 353.332C246.251 353.168 246.358 353.003 246.489 352.858C248.389 350.718 252.407 351.291 253.519 353.851C254.331 355.724 253.812 356.564 251.766 356.556C249.525 356.548 247.341 356.766 245.295 357.767C242.771 359.011 241.626 361.942 242.665 364.55C244.029 367.973 248.665 369.16 252.277 366.964L252.345 366.922C253.087 366.467 253.597 366.155 254.274 367.174C254.813 367.99 255.847 367.735 256.696 367.526L256.718 367.521C257.262 367.392 257.335 366.875 257.229 366.382C256.876 364.736 256.946 363.082 257.019 361.384V361.384V361.383V361.382V361.382V361.381L257.019 361.38C257.057 360.506 257.094 359.621 257.075 358.72L257.059 358.728ZM253.276 363.266C252.147 364.59 250.735 365.317 249.144 365.196C246.862 365.196 245.62 364.251 245.442 362.547C245.279 360.94 246.594 359.414 248.486 359.083C249.346 358.938 250.215 358.809 251.084 358.793C251.274 358.789 251.478 358.769 251.684 358.748C252.488 358.667 253.343 358.581 253.698 359.487C254.177 360.722 254.25 362.111 253.276 363.258V363.266ZM328.565 351.655C330.708 351.445 332.096 352.301 333.208 354.642C333.769 355.829 334.751 355.837 335.685 355.466C336.664 355.083 336.31 354.225 336.011 353.504L336.001 353.48C334.045 348.692 327.704 347.343 323.686 350.88C321.429 352.874 320.706 355.474 320.917 358.583C320.739 360.488 321.031 362.491 322.111 364.34C323.743 367.117 326.332 368.312 329.393 368.151C332.202 368.005 334.507 366.641 335.847 364.017L335.882 363.948C336.127 363.472 336.403 362.935 335.993 362.434C335.653 362.015 335.154 362.054 334.671 362.092C334.578 362.1 334.485 362.107 334.394 362.111C333.687 362.135 333.298 362.579 332.997 363.161C332.08 364.937 330.538 365.591 328.63 365.422C326.657 365.252 325.244 364.243 324.562 362.353C323.767 360.165 323.759 357.888 324.254 355.676C324.814 353.173 326.348 351.881 328.557 351.663L328.565 351.655ZM147.722 362.806C147.746 364.84 148.071 365.171 150.1 365.389L150.117 365.397C150.636 365.454 151.026 365.583 151.107 366.148C151.204 366.859 151.042 367.448 150.336 367.828C148.907 368.595 146.333 367.844 145.408 366.374C144.718 365.284 144.572 364.081 144.572 362.83V358.526H144.612C144.612 358.003 144.61 357.48 144.608 356.956C144.603 355.736 144.598 354.515 144.621 353.294C144.637 352.139 144.15 351.582 142.964 351.614C142.169 351.631 141.333 351.59 141.308 350.492C141.284 349.346 142.104 349.346 142.924 349.41C144.125 349.507 144.621 348.901 144.604 347.763C144.6 347.566 144.608 347.366 144.616 347.167L144.616 347.166V347.165V347.165V347.164V347.164L144.618 347.107C144.621 347.045 144.623 346.983 144.625 346.921C144.626 346.884 144.627 346.848 144.627 346.811C144.628 346.789 144.628 346.767 144.628 346.745L144.629 346.689C144.604 345.647 144.856 344.888 146.147 344.872C147.535 344.856 147.762 345.68 147.73 346.778C147.725 346.981 147.731 347.186 147.737 347.392V347.392V347.392V347.392C147.742 347.546 147.746 347.7 147.746 347.852C147.73 348.837 148.111 349.418 149.207 349.354C149.508 349.337 149.824 349.394 150.117 349.483C150.734 349.66 151.05 350.105 151.002 350.75C150.953 351.396 150.441 351.518 149.906 351.614C148.45 351.873 147.722 352.731 147.722 354.19C147.722 355.145 147.718 356.099 147.715 357.052L147.714 357.063V357.064V357.065V357.066V357.067V357.068V357.069V357.07V357.071V357.072V357.073V357.074V357.074V357.075V357.076V357.077V357.078V357.079V357.08V357.081V357.082V357.083V357.084C147.707 358.991 147.7 360.896 147.722 362.806ZM116.694 350.096C113.828 348.417 110.507 348.578 107.861 350.718C104.784 353.197 104.062 356.701 104.476 360.319C105.377 368.11 113.016 369.604 117.603 366.762C117.654 366.73 117.706 366.698 117.761 366.665L117.855 366.609C118.721 366.088 119.859 365.404 119.129 364.186C118.365 362.922 117.564 363.581 116.829 364.186C116.658 364.326 116.491 364.464 116.328 364.574C113.057 366.786 108.51 364.913 107.763 361.037C107.552 359.931 107.861 359.35 109.054 359.358C110.083 359.363 111.107 359.361 112.133 359.36H112.134H112.135H112.136H112.137H112.138H112.139H112.14H112.141H112.141H112.142H112.143H112.144H112.145H112.146H112.147H112.148H112.149C112.434 359.359 112.719 359.359 113.005 359.358C113.236 359.358 113.467 359.358 113.698 359.358V359.334H118.65C119.47 359.334 119.998 359.019 120.128 358.114C120.509 355.49 118.739 351.3 116.685 350.096H116.694ZM115.492 356.83H112.399V356.814C112.02 356.814 111.642 356.817 111.264 356.82C110.509 356.825 109.755 356.83 108.997 356.814C108.153 356.79 107.812 356.37 107.983 355.498C108.38 353.455 110.248 351.719 112.212 351.623C114.591 351.501 116.133 352.696 116.807 355.086C117.148 356.298 116.726 356.847 115.484 356.847L115.492 356.83ZM217.458 365.979C213.423 362.111 213.845 353.972 218.253 350.532H218.245C222.564 347.165 228.905 349.418 230.041 354.763C230.26 355.765 230.342 356.798 230.415 357.816C230.488 358.825 229.968 359.342 228.937 359.342C227.338 359.334 225.739 359.342 224.139 359.35L223.948 359.349C223.856 359.349 223.765 359.349 223.673 359.349L223.443 359.348L223.209 359.346L222.806 359.344H222.803C221.803 359.337 220.804 359.33 219.804 359.358C218.213 359.398 217.807 359.971 218.164 361.522C219.073 365.43 224.107 366.802 227.387 363.976C228.198 363.274 228.767 363.185 229.424 364.017C230.028 364.773 229.526 365.311 229.045 365.827L228.994 365.882C226.274 368.837 220.486 368.886 217.458 365.979ZM223.672 356.82H223.673H223.674H223.675H223.676H223.678H223.679C224.46 356.827 225.243 356.834 226.023 356.806C226.932 356.774 227.265 356.281 227.086 355.361C226.648 353.052 225.097 351.639 222.889 351.606C220.583 351.574 218.716 353.092 218.237 355.321C218.018 356.33 218.408 356.79 219.39 356.814C220.108 356.825 220.827 356.822 221.545 356.818H221.549L221.957 356.816C222.181 356.815 222.405 356.814 222.629 356.814C222.976 356.814 223.324 356.817 223.672 356.82ZM92.7771 345.228C95.3506 345.478 97.023 346.907 97.6724 349.442C97.7455 349.741 97.8348 350.048 98.0053 350.298C98.6223 351.195 99.5478 351.049 100.384 350.839C101.285 350.621 101.097 349.907 100.93 349.269L100.912 349.2C100.506 347.642 99.8644 346.164 98.7035 345.026C93.9867 340.359 84.9105 342.636 82.9377 348.958C81.7606 352.729 81.7606 356.564 82.5237 360.367C83.4411 364.969 87.1511 368.223 91.6568 368.094C96.4872 367.957 99.2636 366.415 100.749 361.925C101.309 360.246 100.887 359.77 99.1256 359.931C98.1595 360.02 97.8348 360.617 97.6156 361.417C96.9499 363.912 95.237 365.163 92.7203 365.389C90.2198 365.615 88.174 364.897 86.7858 362.644C85.3813 360.367 85.3489 357.88 85.4219 355.466L85.4187 355.275C85.3784 352.914 85.3398 350.655 86.5098 348.603C87.8818 346.188 89.9682 344.945 92.769 345.22L92.7771 345.228ZM128.408 350.379C129.967 349.224 131.745 348.732 133.653 348.982V348.998C136.616 349.386 138.418 351.534 138.556 354.998C138.654 357.452 138.664 359.914 138.675 362.376C138.681 363.607 138.686 364.838 138.702 366.068C138.71 367.133 138.264 367.658 137.135 367.691C136.007 367.731 135.569 367.319 135.585 366.173C135.625 362.838 135.625 359.503 135.585 356.168C135.561 354.473 135.244 352.826 133.474 352.042C131.501 351.17 129.756 351.719 128.213 353.124C127.32 353.94 126.979 354.949 126.988 356.152C127.004 358.272 126.998 360.393 126.993 362.513V362.515C126.99 363.575 126.988 364.636 126.988 365.696C126.996 366.754 126.882 367.642 125.469 367.666C124.065 367.682 123.903 366.827 123.903 365.745C123.908 364.103 123.906 362.461 123.904 360.819C123.904 359.998 123.903 359.177 123.903 358.357H123.919L123.919 357.975L123.918 357.325L123.917 356.817L123.916 356.288V356.288V356.287V356.286V356.285V356.284V356.283V356.283V356.282V356.281V356.28V356.279V356.279V356.278V356.277V356.276V356.275V356.274V356.274C123.913 354.557 123.91 352.841 123.927 351.122C123.928 351.025 123.925 350.923 123.922 350.819C123.903 350.238 123.883 349.596 124.633 349.459C125.469 349.305 126.476 349.184 126.915 350.226C127.328 351.21 127.742 350.891 128.253 350.498C128.304 350.458 128.355 350.418 128.408 350.379ZM162.262 348.958C161.101 348.91 160.191 349.483 159.315 350.129L159.254 350.173C158.758 350.537 158.305 350.87 157.821 350.048C157.334 349.224 156.473 349.394 155.726 349.564C154.882 349.749 154.882 350.5 154.882 351.178C154.877 352.82 154.878 354.458 154.88 356.097L154.881 356.962C154.882 357.494 154.882 358.026 154.882 358.558C154.882 359.36 154.883 360.162 154.884 360.964V360.965V360.966V360.975C154.886 362.579 154.887 364.184 154.882 365.785C154.882 366.891 155.117 367.699 156.489 367.674C157.788 367.65 157.983 366.851 157.983 365.825V357.065C157.983 353.407 158.763 352.503 162.456 351.978C163.39 351.849 163.853 351.453 163.828 350.5C163.804 349.483 163.268 349.015 162.286 348.974L162.262 348.958ZM207.253 343.282C207.172 342.079 207.675 341.683 208.877 341.659H208.885C210.078 341.635 210.63 341.966 210.59 343.193C210.562 344.115 210.569 345.038 210.575 345.96L210.576 345.966C210.579 346.374 210.582 346.782 210.582 347.19C210.42 349.607 210.469 352.024 210.519 354.441V354.441C210.571 356.99 210.623 359.538 210.427 362.087C210.367 362.872 210.428 363.666 210.489 364.46C210.527 364.948 210.564 365.436 210.574 365.922C210.59 366.592 210.541 367.335 209.721 367.545C208.974 367.739 208.122 367.86 207.618 367.077C207.196 366.423 206.839 366.471 206.238 366.827C200.539 370.202 195.701 366.148 195.059 361.223C194.67 358.276 194.654 355.426 196.172 352.713C198.25 348.99 202.074 347.795 205.727 349.975C207.05 350.759 207.188 350.411 207.269 349.111C207.383 347.165 207.383 345.22 207.253 343.282ZM207.268 358.989C207.273 358.714 207.278 358.438 207.278 358.163H207.204C207.229 357.549 207.253 356.935 207.286 356.322C207.407 353.988 206.311 352.373 204.201 351.792C202.041 351.203 199.752 352.099 198.859 354.109C197.576 356.992 197.43 359.979 198.713 362.919C199.581 364.921 201.806 365.785 204.225 365.187C206.441 364.638 207.44 363.169 207.286 360.779C207.247 360.182 207.257 359.586 207.268 358.989ZM219.025 285.736C220.453 282.377 220.827 278.897 220.518 275.336C220.08 270.394 218.18 266.268 213.691 263.58C210.898 261.905 207.825 261.529 204.725 261.149L204.722 261.148L204.7 261.146L204.37 261.105L204.214 261.086C204.061 261.067 203.907 261.048 203.754 261.028C201.079 260.681 198.392 260.663 195.704 260.644H195.703C194.01 260.633 192.317 260.621 190.627 260.527C187.152 260.334 183.621 260.608 180.146 260.947C177.305 261.222 176.85 261.932 176.842 264.742C176.837 268.734 176.838 272.729 176.84 276.723V276.748V276.748V276.749C176.841 278.749 176.842 280.749 176.842 282.748H176.818C176.818 283.345 176.823 283.942 176.828 284.54V284.541V284.542V284.542V284.543V284.543V284.543V284.544V284.544V284.544V284.545V284.545V284.545V284.546V284.546V284.547V284.547V284.547C176.839 285.743 176.85 286.94 176.818 288.134C176.7 291.905 176.817 295.674 176.933 299.443V299.443V299.444V299.444V299.445V299.445V299.446V299.446V299.447V299.447V299.447V299.448V299.448V299.449V299.449V299.45C177.074 304.023 177.215 308.597 176.939 313.172C176.793 315.587 177.873 317.072 179.927 317.314C182.184 317.581 184.457 317.508 186.69 316.959C187.883 316.669 188.394 315.966 188.354 314.755C188.295 312.795 188.311 310.834 188.328 308.872V308.872V308.871C188.354 305.654 188.38 302.435 188.078 299.22C187.818 296.475 188.273 295.966 191.098 295.885C193.308 295.82 195.517 295.721 197.725 295.622L197.729 295.622C200.458 295.5 203.186 295.378 205.914 295.32C211.621 295.191 217.011 290.5 219.041 285.736H219.025ZM192.315 285.082H190.456C188.183 285.082 187.883 284.734 187.883 282.522C187.883 281.019 187.846 279.516 187.809 278.013C187.777 276.698 187.744 275.383 187.737 274.068C187.721 272.05 187.972 271.807 189.937 271.807C191.193 271.807 192.449 271.765 193.705 271.722C196.824 271.616 199.942 271.511 203.056 272.058C204.607 272.332 206.044 272.857 207.391 273.632C209.469 274.827 209.81 276.838 209.737 278.969C209.664 281.02 208.69 282.53 206.831 283.523C205.126 284.428 203.283 284.629 201.44 284.702C200.333 284.743 199.226 284.805 198.119 284.867L198.115 284.867C196.187 284.974 194.257 285.082 192.324 285.082H192.315ZM166.369 355.288C167.084 351.622 170.81 348.78 174.61 348.942C178.734 349.119 182.257 352.414 182.679 356.491C182.718 356.839 182.73 357.187 182.747 357.663L182.756 357.903C182.759 357.981 182.762 358.062 182.765 358.146C182.768 358.234 182.772 358.325 182.776 358.421C182.767 358.498 182.757 358.578 182.747 358.661C182.727 358.838 182.707 359.028 182.686 359.228L182.685 359.232C182.603 360.008 182.506 360.935 182.306 361.837C181.469 365.599 177.897 368.441 174.033 368.143C170.144 367.844 166.954 365.438 166.24 361.247C165.899 359.237 165.988 357.258 166.369 355.288ZM170.583 363.766C173.27 366.714 177.638 365.874 179.026 362.127V362.135C179.456 360.973 179.602 359.745 179.635 358.51C179.643 357.105 179.448 355.74 178.807 354.481C177.069 351.057 173.043 350.581 170.518 353.48C168.602 355.676 168.643 361.635 170.583 363.766ZM160.167 310.354C165.257 304.016 168.05 296.798 167.522 288.505C167.912 282.635 166.231 277.193 163.958 271.84C161.864 266.922 158.397 263.41 153.38 261.69C147.08 259.526 140.618 258.751 134.083 260.818C133.708 260.936 133.333 261.052 132.958 261.168C129.699 262.174 126.46 263.174 123.919 265.752C121.069 268.634 119.032 271.856 118.001 275.812C117.914 276.145 117.826 276.479 117.739 276.812C116.817 280.316 115.893 283.834 115.922 287.439C115.963 292.445 116.474 297.395 118.317 302.223C121.021 309.321 125.778 314.125 132.792 316.879C137.566 318.752 142.42 318.631 147.405 317.823C152.698 316.975 156.936 314.392 160.175 310.354H160.167ZM134.018 304.258C132.143 302.353 130.925 300.06 130.137 297.516C128.092 290.96 127.962 284.444 130.081 277.847C131.169 274.472 133.693 272.558 136.583 271.242C142.826 268.408 149.077 271.073 151.951 276.369C153.957 280.059 154.923 283.806 155.053 290.459C154.582 295.07 153.453 300.439 149.037 304.597C144.694 308.683 137.062 307.359 134.01 304.258H134.018ZM390.605 272.025C391.506 269.861 393.113 268.085 394.818 266.397V266.406C400.274 261.012 407.166 259.445 414.367 259.631C420.78 259.801 427.113 261.133 431.878 266.147C432.958 267.278 433.9 268.505 434.565 269.894C436.53 273.971 438.251 278.097 438.795 282.684C439.03 284.67 439.225 286.64 439.258 288.634C439.363 297.734 436.311 305.655 429.978 312.211C428.209 314.036 426.09 315.7 423.638 316.539C414.408 319.721 405.526 319.317 397.481 313.261C394.266 310.839 392.05 307.561 390.353 303.911C387.796 298.42 387.049 292.583 387.284 286.664C387.487 281.634 388.656 276.692 390.605 272.025ZM424.304 298.986C427.251 292.026 426.845 284.985 424.15 278.017C422.372 273.414 416.6 268.594 409.934 270.653C406.168 271.815 403.18 273.842 401.743 277.694C400.525 280.964 400.16 284.355 400.16 287.827C400.314 292.898 401.069 297.823 403.959 302.183C406.289 305.712 409.658 307.246 413.831 307.076C419.238 306.866 422.38 303.54 424.304 298.986ZM436.116 355.966C435.806 355.966 435.498 355.964 435.189 355.962C434.47 355.957 433.752 355.952 433.031 355.975C432.317 355.999 431.886 356.386 431.878 357.137C431.862 357.872 432.235 358.34 432.966 358.357C434.971 358.389 436.968 358.389 438.974 358.357C439.688 358.348 440.118 357.953 440.134 357.202C440.151 356.37 439.664 355.991 438.892 355.966C438.275 355.945 437.658 355.952 437.041 355.959L436.765 355.962L436.593 355.964C436.434 355.966 436.275 355.966 436.116 355.966ZM62.723 302.615L62.7232 302.175V302.159C62.7273 299.877 62.7191 297.596 62.711 295.315C62.7029 293.036 62.6948 290.757 62.6988 288.481C62.7064 286.305 62.6555 284.129 62.6045 281.951C62.4923 277.154 62.38 272.355 62.8937 267.568C63.3158 263.652 65.8812 261.278 69.8835 261.173C71.6396 261.123 73.3996 261.135 75.1581 261.147H75.1598C75.929 261.152 76.6979 261.157 77.466 261.157C82.8322 260.98 88.2065 261.036 93.5078 261.997C96.7957 262.594 99.3611 264.516 101.504 266.93C108.405 274.698 109.411 284.056 108.803 293.883C108.551 298.057 107.017 301.82 105.279 305.445C103.477 309.208 100.368 311.969 96.5927 313.923C91.3808 316.62 85.8441 317.597 80.007 317.436C79.1245 317.413 78.2419 317.397 77.3596 317.381H77.3577C73.9068 317.318 70.4601 317.256 67.034 316.773C64.1764 316.378 63.5026 315.764 63.1372 312.914C62.7147 309.663 62.7186 306.392 62.7225 303.112L62.723 302.615ZM73.7115 282.617C73.7134 284.212 73.7154 285.886 73.7154 287.682H73.7073C73.7744 289.171 73.7445 290.815 73.713 292.553C73.6644 295.224 73.6119 298.115 73.9021 300.996C73.9466 301.418 73.9151 301.867 73.8835 302.314C73.8174 303.253 73.7515 304.188 74.3892 304.872C75.0764 305.611 76.0588 305.555 77.0444 305.5H77.0448H77.0452C77.503 305.474 77.9615 305.448 78.3915 305.502C82.5075 306.018 86.5666 305.574 90.301 303.75C93.0288 302.417 95.1964 300.415 96.13 297.314C97.6724 292.179 97.7293 286.963 96.5197 281.836C95.5779 277.815 92.3468 275.554 88.7992 273.721C84.9024 271.71 80.762 271.339 76.4837 271.509C74.2999 271.597 73.7316 272.033 73.7154 274.238C73.7048 276.934 73.708 279.63 73.7115 282.599V282.6V282.602V282.603V282.605V282.607V282.609V282.611V282.613V282.615V282.617ZM465.277 317.88C468.841 318.816 472.372 318.962 476.115 318.534C480.685 318.009 484.704 316.402 488.56 314.222C490.695 313.019 492.676 311.396 494.202 309.466C498.643 303.855 500.348 297.355 499.942 290.282C499.788 287.536 497.726 285.364 495.095 285.397C492.081 285.432 489.07 285.257 486.059 285.083H486.059H486.058H486.058H486.057H486.057H486.056H486.056H486.055H486.055C481.445 284.816 476.835 284.55 472.21 285.033C470.684 285.195 469.807 285.752 469.433 287.173C469.304 287.665 469.166 288.166 469.019 288.659C467.794 292.89 469.969 295.821 474.394 295.837C475.849 295.84 477.299 295.951 478.748 296.062C480.848 296.223 482.948 296.383 485.061 296.216C486.263 296.119 486.758 296.717 486.498 297.936C485.808 301.174 484.387 303.846 481.359 305.623C478.087 307.545 474.58 308.223 470.943 307.738C467.388 307.262 463.945 305.889 462.078 302.692C459.05 297.524 457.183 291.913 457.873 285.784C458.36 281.464 459.854 277.484 462.752 274.189C467.42 268.884 476.375 269.175 481.043 272.082C483.186 273.414 485.361 274.698 487.537 275.974C488.974 276.813 490.476 276.967 491.921 275.99C493.626 274.851 494.941 273.333 495.834 271.509C496.581 269.974 496.475 268.36 495.144 267.27L494.984 267.138C492.576 265.153 490.119 263.128 487.172 262.045C483.056 260.527 478.802 259.381 474.313 259.793C474 259.793 473.687 259.787 473.374 259.781H473.374C472.705 259.769 472.037 259.757 471.374 259.801C466.616 260.108 462.03 261.294 457.97 263.685C452.88 266.68 449.195 270.846 447.766 276.935C445.525 286.454 444.827 295.78 449.097 304.936C452.344 311.897 457.946 315.958 465.269 317.88H465.277ZM112.147 221.972C111.425 220.826 110.499 220.648 109.241 220.85L109.257 220.866C99.6208 222.424 91.2428 219.865 84.74 212.598C78.9192 206.09 77.0033 198.339 78.5295 189.667C80.2181 180.074 85.154 172.509 92.7122 166.582C94.5795 165.117 96.6396 163.883 98.6975 162.651L98.6991 162.65L98.6998 162.649L98.7 162.649L98.7002 162.649L98.7004 162.649L98.7006 162.649L98.7008 162.649L98.701 162.649C99.5676 162.13 100.434 161.611 101.285 161.075C103.664 159.574 105.158 157.628 105.028 154.64C104.857 150.861 100.717 148.035 97.1448 149.335C95.7696 149.833 95.2592 150.996 94.7379 152.184L94.6768 152.323C93.2074 155.641 89.8708 156.586 86.867 154.551C84.8942 153.219 84.2773 151.055 85.1378 148.528C87.2567 142.31 92.4767 138.677 99.1824 138.766C108.364 138.879 116.044 146.824 115.46 155.617C115.005 162.48 111.384 167.333 105.515 170.595C100.595 173.324 95.927 176.344 92.8583 181.172C88.5394 187.955 86.4367 195.157 90.3091 202.852C93.1018 208.407 99.0282 211.233 104.695 211.104C105.896 211.08 106.221 210.434 105.953 209.368C104.955 205.379 104.995 201.366 105.539 197.305C106.302 191.564 108.429 186.445 111.985 181.867C117.181 175.173 124.171 171.055 131.948 168.1C137.793 165.88 143.809 164.927 150.125 165.452C156.181 165.96 162.156 165.072 168.009 163.352C170.989 162.48 173.895 161.536 176.477 159.767C179.797 157.49 181.218 153.122 179.846 149.263C178.993 146.86 177.655 144.708 176.323 142.564C176.084 142.178 175.844 141.793 175.608 141.406C171.159 134.123 168.845 126.242 168.837 117.732C168.837 113.509 172.361 110.732 176.558 111.458C179.542 111.976 182.377 112.997 185.213 114.018L185.594 114.155C187.647 114.89 189.848 113.695 190.253 111.531C190.862 108.253 191.715 105.031 192.575 101.809C193.687 97.635 197.649 96.5611 200.775 97.8853C207.659 100.808 213.529 105.031 218.245 110.764C219.569 112.371 221.046 113.227 223.043 113.445C225.544 113.719 227.841 114.583 229.992 115.883C235.44 119.169 238.176 124.143 238.436 130.28C238.695 136.562 237.835 142.811 235.773 148.778C234.923 151.233 235.173 153.561 235.43 155.95L235.44 156.045C236.309 164.071 236.438 172.129 236.309 180.179C236.203 186.671 235.748 193.139 234.945 199.598C234.177 205.826 232.951 211.965 231.724 218.103C231.615 218.65 231.506 219.197 231.397 219.744C231.129 221.124 231.754 221.294 232.801 221.149C234.384 220.923 235.878 221.1 237.291 221.892C239.199 222.957 240.27 225.073 239.97 227.188C239.694 229.191 238.224 230.854 236.024 231.209C231.722 231.888 227.354 231.815 223.084 231.209C219.658 230.717 218.286 228.504 219.301 224.33C219.642 222.927 220.005 221.529 220.368 220.131L220.368 220.131L220.368 220.13L220.368 220.129L220.369 220.128L220.369 220.127L220.369 220.126L220.369 220.125L220.37 220.124L220.37 220.124L220.37 220.123L220.37 220.123L220.37 220.123L220.37 220.122L220.37 220.122L220.37 220.122L220.37 220.122C221.128 217.202 221.886 214.282 222.451 211.314C224.545 200.309 225.722 189.215 225.86 177.999C225.958 169.981 225.893 161.964 224.707 154.051C224.3 151.321 224.95 149.009 225.615 146.643C225.745 146.181 225.875 145.718 225.998 145.25C227.192 140.72 228.077 136.158 227.995 131.442C227.922 127.163 225.812 124.506 221.598 123.61C220.993 123.479 220.39 123.333 219.786 123.186C218.788 122.943 217.788 122.699 216.776 122.528C214.527 122.149 212.993 120.808 211.645 119.105C209.08 115.867 206.271 112.871 202.764 110.594C201.416 109.714 201.173 109.73 200.807 111.297C200.474 112.742 200.247 114.228 200.15 115.705C199.963 118.531 198.786 120.639 196.042 121.648C194.738 122.127 193.553 122.82 192.367 123.512L192.367 123.512C191.515 124.01 190.662 124.508 189.766 124.926C188.013 125.742 186.267 125.645 184.522 124.886C183.572 124.474 182.622 124.07 181.656 123.715C180.146 123.166 179.651 123.521 180.016 125.072C180.779 128.334 181.908 131.467 183.58 134.398C183.993 135.119 184.412 135.837 184.831 136.556C186.404 139.256 187.979 141.958 189.255 144.822C192.6 152.347 190.278 162.012 183.824 167.171C178.734 171.241 172.645 172.969 166.434 174.406C163.117 175.169 159.752 175.464 156.386 175.759L156.383 175.759C155.796 175.811 155.209 175.862 154.622 175.916C153.242 176.037 151.813 176.045 150.449 175.827C143.622 174.753 137.347 176.497 131.331 179.493C127.093 181.608 123.278 184.249 120.282 188.003C116.661 192.549 115.403 197.757 115.508 203.409C115.509 203.458 115.509 203.508 115.509 203.559V203.559C115.508 203.969 115.507 204.443 116.02 204.572C116.408 204.675 116.61 204.373 116.8 204.091C116.848 204.019 116.896 203.948 116.945 203.886C119.559 200.616 122.474 197.709 126.176 195.585C131.98 192.259 138.183 190.821 144.856 191.136C151.213 191.435 156.985 193.373 161.653 197.693C167.189 202.82 169.113 209.215 167.23 216.611L167.23 216.611C167.141 216.958 167.051 217.305 166.93 217.644C166.426 219.001 166.954 219.703 168.326 219.905C168.979 220.003 169.63 220.107 170.281 220.212L170.284 220.212L170.286 220.213C173.35 220.704 176.399 221.193 179.464 220.947C181.985 221.147 184.429 220.825 186.858 220.506H186.858H186.858H186.859H186.859H186.859H186.859H186.859H186.859L186.86 220.506L186.861 220.506L186.862 220.506L186.862 220.506L186.863 220.505L186.864 220.505L186.865 220.505L186.866 220.505C187.869 220.373 188.869 220.242 189.872 220.147C189.969 220.138 190.066 220.128 190.163 220.117C190.238 220.108 190.313 220.1 190.387 220.091C190.984 220.02 191.58 219.95 192.186 220.051C194.767 220.47 196.318 222.142 196.399 224.588C196.488 227.576 195.092 229.546 192.389 230.095C184.627 231.662 176.842 231.597 169.032 230.499C166.714 230.172 164.475 229.552 162.234 228.932C161.594 228.755 160.955 228.578 160.313 228.408C159.436 228.181 158.738 228.19 157.999 228.747C145.611 238.065 125.607 236.353 114.128 224.33L114.062 224.26C113.376 223.54 112.674 222.801 112.147 221.972ZM124.785 210.772L124.785 210.772C123.701 212.103 122.619 213.432 121.467 214.697L121.475 214.705C120.623 215.642 120.737 216.191 121.532 216.998C126.306 221.867 131.997 224.556 139.547 224.419C141.99 224.71 144.88 223.975 147.657 222.78C151.359 221.181 154.728 219.138 156.725 215.44C158.162 212.784 157.488 208.771 155.637 206.469C153.713 204.079 151.245 202.949 148.42 202.069C141.503 199.921 131.729 202.561 127.012 208.084C126.254 208.968 125.519 209.871 124.785 210.772ZM65.2742 358.375C64.6723 358.38 64.0696 358.384 63.4701 358.365C62.7719 358.348 62.2929 358.017 62.2605 357.25C62.2361 356.419 62.6907 355.991 63.4782 355.983C65.3779 355.95 67.2857 355.958 69.1854 355.983C69.9322 355.999 70.4843 356.338 70.4843 357.186C70.4843 358.042 69.9322 358.348 69.1772 358.373C68.5603 358.389 67.9433 358.383 67.3263 358.378C67.0178 358.375 66.7093 358.373 66.4008 358.373C66.0269 358.37 65.6519 358.372 65.2765 358.375H65.2761H65.2757H65.2753H65.275H65.2746H65.2742ZM4.77319 317.405H4.77527C5.60049 317.403 6.4257 317.401 7.25091 317.428C9.74322 317.508 11.375 316.37 12.268 314.109C12.4508 313.645 12.6338 313.182 12.8168 312.718L12.817 312.718C13.577 310.794 14.3361 308.872 15.0688 306.939C15.4341 305.978 15.9781 305.372 17.0903 305.381C21.9276 305.391 26.7612 305.388 31.5961 305.384H31.597H31.5979H31.5988H31.5997H31.6313C34.0551 305.382 36.4792 305.381 38.9041 305.381C39.7403 305.381 40.3898 305.671 40.8038 306.454C41.2053 307.218 41.6284 307.97 42.0514 308.722C43.185 310.738 44.3181 312.752 45.0334 314.981C45.3663 316.015 46.0401 316.854 47.1686 317L47.4588 317.038C49.5547 317.318 51.6587 317.599 53.785 317.105C56.2204 316.539 56.878 315.619 56.1636 313.285C55.5466 311.275 54.9134 309.248 54.0204 307.351C52.6794 304.496 51.5538 301.554 50.4287 298.614C49.6126 296.481 48.7968 294.349 47.8992 292.252C46.6242 289.277 45.5122 286.237 44.4004 283.198L44.4001 283.197C43.4661 280.645 42.5323 278.092 41.502 275.578C40.8971 274.097 40.3735 272.589 39.8502 271.082L39.85 271.081C39.2637 269.393 38.6778 267.705 37.9786 266.058C36.2089 261.9 34.5121 257.718 32.921 253.495C31.7032 250.273 30.9644 249.635 27.2787 249.651C25.0868 249.449 23.0572 250.176 21.9288 252.413C21.0358 254.197 20.3214 256.078 19.6557 257.968C18.8419 260.294 18.0548 262.631 17.2677 264.967C15.9267 268.948 14.5856 272.929 13.1123 276.862C11.988 279.864 10.9631 282.897 9.93816 285.93C9.15724 288.241 8.37628 290.552 7.55129 292.849C6.88141 294.711 6.22508 296.579 5.5686 298.448L5.56841 298.448L5.56719 298.452L5.56704 298.452C4.32257 301.994 3.07752 305.537 1.73859 309.046L1.70867 309.125C0.971641 311.069 0.233886 313.015 0.025629 315.102C-0.128619 316.677 0.399071 317.306 1.99837 317.379L1.99026 317.371C2.9179 317.409 3.84555 317.407 4.77319 317.405ZM19.6475 292.009C20.3937 290.183 21.071 288.331 21.7482 286.479C22.7952 283.617 23.8422 280.754 25.1436 277.984C25.5469 277.125 25.7914 276.195 26.0361 275.264C26.1708 274.751 26.3056 274.239 26.4669 273.737L26.473 273.719L26.4932 273.657C26.6081 273.306 26.747 272.881 27.2219 272.873C27.6262 272.873 27.7791 273.18 27.9287 273.481C27.9654 273.555 28.0019 273.628 28.0419 273.697C30.9253 278.606 33.0281 283.868 35.1303 289.128L35.1321 289.133C35.5565 290.195 35.981 291.257 36.4118 292.316C36.8664 293.431 36.2576 293.713 35.324 293.713C33.6751 293.719 32.0297 293.717 30.3832 293.715H30.3823H30.3814H30.3805H30.3796H30.3787C29.5543 293.714 28.7295 293.713 27.9038 293.713C27.1137 293.713 26.3235 293.711 25.5333 293.71H25.5233C23.9462 293.706 22.3692 293.702 20.7922 293.713C19.4771 293.729 19.1523 293.221 19.6475 292.001V292.009ZM414.238 357.157C415.049 357.344 415.861 357.531 416.64 357.832H416.624C418.264 358.462 419.717 359.293 420.391 361.021C421.186 363.064 420.431 365.365 418.54 366.754C415.707 368.829 410.413 368.522 407.848 366.132C407.28 365.599 406.801 364.986 406.517 364.259C406.503 364.223 406.488 364.186 406.473 364.148L406.437 364.059C406.172 363.403 405.866 362.646 406.793 362.273C407.653 361.925 408.603 361.893 409.261 362.878C410.844 365.268 412.995 366.035 415.577 365.196C416.575 364.865 417.314 364.283 417.493 363.193C417.671 362.079 417.087 361.32 416.226 360.738C415.42 360.195 414.501 359.969 413.582 359.742C413.15 359.636 412.718 359.53 412.297 359.39C412.224 359.366 412.151 359.343 412.079 359.32C412.024 359.304 411.97 359.287 411.916 359.271C411.865 359.256 411.814 359.241 411.763 359.226C411.653 359.193 411.543 359.162 411.432 359.13C410.927 358.984 410.423 358.84 409.943 358.639C408.23 357.921 406.947 356.806 406.752 354.828C406.541 352.704 407.515 351.138 409.253 350.048C410.438 349.305 411.769 348.853 413.515 348.885C415.796 348.958 418.158 349.588 419.676 351.865C419.718 351.927 419.762 351.991 419.807 352.056C420.3 352.773 420.894 353.636 420.001 354.473C419.27 355.159 417.704 354.586 416.997 353.512C415.747 351.606 413.036 350.993 411.128 352.188C410.332 352.688 409.878 353.415 409.926 354.368C409.975 355.28 410.495 355.87 411.306 356.257C412.242 356.698 413.24 356.928 414.238 357.157ZM357.442 348.966C354.186 348.465 350.963 349.959 349.25 352.729C347.212 356.023 347.342 359.543 348.528 362.959C349.892 366.883 353.951 368.829 358.042 367.933C362.166 367.028 364.61 363.532 364.602 358.373C364.667 357.339 364.464 356.168 364.196 355.022C363.482 352.042 360.551 349.451 357.442 348.966ZM360.786 362.16C360.072 364.178 358.619 365.252 356.532 365.438C354.397 365.624 352.879 364.63 351.848 362.806C351.109 361.506 350.947 360.093 350.979 358.542C350.931 357.388 351.117 356.176 351.564 355.014C352.384 352.85 353.967 351.663 356.07 351.631C358.221 351.59 359.771 352.632 360.697 354.812C361.728 357.242 361.663 359.697 360.794 362.168L360.786 362.16ZM388.575 353.06C390.191 350.032 393.568 348.433 396.888 349.079C400.201 349.725 402.336 352.164 402.733 355.749C402.999 358.16 401.922 359.366 399.502 359.366H399.492C399.266 359.366 399.04 359.366 398.814 359.366C398.66 359.366 398.506 359.366 398.352 359.366C397.807 359.367 397.261 359.369 396.718 359.374C396.255 359.374 395.792 359.37 395.328 359.367C394.4 359.36 393.471 359.352 392.545 359.374C390.775 359.422 390.28 360.181 390.865 361.869C391.993 365.115 395.898 366.512 398.853 364.711C399.202 364.501 399.535 364.251 399.86 364.001C400.55 363.476 401.24 363.242 401.897 364.009C402.583 364.807 402.042 365.368 401.516 365.912L401.451 365.979C399.088 368.409 394.469 368.918 391.408 367.036C389.306 365.737 387.877 363.944 387.455 361.433C386.96 358.518 387.163 355.708 388.575 353.06ZM396.085 356.836H396.086H396.087C396.701 356.841 397.319 356.847 397.936 356.831V356.814C399.616 356.782 400.006 356.168 399.413 354.578C398.658 352.551 397.091 351.485 395.054 351.614C393.121 351.736 391.295 353.399 390.881 355.353C390.686 356.273 391.027 356.758 391.936 356.79C392.678 356.818 393.423 356.811 394.17 356.804C394.502 356.801 394.835 356.798 395.167 356.798V356.831C395.472 356.831 395.779 356.833 396.085 356.836ZM374.425 349.555C373.973 349.794 373.542 350.061 373.11 350.328L373.109 350.329C372.928 350.44 372.748 350.552 372.566 350.662C372.192 350.888 371.843 350.92 371.738 350.411C371.478 349.16 370.585 349.071 369.603 349.281C368.6 349.503 368.61 350.312 368.619 351.066C368.62 351.137 368.62 351.206 368.62 351.275C368.61 352.843 368.613 354.415 368.617 355.987V355.998C368.619 356.787 368.62 357.576 368.62 358.365V365.454L368.62 365.533C368.619 366.628 368.619 367.682 370.22 367.666C371.733 367.643 371.731 366.638 371.73 365.619L371.73 365.527C371.73 364.744 371.729 363.962 371.728 363.179C371.725 360.829 371.722 358.478 371.746 356.128C371.778 353.504 373.808 351.598 376.43 351.655C378.817 351.703 380.043 353.165 380.067 356.039C380.092 359.374 380.092 362.717 380.083 366.051C380.083 367.117 380.522 367.666 381.658 367.666C382.803 367.666 383.209 367.077 383.209 366.027C383.204 364.777 383.213 363.525 383.222 362.274V362.273C383.241 359.621 383.26 356.969 383.144 354.319C382.949 349.911 378.37 347.48 374.425 349.555ZM373.491 306.454C369.944 311.727 364.967 314.634 359.171 316.434H359.179C357.044 317.096 354.714 317.274 352.465 317.379C347.724 317.597 342.983 317.549 338.25 317.137C334.321 316.79 332.137 314.472 332.048 310.564C332.016 309.189 331.928 307.814 331.839 306.44C331.697 304.24 331.555 302.042 331.65 299.85C331.762 297.407 331.65 294.972 331.538 292.538C331.415 289.848 331.292 287.16 331.471 284.468C331.683 281.282 331.608 278.101 331.532 274.857C331.476 272.512 331.42 270.134 331.471 267.697C331.427 266.031 331.513 264.302 331.6 262.537C331.706 260.402 331.814 258.214 331.698 256.022C331.642 254.94 331.91 253.882 332.25 252.849C333.143 250.136 335.62 249.861 337.803 249.764C338.728 249.725 339.651 249.667 340.576 249.61C343.037 249.458 345.501 249.306 347.992 249.482C349.349 249.575 350.71 249.593 352.074 249.611C353.89 249.634 355.712 249.658 357.539 249.861C362.037 250.362 366.299 251.379 369.806 254.326C373.256 257.225 376.39 260.414 377.315 265.098C377.47 265.896 377.759 266.653 378.048 267.412C378.288 268.044 378.529 268.677 378.695 269.337C380.238 275.465 380.92 281.65 380.051 287.924C379.134 294.529 377.315 300.77 373.491 306.454ZM343.649 303.443C343.616 304.638 344.542 304.912 345.54 305.041L345.532 305.05C349.729 305.59 353.894 305.502 357.921 304.129C361.208 303.015 363.774 300.956 365.389 297.839C367.821 293.15 368.038 288.092 368.253 283.092C368.297 282.083 368.34 281.076 368.401 280.075C368.353 279.565 368.311 279.057 368.27 278.552C368.099 276.441 367.931 274.384 367.257 272.397C367.22 272.288 367.183 272.18 367.147 272.072C365.912 268.409 364.685 264.772 360.9 262.764C358.546 261.512 356.005 260.963 353.423 260.414C352.111 260.139 350.824 260.27 349.539 260.401C348.526 260.504 347.513 260.607 346.49 260.511C343.965 260.277 343.243 261.028 343.186 263.539C343.157 264.755 343.258 265.963 343.36 267.172C343.459 268.363 343.559 269.555 343.535 270.758C343.469 274.021 343.463 277.284 343.458 280.548C343.45 285.262 343.443 289.976 343.251 294.69C343.193 296.167 343.32 297.638 343.448 299.111C343.572 300.551 343.697 301.993 343.649 303.443Z" fill="#38C8CF"/>
</svg>
