<?xml version="1.0" encoding="UTF-8"?><svg id="Capa_2" xmlns="http://www.w3.org/2000/svg" viewBox="0 0 153 122.27"><defs><style>.cls-1{fill:none;stroke:#000;stroke-linecap:round;stroke-miterlimit:10;}.cls-2{fill:#d2b196;}</style></defs><g id="Capa_1-2"><path class="cls-1" d="M83.08,71.29v24.45s-.68,10.81-3.41,14.12-6.82,7.12,4.78,7.62c1.9.08,3.79-.57,5.17-1.89s3.11-3.74,4.66-7.77c3.7-9.64,8.18-24.15,8.18-24.15"/><path class="cls-2" d="M75.73,33.31s-17.88,5.3-23.97-5.11-10.41-21.61-10.41-21.61c0,0-4.26-6.29-9.79-6.29-3.58,0-7.24-.16-9.36-.28-1.52-.08-3.02.2-4.41.83-3.45,1.57-9.23,5.32-9.64,13.01-.59,11,1.57,34.19,1.57,34.19,0,0,0,34.77,30.65,33.01,30.65-1.76,49.24-11.98,49.24-11.98,0,0,18.36,9.14,16.79,36.55,0,0,.12,6.78-1.9,9.5s.54,9.59,11.5,4.6c0,0,1.86.68,4.89-9.96s24.36-63.64-14.23-77.64c0,0-6.63-3.92-30.91,1.19Z"/><circle cx="19.89" cy="14.57" r="1.11"/><circle cx="30.44" cy="14.57" r="1.11"/><path d="M21.99,17.42h5.88c.42,0,.82.16,1.13.44l.35.33c.65.6.73,1.62.15,2.29-.67.76-1.91,1.54-4.17,1.54-2.46,0-3.87-1-4.64-1.89-.57-.66-.48-1.66.16-2.25h0c.31-.29.72-.45,1.14-.45Z"/><path class="cls-1" d="M24.78,21.85v2s-1.57,2.77-3.87,2.77-2.64-1.62-2.64-1.62"/><path class="cls-1" d="M24.78,21.85v2s1.57,2.77,3.87,2.77,2.64-1.62,2.64-1.62"/><path class="cls-1" d="M11.94,5.01s-3.87-.76-5.24,1.73c-1.04,1.88-4.02,7.77-5.42,10.54-.73,1.45-1,3.13-.59,4.7.19.74.52,1.47,1.07,2.06,1.78,1.88,4.68,4.78,4.68,4.78,0,0,2.14,1.63,3.16-.97s2.95-8.24,3.26-18.73"/><path class="cls-1" d="M39.41,3.87s3.87-.76,5.24,1.73c1.04,1.88,4.02,7.77,5.42,10.54.73,1.45,1,3.13.59,4.7-.19.74-.52,1.47-1.07,2.06-1.78,1.88-4.68,4.78-4.68,4.78,0,0-2.14,1.63-3.16-.97s-2.95-8.24-3.26-18.73"/><path class="cls-1" d="M34.69,70.6v21.98c0,1.77-.13,3.53-.4,5.28-.71,4.69-2.32,13.85-4.32,16.28-2.61,3.17-6.82,7.12,4.79,7.62,1.95.08,3.87-.64,5.27-2s2.34-2.66,4.61-6.2c5.98-9.35,13.19-37.79,13.19-37.79"/><path class="cls-1" d="M20.13,77.77l.25,13.82s-.31,15.87-3.04,19.18-6.82,7.12,4.78,7.62c1.9.08,4.45-.42,5.82-1.74"/><path class="cls-1" d="M78.74,116.4s.17-1.94,1.58-2.85"/><path class="cls-1" d="M29.94,120.7s.17-1.94,1.58-2.85"/><path class="cls-1" d="M17.66,117.25s.17-1.94,1.58-2.85"/><path class="cls-1" d="M21.24,117.83s.17-1.94,1.58-2.85"/><path class="cls-1" d="M33.71,121.14s.17-1.94,1.58-2.85"/><path class="cls-1" d="M82.18,116.8s.17-1.94,1.58-2.85"/><path class="cls-1" d="M105.62,119.97s.17-1.94,1.58-2.85"/><path class="cls-1" d="M108.75,121.01s.17-1.94,1.58-2.85"/><path class="cls-1" d="M10.5,54.95s-1.95,14.31,5.01,14.82c6.96.51,5.86-6.75,2.37-5.64-2.16.69-4.42,8.63,2.15,13.46,3.4,2.5,8.32,1.3,9.98-2.58.02-.05.04-.11.07-.16,0,0,.65-2.68-1.45-2.75s-2.75,7.54,5.94,9.13"/><path class="cls-1" d="M110.84,33.69s12.35.46,18.44,10.88c6.08,10.42,7.01,26.83,10.79,33.74s12.54,12.81,12.44,16.13-7.37,4.61-12.26.83c0,0-3.5-3.5-.09-5.07s1.57,7.47-3.13,7.38-5.53-6.18-5.53-6.18c0,0,.18-7.93,3.78-6.45s-7.37,13.92-10.42,2.58"/></g></svg>