<?xml version="1.0" encoding="UTF-8"?><svg id="Capa_2" xmlns="http://www.w3.org/2000/svg" viewBox="0 0 119.69 127.41"><defs><style>.cls-1{fill:#f9efe5;}.cls-2{fill:none;stroke:#000;stroke-linecap:round;stroke-miterlimit:10;}.cls-3{fill:#b97956;}.cls-4{fill:#4c4747;}.cls-5{fill:#b87a58;}</style></defs><g id="Capa_1-2"><path class="cls-2" d="M14.4,9.75s-1.93-7.45,0-7.84,5.39,6.62,5.39,6.62"/><path class="cls-2" d="M38.9,92.36l.85.93.7,5.25s1.47,3.94,1.39,6.41-1.31,6.88-3.32,8.65-3.63.54-3.63.54"/><path class="cls-2" d="M33.8,119.78s2.78,2.86,11.36,1.16c0,0,.39.15,1.62-1.47s8.19-14.52,8.19-14.52v-8.34"/><path class="cls-1" d="M40.44,36.94s-3.77-31.42-22.36-28.21c0,0-12.03,1.42-13.23,11.89,0,0-3.4.94-3.01,4.95s2.23,7.21,9.28,7.59c0,0-10.12,37.06,4.49,48.31s36.85,18.33,49.83,12.52,13.34-13.16,13.34-13.16c0,0,6.9,21.51,24.96,25.59s15.88-6.44,15.88-6.44c0,0,.47-3.37-10.73-3.3,0,0-11.32-.78-24.39-29.19,0,0-3.29-8.84-10.17-14.59-3.49-2.91-9.25-5.51-15.69-5.81-19.52-.9-18.19-10.15-18.19-10.15Z"/><path class="cls-5" d="M4.85,20.62l21.47,1.97,5.45-5.67,1.15-1.25s-4.83-7.75-11.97-7.32-15.16,2.03-16.1,12.27Z"/><path class="cls-2" d="M21.21,10.78s.77-10.28,3.34-10.28,6.68,16.06,6.68,16.06"/><path class="cls-2" d="M4.85,30.68s2.93.16,3.5-.57"/><path class="cls-2" d="M2.9,24.98s-1.14-2.12-2.12-.16l2.12.16Z"/><path class="cls-2" d="M21.67,83.09l1.16,4.79v28.58s-4.94,4.17-4.71,6.1c0,0-5.56.08-6.03-2.09s3.79-3.94,3.79-3.94l-3.17-26.19-1.08-14.52-.93-1.31"/><path class="cls-2" d="M37.43,76.45s1.7,8.65,1,16.53l-2.63,10.35-1.85,15.06-.62,2.16s-1,5.48-3.09,6.1-11.82.39-12.44-4.09"/><path class="cls-2" d="M53.35,92.13l8.73,11.33v10.84s-4.63,2.55-4.25,5.41,2.55,2.24,2.55,2.24h9.35s2.01-.7,2.39-6.88.39-5.25.39-5.25l4.17-15.6,1.93-14.99"/><path class="cls-2" d="M8.56,19.64s1.25-1.44,2.46-1.49,2.65,1.44,2.65,1.44"/><path class="cls-3" d="M85.84,70.28s-.43,17.09,5.82,22.08,11.52,7.33,23.31,4.68c0,0-11.85-1.85-18.16-9.86s-10.97-16.89-10.97-16.89Z"/><path class="cls-4" d="M74.32,52.52s12.51,5.61,6.89,24.59c0,0-2.49,1.49-3.06-4.62-.31-3.36-2.87-4.82-4.48-5.54-2.91-1.3-4-4.87-2.1-7.42,0,0,0,0,0,0,1.37-1.66,2.35-3.61,2.59-5.75l.14-1.26Z"/><path class="cls-3" d="M55.55,46.84s10.45-.4,18.76,5.69c0,0,.5,2.7-5.19,5.33,0,0-3.7,4.19-3.62,10.09s-8.03,2.42-8.03,2.42c0,0-9.52-.71-8.53-6.61s6.61-16.92,6.61-16.92Z"/><path class="cls-4" d="M40.48,36.96s.57,8.56,15.07,9.88-4.45,21.53-4.45,21.53c0,0-13.81-6.04-13.67-14.64s3.06-16.77,3.06-16.77Z"/></g></svg>